<svg width="1100" height="230" viewBox="0 0 1100 230" fill="none" xmlns="http://www.w3.org/2000/svg">
<path d="M80.4156 71.8952V71.0386" stroke="white" stroke-width="1.45455" stroke-linecap="round"/>
<path d="M80.844 70.6102C79.4023 71.8718 80.4971 78.4687 80.844 80.2031" stroke="white" stroke-width="1.45455" stroke-linecap="round"/>
<path d="M88.1257 71.0384C88.1257 67.8843 88.5788 77.3336 88.9824 80.4617" stroke="white" stroke-width="1.45455" stroke-linecap="round"/>
<path d="M96.2642 70.1818C95.4618 72.8896 95.8358 76.6875 95.8358 79.4757" stroke="white" stroke-width="1.45455" stroke-linecap="round"/>
<path d="M103.974 70.6102C103.974 73.9691 103.599 76.3631 103.974 79.7346" stroke="white" stroke-width="1.45455" stroke-linecap="round"/>
<path d="M111.256 70.1818V70.6101" stroke="white" stroke-width="1.45455" stroke-linecap="round"/>
<path d="M111.256 70.6102V80.0336" stroke="white" stroke-width="1.45455" stroke-linecap="round"/>
<path d="M118.966 71.0386C117.369 72.0367 118.787 79.2534 118.966 80.5021" stroke="white" stroke-width="1.45455" stroke-linecap="round"/>
<path d="M126.247 71.0386C125.161 74.2979 125.539 77.6223 125.391 81.0197" stroke="white" stroke-width="1.45455" stroke-linecap="round"/>
<path d="M83.4141 135.289C83.3203 136.039 83.3387 136.484 83.3903 137.335C83.467 138.601 83.3869 139.875 83.4141 141.142C83.4593 143.253 83.8937 143.958 84.6991 145.569" stroke="white" stroke-width="1.45455" stroke-linecap="round"/>
<path d="M92.8375 135.159C91.0388 138.382 91.4914 140.414 92.4091 143.855" stroke="white" stroke-width="1.45455" stroke-linecap="round"/>
<path d="M99.6907 134.86C99.6907 138.12 100.014 141.083 100.547 144.284" stroke="white" stroke-width="1.45455" stroke-linecap="round"/>
<path d="M109.681 135.273C107.959 137.64 109.523 143.661 110.399 145.997" stroke="white" stroke-width="1.45455" stroke-linecap="round"/>
<path d="M117.253 136.574C117.253 139.121 118.199 141.444 118.966 143.855" stroke="white" stroke-width="1.45455" stroke-linecap="round"/>
<path d="M128.389 135.717C127.97 138.808 128.14 141.602 128.389 144.712" stroke="white" stroke-width="1.45455" stroke-linecap="round"/>
<path d="M65.2753 89.894C63.6038 89.894 67.2651 89.7384 67.6123 89.6776C70.3414 89.2 71.9386 89.1269 74.6233 89.894" stroke="white" stroke-width="1.45455" stroke-linecap="round"/>
<path d="M66.0542 97.6841C65.4319 98.3952 69.2471 97.5772 69.7112 97.5109C72.1835 97.1578 73.5727 97.4389 75.7918 98.4631" stroke="white" stroke-width="1.45455" stroke-linecap="round"/>
<path d="M66.0541 106.746C68.8928 105.734 73.3389 106.832 75.7917 105.967" stroke="white" stroke-width="1.45455" stroke-linecap="round"/>
<path d="M67.1353 114.909C67.8626 115.16 69.6808 114.909 70.7717 114.909C73.6808 114.909 73.7159 114.968 76.6225 115.549" stroke="white" stroke-width="1.45455" stroke-linecap="round"/>
<path d="M66.8333 124.17C69.5825 123.576 73.3518 123.689 76.0779 124.17" stroke="white" stroke-width="1.45455" stroke-linecap="round"/>
<path d="M66.0541 131.96C69.3609 131.925 72.5212 131.493 75.7917 131.96" stroke="white" stroke-width="1.45455" stroke-linecap="round"/>
<path d="M135.166 128.177C135.376 128.738 139.375 128.51 139.996 128.547C140.879 128.601 142.507 128.691 143.277 128.177" stroke="white" stroke-width="1.45455" stroke-linecap="round"/>
<path d="M135.582 120.898C134.411 120.898 137.902 120.545 139.072 120.494C140.427 120.435 141.595 120.892 142.861 121.314" stroke="white" stroke-width="1.45455" stroke-linecap="round"/>
<path d="M135.478 113.411C138.208 113.184 139.912 112.376 142.653 112.787" stroke="white" stroke-width="1.45455" stroke-linecap="round"/>
<path d="M135.582 106.756C137.721 106.03 140.02 105.899 142.237 105.508" stroke="white" stroke-width="1.45455" stroke-linecap="round"/>
<path d="M135.166 97.8133C133.145 97.8133 139.191 97.4283 141.198 97.1893" stroke="white" stroke-width="1.45455" stroke-linecap="round"/>
<path d="M133.681 89.091C133.5 89.1111 134.365 88.5722 134.365 88.8023C134.365 89.1097 135.613 88.8339 135.74 88.8152C138.086 88.4702 140.191 88.3593 142.439 89.1623" stroke="white" stroke-width="1.45455" stroke-linecap="round"/>
<path d="M97.3226 101.076C96.7504 101.394 96.4727 98.6256 97.8097 99.9625C98.3131 100.466 98.575 101.281 98.575 100.902C98.575 100.521 98.3873 97.8012 97.5662 99.1972C97.146 99.9114 96.8034 100.283 96.6269 101.145C96.5967 101.293 96.3091 103.277 96.6269 102.641C96.9879 101.919 96.9615 99.6353 97.9488 99.3885C98.3522 99.2877 98.2189 103.092 98.4184 103.372C98.5993 103.625 98.473 99.3556 98.1923 99.8233C97.6078 100.798 96.8115 103.798 98.575 102.328" stroke="white" stroke-width="1.45455" stroke-linecap="round"/>
<path d="M108.594 102.944C107.598 102.82 108.859 99.9007 109.22 99.5004C110.426 98.16 110.51 101.65 110.159 102.353C109.923 102.825 110.159 101.298 110.159 100.77C110.159 100.204 110.165 99.6413 109.846 100.579C109.459 101.716 108.466 105.207 109.533 102.005" stroke="white" stroke-width="1.45455" stroke-linecap="round"/>
<path d="M86.941 86.9331L87.1626 85.3823" stroke="#62686D" stroke-width="1.45455" stroke-linecap="round"/>
<path d="M77.415 82.5023C76.596 82.5504 76.9049 83.0044 76.5904 83.5607C76.2826 84.1054 75.1295 85.3656 75.7412 85.2345C76.1429 85.1485 76.8164 84.2772 77.1197 84.0284C77.3384 83.8489 80.056 81.4189 79.6919 82.5515C79.045 84.5643 77.1616 86.0687 76.5043 88.0406C76.1076 89.2308 78.3926 86.3862 79.2858 85.5053C80.2425 84.5617 81.2359 83.6416 82.3503 82.8838C84.1753 81.6428 81.3219 85.6317 81.1319 85.8991C80.0863 87.3707 78.9627 88.8676 78.1781 90.5021C77.6341 91.6355 79.1827 90.3196 79.335 90.1575C80.6607 88.7472 81.7849 87.1508 83.1011 85.7268C83.4554 85.3435 85.5823 83.1176 84.7503 85.173C82.8489 89.8706 78.3058 93.318 76.6397 98.1082C76.1217 99.5974 78.5841 96.5805 78.6212 96.5328C79.9285 94.8505 81.2621 93.1766 82.5103 91.4498C83.4436 90.1588 84.2432 88.7277 85.2918 87.5237C86.1045 86.5907 85.764 87.7698 85.538 88.2622C83.5038 92.6937 80.6512 96.6442 78.1412 100.804C78.0746 100.914 75.801 104.833 76.1104 104.877C77.0713 105.015 79.4138 100.655 79.815 100.053C81.1736 98.0149 82.5782 96.0271 84.0857 94.0959C84.4622 93.6137 85.4027 92.0003 86.1288 91.8683C86.3196 91.8336 84.793 96.1004 84.7257 96.2621C83.4893 99.2315 81.9762 102.081 80.5288 104.951C79.3745 107.24 78.0442 109.453 76.9966 111.794C76.6929 112.473 76.4099 113.382 77.1566 112.274C79.8863 108.224 81.8718 103.558 84.9965 99.782C85.3274 99.3821 85.8959 98.8336 85.6611 99.7943C85.2237 101.584 84.3084 103.279 83.5688 104.951C82.142 108.177 80.6277 111.4 79.4704 114.736C79.0567 115.928 78.705 117.141 78.7442 118.416C78.7753 119.424 79.6068 117.64 79.6673 117.517C80.7825 115.247 82.0807 113.119 83.618 111.105C83.8417 110.812 87.2839 107.135 86.3011 109.16C83.8624 114.187 81.8294 119.29 80.1719 124.643C79.8273 125.756 79.3472 126.934 79.2242 128.102C79.0901 129.376 80.1674 125.716 80.7381 124.569C82.0673 121.898 83.7012 118.751 85.8334 116.619C86.5317 115.92 86.0201 116.969 85.8703 117.308C85.0034 119.266 83.9293 121.106 82.8796 122.969C80.8468 126.577 78.8078 130.217 77.0581 133.972C76.3665 135.457 76.8926 134.762 77.3904 133.948C79.6531 130.247 81.371 126.375 83.9626 122.871C84.2764 122.447 84.6961 121.605 85.2549 121.419C85.502 121.336 84.595 123.863 84.578 123.905C83.4142 126.729 81.9479 129.421 80.8488 132.274C80.829 132.325 80.0085 135.476 80.4427 134.957C82.0239 133.066 82.9687 130.299 84.1842 128.175C85.3648 126.112 86.6252 124.223 88.1718 122.428C88.5543 121.984 88.8416 121.62 88.541 122.502C87.8763 124.452 86.866 126.275 86.1041 128.188C85.3309 130.129 84.3565 132.481 84.3565 134.612C84.3565 135.971 85.6516 134.097 85.8334 133.898" stroke="#62686D" stroke-width="1.45455" stroke-linecap="round"/>
<path d="M90.0424 124.594C89.6404 124.192 89.627 125.653 89.4516 126.194C88.839 128.083 87.9915 129.978 87.5563 131.917C87.5152 132.1 87.3565 133.187 87.8886 132.655C89.736 130.808 90.9922 128.031 92.4301 125.874C92.5576 125.683 95.8817 120.61 94.99 123.609C94.3493 125.765 93.0557 127.831 92.1593 129.886C91.685 130.974 90.4782 133.889 91.5562 133.394C92.962 132.748 93.947 130.328 94.707 129.135C95.8856 127.285 97.0419 125.268 98.5838 123.683C98.7824 123.479 99.6201 122.654 99.5192 123.486C99.3074 125.234 98.3976 127.046 97.6977 128.631C97.0239 130.157 96.0907 131.646 95.63 133.258C95.0524 135.28 95.9972 134.937 97.0085 133.64C98.3679 131.896 99.4321 129.939 100.75 128.163C101.127 127.654 103.521 123.922 104.504 124.225C105.382 124.495 98.1559 139.792 104.959 130.058C106.29 128.155 107.64 125.845 109.538 124.422C110.324 123.832 109.612 125.294 109.55 125.443C108.656 127.577 107.423 129.614 106.805 131.855C106.653 132.41 106.45 133.961 106.879 133.578C108.067 132.519 108.801 130.435 109.574 129.098C110.857 126.881 112.258 124.698 114.017 122.822C115.006 121.768 114.874 123.236 114.657 123.905C113.772 126.646 111.44 129.513 111.384 132.471C111.343 134.587 113.069 131.567 113.23 131.314C114.19 129.8 115.241 128.392 116.405 127.031C116.863 126.496 117.502 125.576 118.251 125.406C119.063 125.222 118.014 127.083 117.648 127.831C116.76 129.644 114.018 135.001 115.224 133.381C117.71 130.04 119.357 126.17 121.956 122.895C122.006 122.833 125.191 118.921 125.611 119.696C126.145 120.679 123.858 123.634 123.47 124.311C122.486 126.026 121.505 127.744 120.602 129.505C119.962 130.752 118.276 133.166 118.596 134.637C118.83 135.716 119.971 132.897 120.504 131.929C122.65 128.026 125.057 124.278 127.753 120.729C129.14 118.904 130.642 117.14 132.331 115.585C133.835 114.2 132.894 115.943 132.442 116.816C129.852 121.817 126.545 126.42 123.962 131.425C123.876 131.591 123.305 132.921 123.322 132.901C124.164 131.891 124.793 130.515 125.513 129.418C126.844 127.39 128.178 125.381 129.697 123.486C130.003 123.105 131.034 121.866 131.396 121.443C131.728 121.055 132.238 119.891 132.466 120.348C132.714 120.844 131.254 122.861 131.026 123.265C129.984 125.113 129.008 126.997 128.023 128.877C127.592 129.701 126.779 130.794 126.633 131.745C126.462 132.852 128.068 130.022 128.737 129.123C129.797 127.698 132.976 123.492 132.245 125.111C131.309 127.183 129.978 129.107 128.836 131.068C128.63 131.42 127.185 133.389 127.642 133.948C128.051 134.447 130.953 130.91 131.297 130.625C132.11 129.951 132.539 129.671 132.38 130.785C132.244 131.735 132.731 132.587 133.02 133.455" stroke="#62686D" stroke-width="1.45455" stroke-linecap="round"/>
<path d="M127.039 84.053C125.481 86.2686 123.413 88.791 122.534 91.3883C122.205 92.3627 123.298 91.5553 123.519 91.2898C124.431 90.1952 125.079 88.9392 125.39 87.5483C125.71 86.1119 126.153 84.9314 127.027 83.7084C127.577 82.938 128.56 81.9236 128.097 83.5607C127.541 85.5279 126.344 87.3866 125.414 89.1852C124.403 91.1411 123.336 93.0963 122.485 95.1298C122.469 95.1682 121.398 97.4338 122.608 96.6928C124.169 95.7376 125.084 93.8015 126.005 92.299C127.506 89.8507 129.092 87.4509 130.842 85.173C131.035 84.9218 132.583 82.4956 133.143 82.6007C133.179 82.6074 129.301 89.3244 129.107 89.6406C127.426 92.3681 125.59 95.0947 124.344 98.059C124.325 98.1025 123.017 102.05 124.036 101.062C125.377 99.761 126.12 97.5046 126.953 95.8805C127.888 94.0572 128.855 92.2079 130.14 90.6006C130.593 90.0353 131.271 89.387 130.731 90.6498C129.819 92.7848 128.551 94.8126 127.494 96.8774C125.816 100.157 123.802 103.503 122.854 107.093C122.741 107.524 122.198 109.922 122.867 110.256C123.104 110.374 129.292 99.2991 130.116 98.0467C130.5 97.4623 131.184 95.9289 131.913 95.6221C132.141 95.526 130.596 99.3129 130.559 99.3882C129.038 102.467 127.54 105.538 126.153 108.68C125.097 111.071 123.82 113.542 123.371 116.151C123.086 117.811 124.294 115.464 124.405 115.265C126.14 112.174 127.893 108.994 130.214 106.293C130.277 106.22 132.151 104.222 132.307 104.533C132.692 105.304 130.769 108.161 130.497 108.693C129.184 111.263 127.449 113.985 126.916 116.865C126.566 118.755 127.717 117.983 128.811 117.505" stroke="#62686D" stroke-width="1.45455" stroke-linecap="round"/>
<path d="M89.3778 82.0592C87.2171 81.7415 85.8738 86.8819 86.0671 88.7176C86.1057 89.085 86.3562 88.4627 86.3747 88.4345C87.0863 87.3524 87.9386 86.3413 88.7747 85.3576C88.8114 85.3144 93.2123 80.534 93.1685 82.1331C93.1143 84.1116 91.3949 86.2645 90.5839 87.9914C90.2986 88.599 89.6516 89.6724 89.7101 90.4037C89.8045 91.5836 91.4572 88.7904 92.1839 87.8561C93.8037 85.7734 95.2474 83.478 97.033 81.53C97.1812 81.3684 96.9354 81.9621 96.8361 82.1577C95.9111 83.9805 95.0846 85.8372 94.35 87.7453C94.2822 87.9213 93.2496 91.558 93.5623 91.3391C95.7164 89.8312 97.2451 86.9117 98.7315 84.8161C99.1807 84.1828 101.199 81.1522 100.295 83.7946C99.7497 85.3855 98.3178 87.7287 98.4361 89.4437C98.466 89.8777 99.321 89.208 99.6176 88.8899C100.874 87.5425 101.974 86.0392 103.113 84.5946C103.132 84.5703 106.271 80.6899 105.611 82.4654C104.9 84.381 103.872 86.1742 103.211 88.1145C103.095 88.4555 102.915 89.0333 103.458 88.5207C104.548 87.4908 105.433 86.2081 106.362 85.0376C106.832 84.4454 107.792 82.7818 108.614 82.5761C109.156 82.4408 107.752 84.7971 107.667 84.9638C107.477 85.3326 106.19 89.2714 106.707 89.0499C107.456 88.7288 108.275 87.3087 108.701 86.7607C109.746 85.415 110.788 84.0865 112.024 82.9084C115.133 79.9441 110.596 89.9432 110.842 90.0591C111.711 90.4682 113.58 87.2573 113.919 86.7853C114.659 85.7543 115.391 84.7148 116.27 83.7946C116.443 83.6134 116.945 83.1528 116.91 83.4007C116.692 84.9248 115.574 86.342 114.891 87.6838C114.662 88.1354 113.98 89.1074 114.485 89.1484C115.284 89.2131 116.656 86.8937 117.045 86.3915C117.979 85.1844 118.808 83.848 119.9 82.7731C120.82 81.8686 121.216 82.359 120.774 83.4623C119.955 85.5107 118.399 87.1902 117.624 89.2591C117.547 89.462 117.163 90.7144 117.956 90.0837C119.172 89.1157 120.043 87.6619 121.082 86.5145C122.056 85.4388 123.761 83.8499 125.377 84.3115C126.336 84.5854 122.584 89.5138 122.387 89.813" stroke="#62686D" stroke-width="1.45455" stroke-linecap="round"/>
<path d="M88.4667 93.4567C88.3242 92.1741 88.4667 95.7141 88.4667 96.1002C88.4667 98.7729 88.2512 101.542 88.5242 104.203C88.9942 108.786 88.888 113.474 88.9839 118.082C89.0043 119.058 89.2425 119.998 89.2425 120.998C89.2425 122.588 89.7025 122.101 91.1964 121.961C95.6863 121.538 100.384 122.162 104.902 122.162C107.297 122.162 109.644 122.938 112 122.938C113.857 122.938 115.756 122.85 117.574 123.254C118.237 123.401 120.573 123.516 120.476 122.823C120.071 119.927 119.971 116.965 120.332 114.03C121.089 107.894 121.051 101.602 121.051 95.4106C121.051 94.4432 121.309 93.5189 121.309 92.566C121.309 91.9088 121.563 91.8744 120.735 91.9051C119.67 91.9445 118.639 92.1637 117.545 92.1637C116.098 92.1637 114.791 91.4534 113.35 91.3879C112.09 91.3306 110.878 90.8707 109.6 90.8707C107.783 90.8707 105.851 91.0468 104.04 90.8132C101.607 90.4992 99.1451 90.6375 96.7421 91.1867C95.2493 91.5279 93.3269 91.8219 91.8286 91.9051C90.3129 91.9893 89.3121 91.0975 88.2081 92.4223" stroke="white" stroke-width="1.45455" stroke-linecap="round"/>
<path d="M75.237 80.6338C74.617 82.3169 75.237 84.9928 75.237 86.7905C75.237 90.9899 75.0482 95.238 75.324 99.4303C75.8958 108.122 77.5374 117.181 76.7599 125.928C76.7069 126.524 74.9551 137.371 75.4546 137.371C76.0728 137.371 77.0173 136.55 77.4996 136.24C79.5175 134.943 82.5663 135.321 84.8963 134.978C88.2163 134.49 90.9057 134.914 94.2075 135.043C97.2366 135.162 100.234 134.469 103.258 134.761C109.978 135.408 116.739 135.105 123.468 135.478C125.827 135.61 127.846 135.58 130.147 135.152C131.705 134.862 133.28 135.657 134.759 135.37C136.227 135.084 135.958 134.403 135.738 133.085C135.197 129.837 135.151 126.58 135.151 123.296C135.151 116.415 135.072 109.581 134.737 102.715C134.498 97.8022 133.584 92.9925 133.584 88.0741C133.584 86.4733 134.521 82.2002 132.409 82.2002C129.285 82.2002 126.303 81.6246 123.207 81.3953C115.032 80.7897 106.863 79.9534 98.6455 79.8507C95.984 79.8174 93.3611 80.1598 90.7049 80.264C88.5182 80.3498 86.1759 81.1925 84.0043 81.0037C80.7452 80.7203 76.7156 80.2861 73.6707 81.8086" stroke="white" stroke-width="1.45455" stroke-linecap="round"/>
<path d="M95.8089 110.196C95.6292 110.176 95.4284 109.939 95.6067 110.039C96.229 110.389 96.6598 111.181 97.3141 111.578C99.0162 112.61 101.096 112.438 102.998 112.42C105.109 112.4 107.146 111.998 109.164 111.409C109.664 111.264 113.815 109.935 112.388 108.983" stroke="white" stroke-width="1.45455" stroke-linecap="round"/>
<path d="M96.6176 111.41C96.0341 111.555 97.1022 113.622 97.3589 113.926C98.2338 114.96 99.4208 115.687 100.706 116.06C101.96 116.424 103.221 116.628 104.458 117.026C104.939 117.18 105.869 117.162 106.334 116.958C107.591 116.408 108.817 115.929 109.636 114.746C110.433 113.594 110.45 112.014 111.579 111.207" stroke="white" stroke-width="1.45455" stroke-linecap="round"/>
<path d="M621.393 192.946C621.393 191.366 620.395 183.292 621.58 182.544C623.207 181.516 628.199 182.483 630.07 182.45C634.86 182.367 641.972 181.417 645.558 177.832C647.455 175.934 646.937 173.3 647.004 170.881C647.046 169.378 647.987 169.435 649.196 169.435C651.976 169.435 654.861 169.566 657.173 167.756C660.612 165.065 660.859 160.032 660.859 156" stroke="white" stroke-width="1.5625" stroke-linecap="round"/>
<path d="M450.443 196.813C448.274 194.807 446.105 192.801 443.936 190.794C439.754 186.926 437.4 181.516 436.034 176.049C435.517 173.982 434.317 170.823 435.721 168.865C437.061 166.996 438.763 166.186 440.959 166.878C442.925 167.498 447.538 170.494 447.892 172.847C448.281 175.429 444.098 176.195 442.349 175.886C435.269 174.633 427.103 166.244 427.555 158.801C427.782 155.071 429.251 151.591 429.825 148" stroke="white" stroke-width="1.5625" stroke-linecap="round"/>
<path d="M272.062 141.325C272.793 143.245 273.419 145.141 274.549 146.787C275.244 147.799 274.825 147.463 274.984 146.584C275.117 145.851 274.908 144.571 274.688 143.867C274.412 142.983 273.81 142.451 273.16 141.788C272.93 141.554 271.948 141.338 272.167 141.116" stroke="white" stroke-width="1.5625" stroke-linecap="round"/>
<path d="M286.374 135.898C286.892 137.26 287.409 138.621 287.927 139.982C288.075 140.372 288.122 140.383 288.525 140.448C288.769 140.487 289.096 141.246 289.008 141.014C288.381 139.365 287.8 137.919 287.649 136.183C287.598 135.594 287.744 135.655 287.38 135.602C287.043 135.552 286.858 135.316 286.502 135.33" stroke="white" stroke-width="1.5625" stroke-linecap="round"/>
<path d="M275.513 157.449C276.603 160.316 281.052 162.364 284.026 162.87C286.654 163.317 288.827 162.53 291.364 161.565C294.942 160.204 296.252 157.917 298.558 155.038C299.808 153.477 298.07 147.356 297.252 149.181" stroke="white" stroke-width="1.5625" stroke-linecap="round"/>
<path d="M765 187.638C768.462 187.638 771.925 187.638 775.387 187.638C777.657 187.638 785.316 186.298 787.048 188.03C790.651 191.634 786.627 204.616 780.434 200.328C775.042 196.595 776.308 187.315 780.14 183.229C786.551 176.39 795.059 174.369 802.922 170" stroke="white" stroke-width="1.56" stroke-linecap="round"/>
<path d="M1033.12 121.898C1032.37 122.312 1031.87 123.098 1031.51 123.846C1030.42 126.139 1029.59 128.555 1028.5 130.853C1025.11 137.988 1020.46 144.428 1016.92 151.491C1015.06 155.2 1013.38 158.902 1011.18 162.43C1009.66 164.872 1008.72 167.607 1007.26 170.084C1007.14 170.301 1005.91 172.116 1006.1 172.108C1006.57 172.089 1007.35 173.038 1007.64 173.302C1009.19 174.682 1010.63 175.683 1012.69 176.163C1016.06 176.947 1019.79 177.537 1022.95 179.038C1023.62 179.359 1026.31 181.474 1026.07 181.176" stroke="white" stroke-width="1.5" stroke-linecap="round"/>
<path d="M1025.13 180.88C1023.84 181.397 1024.94 179.893 1025.26 179.228C1027.22 175.096 1028.88 170.818 1030.68 166.61C1033.96 158.901 1037.57 151.268 1041.17 143.697C1043.32 139.173 1045.81 134.391 1048.67 130.28C1048.91 129.946 1052.27 124.894 1051.2 124.999C1049.26 125.19 1047.63 124.541 1045.87 123.706C1044.46 123.036 1042.59 123.045 1041.32 122.175C1040.17 121.382 1039.51 121.162 1038.13 121.011C1037.36 120.927 1035.55 120.351 1034.97 119.924C1034.57 119.624 1034.41 119.246 1033.89 119.073C1033.31 118.884 1032.45 121.401 1032.24 121.839" stroke="white" stroke-width="1.5" stroke-linecap="round"/>
<path d="M1049.47 129.673C1051.68 130.724 1053.62 131.645 1055.79 132.678" stroke="white" stroke-width="1.5" stroke-linecap="round"/>
<path d="M1046.42 133.759C1049 133.405 1051.05 134.952 1053.13 135.944" stroke="white" stroke-width="1.5" stroke-linecap="round"/>
<path d="M1044.28 138.275C1046.4 139.287 1048.44 140.255 1050.6 141.28" stroke="white" stroke-width="1.5" stroke-linecap="round"/>
<path d="M1042.56 141.888C1044.7 142.907 1047.08 143.209 1049.31 143.99" stroke="white" stroke-width="1.5" stroke-linecap="round"/>
<path d="M1045.56 135.566C1047.24 136.364 1049.91 137.632 1051.89 138.571" stroke="white" stroke-width="1.5" stroke-linecap="round"/>
<path d="M1040.84 145.5C1043.38 145.72 1045.04 146.391 1047.59 147.602" stroke="white" stroke-width="1.5" stroke-linecap="round"/>
<path d="M1039.87 148.36C1038.04 147.489 1044.71 150.663 1045.87 151.215" stroke="white" stroke-width="1.5" stroke-linecap="round"/>
<path d="M1037.84 151.822C1040.05 152.873 1042.18 153.39 1044.59 153.924" stroke="white" stroke-width="1.5" stroke-linecap="round"/>
<path d="M1036.55 154.532C1038.65 155.533 1040.73 156.519 1042.87 157.537" stroke="white" stroke-width="1.5" stroke-linecap="round"/>
<path d="M1034.4 159.047C1036.61 159.748 1039.08 160.163 1041.15 161.15" stroke="white" stroke-width="1.5" stroke-linecap="round"/>
<path d="M1033.11 161.757C1035.24 162.768 1037.28 163.737 1039.43 164.762" stroke="white" stroke-width="1.5" stroke-linecap="round"/>
<path d="M1031.83 164.466C1031.99 166.075 1036.18 167.565 1037.75 168.311" stroke="white" stroke-width="1.5" stroke-linecap="round"/>
<path d="M1029.1 168.707C1027.13 167.773 1034.68 171.358 1036 171.987" stroke="white" stroke-width="1.5" stroke-linecap="round"/>
<path d="M1028.43 173.927C1030.2 173.914 1032.48 174.978 1034.28 175.6" stroke="white" stroke-width="1.5" stroke-linecap="round"/>
<path d="M1026.72 177.54C1027.86 177.932 1030.46 178.5 1031.66 178.783" stroke="white" stroke-width="1.5" stroke-linecap="round"/>
<path d="M1001.4 166.609C999.418 165.668 1005.35 168.586 1007.75 168.524" stroke="white" stroke-width="1.5" stroke-linecap="round"/>
<path d="M1003.19 164.142C1003.49 164.285 1007.69 166.281 1008.61 166.718" stroke="white" stroke-width="1.5" stroke-linecap="round"/>
<path d="M1002.24 161.477C1004.91 162.167 1007.36 162.803 1009.9 164.008" stroke="white" stroke-width="1.5" stroke-linecap="round"/>
<path d="M1005.77 158.719C1005.7 158.684 1009.74 160.75 1011.62 160.396" stroke="white" stroke-width="1.5" stroke-linecap="round"/>
<path d="M1007.48 155.11C1007.66 155.192 1011.79 157.158 1012.9 157.686" stroke="white" stroke-width="1.5" stroke-linecap="round"/>
<path d="M1009.2 151.498L1014.62 154.074" stroke="white" stroke-width="1.5" stroke-linecap="round"/>
<path d="M1010.49 148.788C1012.32 149.661 1014.02 150.467 1015.91 151.364" stroke="white" stroke-width="1.5" stroke-linecap="round"/>
<path d="M1012.21 145.176L1017.63 147.752" stroke="white" stroke-width="1.5" stroke-linecap="round"/>
<path d="M1013.92 142.422C1012.08 141.952 1018.22 144.895 1020.25 144.568" stroke="white" stroke-width="1.5" stroke-linecap="round"/>
<path d="M1015.21 138.854C1016.86 139.635 1020.29 141.268 1021.53 141.859" stroke="white" stroke-width="1.5" stroke-linecap="round"/>
<path d="M1017.83 135.67C1019.96 136.681 1021.95 137.625 1024.15 138.676" stroke="white" stroke-width="1.5" stroke-linecap="round"/>
<path d="M1017.74 131.199C1018.65 131.63 1023.19 133.786 1025.87 135.063" stroke="white" stroke-width="1.5" stroke-linecap="round"/>
<path d="M1022.17 128.874C1023.89 129.693 1025.82 130.609 1027.59 131.45" stroke="white" stroke-width="1.5" stroke-linecap="round"/>
<path d="M1022.51 123.5C1023.58 125.878 1027.34 126.6 1029.42 127.592" stroke="white" stroke-width="1.5" stroke-linecap="round"/>
<path d="M1025.15 121.435C1027.01 122.453 1029.21 123.555 1030.59 125.128" stroke="white" stroke-width="1.5" stroke-linecap="round"/>
<path d="M1025.99 118.51C1028.16 119.541 1030.19 120.505 1032.31 121.516" stroke="white" stroke-width="1.5" stroke-linecap="round"/>
<path d="M917.443 130.813C915.274 128.807 913.105 126.801 910.936 124.794C906.754 120.926 904.4 115.516 903.034 110.049C902.517 107.982 901.317 104.823 902.721 102.865C904.061 100.996 905.763 100.186 907.959 100.878C909.925 101.498 914.538 104.494 914.892 106.847C915.281 109.429 911.098 110.195 909.349 109.886C902.269 108.633 894.103 100.244 894.555 92.8005C894.782 89.0713 896.251 85.5914 896.825 82" stroke="white" stroke-width="1.5625" stroke-linecap="round"/>
<path d="M768.098 82C768.44 83.6399 767.282 85.4844 766.903 87.0515C766.255 89.7305 765.79 92.4554 765.087 95.1192C764.726 96.4878 764.306 97.8844 763.681 99.1598C763.505 99.5192 762.987 100.627 763.073 101.035C763.075 101.046 766.453 98.3273 766.896 97.74C767.639 96.756 768.7 96.2982 769.551 95.5626C770.023 95.1549 769.366 96.513 769.284 96.7426C768.964 97.6394 768.427 98.5376 768.304 99.5006C768.034 101.625 767.627 103.697 767.178 105.815C766.751 107.828 766.197 109.839 765.89 111.885C765.756 112.776 765.573 115.426 765.389 114.543" stroke="white" stroke-width="1.56" stroke-linecap="round"/>
</svg>
