<svg width="1280" height="420" viewBox="0 0 1280 420" fill="none" xmlns="http://www.w3.org/2000/svg">
<path d="M86.9912 143.637C86.9912 141.692 85.7633 131.76 87.2208 130.839C89.2223 129.575 95.3631 130.765 97.6652 130.725C103.558 130.622 112.307 129.454 116.718 125.043C119.052 122.709 118.414 119.468 118.497 116.493C118.548 114.643 119.707 114.714 121.194 114.714C124.614 114.714 128.162 114.874 131.007 112.648C135.237 109.337 135.541 103.146 135.541 98.186" stroke="white" stroke-width="1.92215" stroke-linecap="round"/>
<path d="M857.081 130.422C857.081 128.477 855.853 118.545 857.311 117.625C859.312 116.361 865.453 117.55 867.755 117.51C873.648 117.407 882.397 116.239 886.808 111.829C889.142 109.494 888.504 106.253 888.587 103.278C888.638 101.428 889.797 101.499 891.284 101.499C894.704 101.499 898.252 101.66 901.097 99.433C905.327 96.1225 905.631 89.9318 905.631 84.9714" stroke="white" stroke-width="1.92215" stroke-linecap="round"/>
<path d="M70.7045 337.245C68.0365 334.777 65.3684 332.309 62.7004 329.841C57.5555 325.081 54.6598 318.427 52.979 311.701C52.3436 309.158 50.8664 305.273 52.5944 302.863C54.2425 300.565 56.3368 299.568 59.0374 300.419C61.4567 301.182 67.1308 304.868 67.567 307.763C68.0456 310.939 62.8987 311.881 60.7479 311.5C52.0383 309.959 41.9918 299.639 42.5489 290.482C42.828 285.895 44.6352 281.614 45.3414 277.196" stroke="white" stroke-width="1.92215" stroke-linecap="round"/>
<path d="M443.356 106.494C443.551 106.461 442.773 105.993 442.741 105.968C441.892 105.297 441.124 104.525 440.293 103.832C438.416 102.266 436.651 100.567 434.772 99.0021C431.276 96.0908 427.686 93.2736 424.226 90.3085C421.864 88.2837 419.199 86.6695 416.85 84.6201C415.511 83.4516 414.252 82.4392 412.688 81.6149C412.197 81.3561 413.099 81.6893 413.227 81.7652C413.957 82.1953 415.176 81.9584 415.988 81.9584C418.033 81.9584 420.076 82.0109 422.113 81.8081C423.112 81.7086 424.111 81.4311 425.11 81.3788C427.101 81.2745 429.08 80.9924 431.084 80.9924C435.136 80.9924 439.129 80.8658 443.151 80.327C445.892 79.9597 448.736 79.4469 451.508 79.4469C452.424 79.4469 453.681 79.2841 452.284 80.1338C450.27 81.3589 448.129 82.3374 446.267 83.8044C444.349 85.3161 442.449 86.7623 440.746 88.5161C439.022 90.2911 436.739 91.0498 434.718 92.3907C432.269 94.0155 429.635 95.5129 427.062 96.9307C423.963 98.638 421.179 100.809 418.026 102.437C416.944 102.995 415.689 103.323 414.726 104.068C413.896 104.711 413.89 105.318 414.629 104.132C415.584 102.601 416.04 100.603 416.894 99.0021C418.719 95.5794 420.953 92.3401 422.738 88.9133C423.758 86.9563 424.793 85.1168 425.499 83.0102C426.642 79.5968 428.669 76.5644 429.618 73.0716C429.98 71.7383 430.641 70.5438 430.976 69.2078C431.402 67.5141 431.575 65.891 431.861 64.1848C432.036 63.1375 431.979 61.9973 432.292 60.9864C432.657 59.8067 432.68 60.5253 432.68 61.3943C432.68 63.2659 432.58 65.149 432.863 66.9861C433.965 74.114 436.425 81.0122 437.727 88.1405C438.214 90.8099 439.137 93.4121 439.765 96.0506C440.124 97.5607 441.026 99.4338 441.026 100.988C441.026 101.834 441.923 103.372 442.288 104.079C442.857 105.182 443.55 106.401 443.55 107.653" stroke="white" stroke-width="1.92215" stroke-linecap="round"/>
<path d="M1233.81 314.126C1234.01 314.093 1233.23 313.625 1233.2 313.6C1232.35 312.929 1231.58 312.157 1230.75 311.464C1228.87 309.898 1227.11 308.199 1225.23 306.634C1221.73 303.723 1218.14 300.906 1214.68 297.941C1212.32 295.916 1209.66 294.302 1207.31 292.252C1205.97 291.084 1204.71 290.071 1203.15 289.247C1202.65 288.988 1203.56 289.321 1203.68 289.397C1204.41 289.827 1205.63 289.59 1206.44 289.59C1208.49 289.59 1210.53 289.643 1212.57 289.44C1213.57 289.341 1214.57 289.063 1215.57 289.011C1217.56 288.907 1219.54 288.624 1221.54 288.624C1225.59 288.624 1229.59 288.498 1233.61 287.959C1236.35 287.592 1239.19 287.079 1241.96 287.079C1242.88 287.079 1244.14 286.916 1242.74 287.766C1240.73 288.991 1238.59 289.969 1236.72 291.437C1234.81 292.948 1232.91 294.394 1231.2 296.148C1229.48 297.923 1227.2 298.682 1225.18 300.023C1222.73 301.648 1220.09 303.145 1217.52 304.563C1214.42 306.27 1211.64 308.441 1208.48 310.069C1207.4 310.627 1206.15 310.955 1205.18 311.7C1204.35 312.343 1204.35 312.95 1205.09 311.765C1206.04 310.233 1206.5 308.235 1207.35 306.634C1209.18 303.212 1211.41 299.972 1213.2 296.545C1214.21 294.588 1215.25 292.749 1215.96 290.642C1217.1 287.229 1219.13 284.196 1220.07 280.704C1220.44 279.37 1221.1 278.176 1221.43 276.84C1221.86 275.146 1222.03 273.523 1222.32 271.817C1222.49 270.77 1222.44 269.629 1222.75 268.618C1223.11 267.439 1223.14 268.157 1223.14 269.026C1223.14 270.898 1223.04 272.781 1223.32 274.618C1224.42 281.746 1226.88 288.644 1228.18 295.773C1228.67 298.442 1229.59 301.044 1230.22 303.683C1230.58 305.193 1231.48 307.066 1231.48 308.62C1231.48 309.467 1232.38 311.004 1232.75 311.711C1233.31 312.814 1234.01 314.033 1234.01 315.285" stroke="white" stroke-width="1.92215" stroke-linecap="round"/>
<path d="M1070.96 145.994C1070.28 149.578 1072.42 146.15 1072.78 149.34C1073.34 154.38 1080.43 141.634 1078.43 150.332C1077.7 153.532 1080.94 149.41 1081.49 148.765C1083.65 146.257 1081.75 150.093 1082.04 151.265C1082.52 153.172 1086.62 145.566 1086.61 147.531C1086.6 148.663 1084.57 153.879 1087.12 151.479C1087.42 151.196 1088.95 149.269 1089.39 150.065C1090.06 151.242 1090.73 149.071 1091.39 149.114C1091.73 149.135 1090.39 153.116 1090.3 153.542C1090.23 153.937 1092.77 150.478 1093.26 150.108C1093.51 149.924 1092.58 153.853 1092.66 154.205C1093.14 156.171 1094.93 147.798 1096.26 149.318C1097.08 150.25 1094.58 155.678 1097.7 152.259C1099.47 150.327 1100.77 147.186 1100.31 151.607C1100.02 154.378 1099.71 154.532 1101.49 152.076C1102.52 150.665 1104.94 147.702 1104.22 151.446C1104.05 152.358 1102.23 157.269 1104.56 154.723C1105.32 153.901 1110.38 146.908 1108.95 151.441C1108.74 152.11 1106.65 157.675 1108.88 154.64C1109.3 154.068 1111.53 149.389 1111.55 151.939C1111.57 154.288 1111.68 154.621 1113.57 152.78C1116.22 150.199 1115.44 152.492 1114.84 154.841C1113.84 158.77 1116.19 154.979 1117.12 153.73C1118.96 151.249 1117.8 154.618 1117.64 155.769C1117.3 158.167 1119.68 154.659 1120.03 154.196C1121.45 152.286 1120.63 154.912 1121.17 155.961C1121.73 157.039 1123.36 154.71 1123.78 154.398C1124.86 153.581 1125.19 156.3 1125.75 156.775C1127.21 158.029 1128.46 154.845 1128.64 158.116" stroke="#62686D" stroke-width="2.07517" stroke-linecap="round"/>
<path d="M1040.57 142.362C1041.34 138.308 1039.63 141.925 1039.92 143.511C1039.99 143.893 1041.92 141.2 1042.17 140.971C1043.08 140.121 1043.17 145.102 1043.19 145.591C1043.22 146.182 1045.38 138.055 1045.3 144.721C1045.28 145.784 1047.32 145.29 1048.68 145.55" stroke="#62686D" stroke-width="2.07517" stroke-linecap="round"/>
<path d="M1057.58 141.798C1057.56 141.867 1056.42 144.631 1056.81 144.893C1057.09 145.083 1057.62 144.046 1058.04 144.491C1059.34 145.892 1057.79 149.992 1060.09 145.822C1063.45 139.726 1059.78 152.014 1063.19 146.689" stroke="#62686D" stroke-width="2.07517" stroke-linecap="round"/>
<path d="M1056.76 131.824C1056.31 134.175 1055.96 135.591 1057.84 133.029C1058.67 131.891 1057.41 138.365 1059.14 136.672C1060.1 135.733 1061.22 132.307 1062.27 134.393C1062.84 135.513 1063.11 132.888 1063.18 132.505" stroke="#62686D" stroke-width="2.07517" stroke-linecap="round"/>
<path d="M1041.68 125.121C1042.24 124.27 1043.54 124.42 1044.59 124.829C1045.92 125.348 1045.17 127.554 1046.03 128.073C1047.31 128.857 1047.18 123.306 1048.37 124.219C1048.77 124.521 1047.53 128.517 1047.57 129.216C1047.6 129.784 1049.48 126.943 1049.79 126.641C1050.01 126.422 1049.93 131.745 1051.38 128.612" stroke="#62686D" stroke-width="2.07517" stroke-linecap="round"/>
<path d="M1048.06 108.887C1047.2 110.121 1045.62 116.514 1046.67 114.59C1048.62 110.982 1046.76 117.064 1047.98 115.145C1048.69 114.045 1049.51 110.338 1049.72 111.629C1050.01 113.468 1048.58 116.739 1049.95 118.339C1050.18 118.61 1051.67 112.809 1051.87 111.797" stroke="#62686D" stroke-width="2.07517" stroke-linecap="round"/>
<path d="M1045.04 99.0366C1046.44 102.211 1048.8 103.549 1050.94 100.621C1051.59 99.7421 1050.98 104.068 1051.61 104.597C1052.35 105.219 1052.86 101.791 1054.85 104.733" stroke="#62686D" stroke-width="2.07517" stroke-linecap="round"/>
<path d="M1071.86 132.538C1071.73 133.778 1070.68 140.739 1071.97 138.161C1072.36 137.365 1072.93 137.232 1073.37 136.587C1074.25 135.311 1074.14 131.042 1075.08 132.269C1076 133.464 1074.05 141.371 1075.57 135.532C1075.85 134.418 1075.22 141.586 1077.28 138.884" stroke="#62686D" stroke-width="2.07517" stroke-linecap="round"/>
<path d="M1077.77 136.323L1078.81 137.848" stroke="#62686D" stroke-width="2.07517" stroke-linecap="round"/>
<path d="M1087.23 135.476C1085.68 143.556 1088.16 130.59 1086.59 138.784C1086.48 139.378 1086.61 135.912 1085.5 137.579C1084.64 138.85 1083.12 142.992 1084.72 138.721C1085.72 136.056 1086.75 137.89 1087.07 139.54C1087.27 140.572 1088.01 135.646 1088.33 136.646C1088.93 138.494 1088.51 141.478 1089.74 137.948C1091.3 133.472 1091.7 139.109 1092.13 141.059" stroke="#62686D" stroke-width="2.07517" stroke-linecap="round"/>
<path d="M1102.19 137.012C1101.02 137.078 1100.42 141.379 1101.09 142.035C1102 142.934 1101.96 139.612 1102.58 138.486C1103.59 136.622 1104.24 138.837 1104.94 139.638C1105.84 140.683 1106.65 135.303 1107.14 140.464C1107.4 143.262 1108.13 134.453 1109.23 138.359" stroke="#62686D" stroke-width="2.07517" stroke-linecap="round"/>
<path d="M1116.79 140.468C1117.49 141.746 1117.85 148.541 1118.58 145.012C1118.65 144.678 1119.39 141.001 1119.59 141.446C1119.77 141.84 1119.48 143.796 1119.66 142.823C1120.56 138.134 1121.45 140.386 1120.79 143.85C1120.54 145.143 1120.81 140.99 1121.68 140.001C1121.98 139.658 1123.14 144.59 1123.22 145.016" stroke="#62686D" stroke-width="2.07517" stroke-linecap="round"/>
<path d="M1131.91 144.687C1132.1 143.709 1131.52 146.681 1131.68 147.664C1131.73 148.038 1132.56 144.697 1132.69 144.098C1132.86 143.297 1132.49 151.239 1134.56 145.489C1136.05 141.371 1135.66 147.232 1136.69 144.789C1137.81 142.098 1138.16 146.769 1139.35 147.437" stroke="#62686D" stroke-width="2.07517" stroke-linecap="round"/>
<path d="M1149.41 142.884C1148.94 142.792 1148.03 142.39 1147.72 142.884C1147.13 143.794 1145.31 147.8 1146.57 144.619C1147.93 141.192 1147.03 147.401 1147.59 147.187C1148.43 146.87 1150.53 140.76 1150.54 143.564C1150.54 144.765 1150.35 145.947 1150.27 147.142C1150.2 148.356 1151.52 144.753 1151.57 144.644C1152.98 141.106 1152.22 144.03 1152.52 145.85C1152.6 146.308 1153.06 145.092 1153.3 144.697C1153.85 143.808 1154.5 143.19 1154.72 144.595C1154.83 145.356 1154.8 147.557 1155.16 145.658" stroke="#62686D" stroke-width="2.07517" stroke-linecap="round"/>
<path d="M1150.46 152.714C1149.74 154.454 1148.59 161.925 1150.51 156.84C1150.98 155.611 1151.69 158.451 1151.74 158.681C1152.31 161.019 1151.93 162.168 1153 159.154C1153.06 158.982 1154.01 156.045 1154.11 156.783C1154.3 158.226 1153.75 162.494 1154.29 161.146C1154.43 160.82 1155.39 157.401 1155.59 157.51C1156.59 158.05 1156.43 161.692 1156.52 162.664" stroke="#62686D" stroke-width="2.07517" stroke-linecap="round"/>
<path d="M1136.3 156.705C1136.03 153.349 1135.38 163.094 1136.55 157.59C1137.85 151.503 1137.55 162.062 1139.16 158.204C1139.33 157.8 1140.07 154.794 1140.41 156.374C1140.49 156.703 1141.46 159.911 1141.52 159.819C1142.51 158.403 1141.69 157.485 1143.5 158.499" stroke="#62686D" stroke-width="2.07517" stroke-linecap="round"/>
<path d="M1058.81 119.693C1058.87 121.094 1058.84 122.481 1058.82 123.882C1058.81 125.626 1059.4 120.436 1059.85 118.752C1059.88 118.654 1059.99 122.86 1060.3 123.816C1060.4 124.109 1061.69 119.304 1061.96 118.784C1062.52 117.735 1062.44 121.11 1062.74 122.258C1062.97 123.137 1063.67 120.482 1063.72 120.772C1063.92 122 1064.12 124.326 1064.71 121.704C1065.1 119.96 1064.66 121.939 1064.56 122.467" stroke="#62686D" stroke-width="2.07517" stroke-linecap="round"/>
<path d="M1071.72 120.068C1071.45 121.444 1069.77 124.984 1070.93 124.197C1071.64 123.71 1071.79 120.691 1072.19 119.809C1072.7 118.656 1072.71 122.28 1072.96 123.517C1073.5 126.109 1074.3 122.964 1074.69 121.939C1075.03 121.028 1075.61 118.536 1075.75 121.002C1075.77 121.415 1075.62 125.707 1075.97 124.092C1076.69 120.845 1076.83 120.816 1078.2 123.401" stroke="#62686D" stroke-width="2.07517" stroke-linecap="round"/>
<path d="M1085.36 121.002C1085.38 121.579 1085.5 125.519 1085.87 124.869C1086.09 124.488 1088.36 119.629 1088.51 119.837C1089.43 121.118 1087.47 124.558 1088.66 125.589C1088.93 125.818 1090.8 122.22 1091.16 122.53C1091.38 122.721 1090.89 127.439 1091.41 126.534C1091.63 126.164 1092.77 122.495 1093.39 123.237C1093.93 123.873 1093.95 124.885 1094.99 124.846C1095.67 124.82 1095.71 124.86 1095.8 125.511" stroke="#62686D" stroke-width="2.07517" stroke-linecap="round"/>
<path d="M1091.29 107.484C1091.11 109.035 1091.45 110.63 1092.09 112.056C1093 114.094 1093.54 110.92 1093.71 110.179C1093.92 109.21 1094.03 112.879 1094.23 113.535C1094.61 114.806 1095.6 110.258 1095.88 110.873C1096.35 111.943 1095.9 113.28 1096.64 111.252C1096.8 110.812 1097.64 108.841 1098.04 110.38C1098.14 110.761 1098.04 113.641 1098.81 113.061C1099.54 112.502 1100.04 112.089 1100.92 111.838" stroke="#62686D" stroke-width="2.07517" stroke-linecap="round"/>
<path d="M1074.69 108.913C1074.48 104.651 1074.98 110.621 1076.13 110.003C1076.48 109.817 1077.86 107.061 1077.95 107.165C1078.87 108.185 1078.43 110.294 1079.35 111.433C1079.7 111.876 1080.35 105.039 1081.61 108.981C1082.37 111.389 1082.21 107.14 1082.92 109.651" stroke="#62686D" stroke-width="2.07517" stroke-linecap="round"/>
<path d="M1064.15 102.711C1063.64 102.151 1063.03 106.182 1062.98 106.79C1062.95 107.033 1063.66 105.052 1063.77 104.731C1064.18 103.446 1064.17 105.317 1064.66 105.646C1066.28 106.74 1066.47 100.602 1066.67 105.379C1066.79 108.518 1066.72 108.495 1068.13 105.985" stroke="#62686D" stroke-width="2.07517" stroke-linecap="round"/>
<path d="M1107.71 122.346C1107.96 123.869 1108.13 128.886 1108.88 124.944C1109.19 123.336 1108.17 128.356 1108.09 128.141C1107.95 127.789 1106.68 123.669 1106.86 125.579C1107.16 128.835 1107.58 126.743 1108.81 125.348C1110.9 122.97 1109.44 129.758 1110.5 129.626C1112.52 129.375 1112.57 122.156 1112.71 128.514C1112.73 129.131 1112.99 126.124 1113.67 126.696C1115.56 128.29 1113.34 133.225 1115.82 128.085" stroke="#62686D" stroke-width="2.07517" stroke-linecap="round"/>
<path d="M1122.53 130.206C1122.84 130.721 1122.78 131.071 1122.67 131.652C1122.55 132.273 1123.36 129.458 1123.59 129.037C1124.2 127.955 1123.03 132.022 1124.05 132.729C1124.54 133.069 1126.03 127.823 1126.5 127.475C1127.64 126.618 1126.24 130.322 1126.03 131.736C1125.62 134.53 1127.44 130.345 1127.85 129.78C1128.79 128.467 1128.42 132.373 1128.43 132.683C1128.45 133.446 1131.02 130 1131.48 129.405" stroke="#62686D" stroke-width="2.07517" stroke-linecap="round"/>
<path d="M1141.63 128.835C1141.16 130.248 1140.38 131.539 1139.87 132.941C1138.98 135.421 1141.58 132.335 1142.03 131.888C1145.25 128.684 1142.05 136.827 1143.71 134.768C1144.81 133.392 1147 128.899 1147.05 130.663C1147.1 132.41 1145.82 134.107 1145.73 135.853C1145.68 136.988 1147.46 134.283 1148.53 133.899C1149.51 133.546 1149.01 134.515 1148.86 134.823" stroke="#62686D" stroke-width="2.07517" stroke-linecap="round"/>
<path d="M1153.4 117.687C1153 118.534 1150.95 121.127 1151.06 121.892C1151.19 122.904 1152.16 120.168 1152.63 119.262C1153.05 118.459 1153.02 116.583 1153.88 116.85C1154 116.885 1152.76 121.505 1152.85 121.492C1153.53 121.39 1156.88 117.287 1156.24 118.882C1152.01 129.445 1158.02 117.483 1158.92 119.07C1159.08 119.35 1158.63 120.79 1158.52 120.458C1158.2 119.488 1158.46 119.644 1158.26 120.711" stroke="#62686D" stroke-width="2.07517" stroke-linecap="round"/>
<path d="M1136.76 114.924C1132.39 120.026 1138.82 114.377 1138.52 115.935C1138.4 116.547 1136.1 120.842 1137.25 119.414C1137.62 118.956 1140.29 115.535 1140.25 116.266C1140.17 117.629 1140.98 116.27 1141.5 115.691C1142.13 114.986 1143.2 112.818 1143.53 113.706C1143.77 114.361 1142.51 116.511 1142.31 117.055C1141.09 120.265 1142.1 118.018 1143.54 117.43C1144.15 117.176 1143.1 119.307 1143.01 119.468" stroke="#62686D" stroke-width="2.07517" stroke-linecap="round"/>
<path d="M1121.2 115.297C1117.69 123.01 1123.1 114.255 1123.33 115.1C1123.63 116.223 1122.26 119.316 1122.87 120.059C1123.48 120.809 1124.02 118.499 1124.6 117.714C1125.29 116.76 1126.01 115.764 1126.83 114.909C1126.99 114.745 1124.24 121.414 1127.31 117.257C1127.95 116.394 1129.33 113.629 1129.27 114.7C1129.22 115.476 1128.66 116.206 1129.51 115.63" stroke="#62686D" stroke-width="2.07517" stroke-linecap="round"/>
<path d="M1107.21 111.785C1106.51 116.005 1108.97 110.99 1107.85 114.558C1106.79 117.914 1110.36 108.434 1110.2 113.194C1110.13 115.457 1111.68 111.841 1112.08 111.274C1113.44 109.337 1112.48 112.633 1112.39 113.194C1112.04 115.426 1112.77 114.103 1113.76 113.433C1114.36 113.026 1114.46 115.016 1114.5 115.273" stroke="#62686D" stroke-width="2.07517" stroke-linecap="round"/>
<path d="M1042.05 90.0945C1040.08 102.494 1037.04 114.905 1035.65 127.38C1035.14 131.98 1034.66 136.398 1033.79 140.934C1033.57 142.076 1030.71 148.128 1031.45 148.471C1040.1 152.477 1050.08 152.52 1059.4 154.304C1071.59 156.635 1083.63 159.425 1095.81 161.755C1101.61 162.864 1107.5 163.234 1113.32 164.157C1118.43 164.967 1123.66 166.002 1128.82 166.336C1134.63 166.712 1140.48 166.522 1146.3 166.783C1150.28 166.962 1154.77 166.758 1158.63 167.952C1160.41 168.502 1159.65 165.048 1159.78 163.354C1160.24 157.502 1160.42 151.683 1160.48 145.817C1160.61 134.378 1163.53 124.928 1167.83 114.476C1168.17 113.64 1168.61 112.361 1168.77 111.518C1168.85 111.141 1168.02 111.685 1167.63 111.679C1165.98 111.651 1164.29 111.742 1162.64 111.59C1151.41 110.56 1140.52 106.565 1129.27 105.532C1117.46 104.447 1105.48 103.581 1093.79 101.451C1087.35 100.278 1081.05 98.5287 1074.66 97.3062C1068.87 96.1977 1063.33 94.2467 1057.56 93.0606C1050.06 91.5201 1049.5 91.5186 1041.98 90.0808" stroke="white" stroke-width="2.07517" stroke-linecap="round"/>
<path d="M1039.68 143.225C1033.93 142.125 1039.87 133.478 1045.13 136.283C1048.78 138.23 1052.57 142.693 1049.77 146.831C1047.83 149.693 1044.51 150.023 1042.02 147.705C1040.74 146.51 1038.99 144.437 1039.77 142.755" stroke="white" stroke-width="2.07517" stroke-linecap="round"/>
<path d="M1054.94 150.041C1053.24 147.46 1051.81 144.16 1053.36 141.077C1054.69 138.411 1060.09 139.263 1062.12 140.534C1065.96 142.944 1065.8 147.851 1061.78 149.942C1056.4 152.746 1053.69 147.197 1053.38 142.922" stroke="white" stroke-width="2.07517" stroke-linecap="round"/>
<path d="M1068.87 143.449C1069.83 142.191 1075.54 143.751 1076.8 143.992C1079.85 144.575 1082.73 144.927 1085.81 145.121C1091.01 145.448 1096.15 145.492 1101.33 145.762C1108.12 146.115 1114.52 147.31 1121.2 148.587C1124.71 149.258 1125.64 151.564 1128.47 153.28C1130.46 154.478 1132.12 155.006 1132.23 157.299C1132.39 161.038 1129.59 161.164 1126.67 160.865C1122.95 160.483 1119.24 160.211 1115.49 160.052C1111.15 159.867 1106.88 159.299 1102.53 159.035C1100.78 158.929 1099.48 158.072 1097.8 157.75C1095.7 157.349 1093.76 157.201 1091.65 157.036C1085.96 156.588 1080.12 155.831 1074.5 154.756C1071.9 154.259 1066.68 152.776 1065.69 149.878C1064.91 147.608 1064.83 146.722 1065.3 144.256C1065.68 142.268 1071.7 141.47 1070.84 143.339" stroke="white" stroke-width="2.07517" stroke-linecap="round"/>
<path d="M1134.88 159.972C1131.35 154.777 1138.81 149.483 1142.42 154.216C1144.09 156.396 1147.45 161.487 1142.5 162.295C1139.49 162.788 1136.68 161.425 1134.71 159.181C1132.86 157.079 1134.29 156.622 1136.16 155.832" stroke="white" stroke-width="2.07517" stroke-linecap="round"/>
<path d="M1147.75 161.459C1146.71 159.088 1146.59 156.276 1148.39 154.166C1151.33 150.702 1154.98 153.747 1157.09 156.642C1159.19 159.53 1158.78 163.129 1155.15 164.66C1150.41 166.656 1148.05 159.576 1148.27 156.2" stroke="white" stroke-width="2.07517" stroke-linecap="round"/>
<path d="M1045.93 105.451C1044.24 105.021 1042.45 101.947 1043.07 100.22C1044.29 96.7842 1049.02 96.9269 1051.57 98.3553C1054 99.7176 1058.57 104.168 1054.66 106.389C1052.14 107.822 1048.74 107.151 1046.18 106.173C1043.12 105.011 1043.34 103.731 1044.77 101.332" stroke="white" stroke-width="2.07517" stroke-linecap="round"/>
<path d="M1044.32 113.91C1042.18 113.409 1041.75 111.46 1043.37 109.831C1046.4 106.77 1051.83 106.235 1053.7 110.672C1055.51 114.958 1052.62 121.677 1047.13 119.589C1042.4 117.792 1039.03 112.899 1042.87 108.761" stroke="white" stroke-width="2.07517" stroke-linecap="round"/>
<path d="M1040.88 129.328C1039.14 127.585 1038.22 124.409 1040.36 122.409C1043.2 119.763 1047.21 121.159 1050.14 122.817C1053.01 124.445 1055.87 131.022 1051.15 132.536C1048.19 133.484 1044.27 131.703 1041.94 130.017C1039.47 128.233 1039.29 127.475 1039.81 124.739" stroke="white" stroke-width="2.07517" stroke-linecap="round"/>
<path d="M1056.68 133.324C1056.3 131.986 1054.62 129.263 1056.33 128.332C1059.65 126.533 1063.45 127.168 1065.53 130.361C1068.61 135.089 1060.56 138.745 1056.79 138.567C1051.54 138.32 1056.15 131.783 1057.78 130.124" stroke="white" stroke-width="2.07517" stroke-linecap="round"/>
<path d="M1069.68 139.22C1068.05 136.039 1068.23 133.563 1071.68 131.43C1074.49 129.7 1080.35 132.57 1081.07 135.662C1082.1 140.002 1075.12 142.282 1071.94 141.521C1070.21 141.104 1068.45 139.788 1067.91 138.015C1067.34 136.179 1069.48 134.977 1070.67 134.05" stroke="white" stroke-width="2.07517" stroke-linecap="round"/>
<path d="M1083.76 139.477C1078.47 131.172 1092.62 130.743 1094.16 137.408C1096.45 147.251 1073.78 143.768 1082.5 135.827" stroke="white" stroke-width="2.07517" stroke-linecap="round"/>
<path d="M1100.85 141.772C1099.09 140.156 1096.63 137.719 1099.65 135.913C1102.63 134.125 1108.2 133.81 1110.25 137.346C1114.3 144.301 1093.55 144.99 1099.22 137.564" stroke="white" stroke-width="2.07517" stroke-linecap="round"/>
<path d="M1114.84 142.499C1109.45 134.017 1125.25 133.953 1127.52 142.002C1129.64 149.514 1106.77 148.919 1116.21 137.89" stroke="white" stroke-width="2.07517" stroke-linecap="round"/>
<path d="M1128.58 147.076C1127.05 139.907 1137.3 138.312 1140.71 143.335C1143.4 147.285 1137.02 149.585 1133.97 149.757C1130.47 149.952 1127.41 146.747 1130.15 143.966" stroke="white" stroke-width="2.07517" stroke-linecap="round"/>
<path d="M1145.21 149.282C1143.7 146.01 1143.42 143.6 1146.99 141.937C1149.39 140.82 1155.08 139.135 1156.42 142.713C1159.92 152.014 1142.18 153.07 1142.55 145.363" stroke="white" stroke-width="2.07517" stroke-linecap="round"/>
<path d="M1057.54 123.745C1056.19 121.759 1055.72 119.161 1057 116.931C1058.05 115.11 1064.71 115.955 1066.11 117.104C1069.42 119.813 1067.07 125.74 1063.17 126.283C1059.59 126.782 1053.6 125.347 1055.64 120.946" stroke="white" stroke-width="2.07517" stroke-linecap="round"/>
<path d="M1070.58 124.292C1066.38 115.861 1077.61 113.532 1080.5 120.831C1082.47 125.786 1078.88 126.76 1074.79 126.936C1073.05 127.012 1071.1 127.025 1069.4 126.502C1067.64 125.957 1069.66 123.044 1070 122.233" stroke="white" stroke-width="2.07517" stroke-linecap="round"/>
<path d="M1085.8 126.229C1083.02 125.696 1084.1 121.816 1085.46 120.372C1089.13 116.474 1094.52 119.401 1098.01 121.987C1107.66 129.14 1083.25 131.953 1084.75 124.079" stroke="white" stroke-width="2.07517" stroke-linecap="round"/>
<path d="M1104.31 128.794C1101.34 127.876 1106.82 122.758 1107.5 122.178C1110.51 119.605 1114.06 122.901 1116.09 125.202C1119.08 128.588 1116.81 132.308 1112.27 132.455C1110.38 132.516 1102.03 129.222 1104.76 126.445" stroke="white" stroke-width="2.07517" stroke-linecap="round"/>
<path d="M1121.32 131.56C1118.34 130.99 1119.99 126.637 1121.89 125.445C1124.26 123.961 1130.14 125.659 1131.81 127.614C1135.09 131.451 1129.75 135.089 1126.3 135.219C1124.28 135.296 1122.68 134.774 1121.54 133.091C1120.53 131.609 1121.54 131.02 1122.62 129.86" stroke="white" stroke-width="2.07517" stroke-linecap="round"/>
<path d="M1139.35 134.036C1137.58 130.698 1137.12 127.67 1141.81 126.712C1145.8 125.896 1150.03 126.936 1151.8 130.949C1154.25 136.536 1145.84 138.11 1142.25 136.727C1139.89 135.821 1137.16 133.921 1136.4 131.36C1135.78 129.249 1138.71 128.437 1140.05 127.837" stroke="white" stroke-width="2.07517" stroke-linecap="round"/>
<path d="M1151.85 124.735C1150.82 122.683 1148.31 119.936 1150.11 117.581C1151.52 115.735 1157.39 112.947 1159.68 114.378C1162.6 116.213 1161.16 123.382 1158.23 124.493C1154.57 125.876 1147.85 124.2 1147.96 119.606" stroke="white" stroke-width="2.07517" stroke-linecap="round"/>
<path d="M1135.56 118.209C1134.3 117.802 1134.37 113.807 1135.79 113.354C1137.94 112.663 1139.94 112.704 1142.06 112.254C1144.88 111.654 1147.47 117.437 1145.8 119.437C1143.38 122.332 1138.43 123.801 1135.32 120.87C1133.32 118.986 1130.92 116.531 1132.99 113.821" stroke="white" stroke-width="2.07517" stroke-linecap="round"/>
<path d="M1119.78 116.653C1120.49 112.938 1121.63 111.999 1125.39 111.393C1127.74 111.014 1131.36 111.734 1131.75 114.665C1132.86 122.995 1118.68 122.446 1120.14 114.773" stroke="white" stroke-width="2.07517" stroke-linecap="round"/>
<path d="M1105.71 116.396C1101.05 108.578 1114.63 106.866 1115.7 111.271C1116.41 114.218 1115.99 117.364 1112.93 118.264C1110.36 119.018 1103.88 118.302 1104.66 114.247" stroke="white" stroke-width="2.07517" stroke-linecap="round"/>
<path d="M1092.93 114.439C1089.17 113.72 1088.76 106.601 1092.75 105.745C1094.69 105.328 1100.07 106.413 1101.11 108.453C1105.37 116.806 1091.02 118.71 1089.06 111.75" stroke="white" stroke-width="2.07517" stroke-linecap="round"/>
<path d="M1074.13 110.844C1071.32 108.24 1075.18 104.358 1077.87 104.035C1081.03 103.657 1083.64 105.2 1084.59 108.217C1085.46 110.98 1083.25 113.358 1080.82 114.072C1077.51 115.046 1075.35 112.232 1073.28 110.194" stroke="white" stroke-width="2.07517" stroke-linecap="round"/>
<path d="M1065.2 109.136C1057.93 110.834 1060.38 96.1328 1067.52 100.567C1070.65 102.512 1070.67 104.884 1069.22 107.955C1066.46 113.795 1061.69 107.893 1058.42 106.378" stroke="white" stroke-width="2.07517" stroke-linecap="round"/>
<path d="M556.988 147.796C556.988 149.192 556.742 150.552 556.634 151.944C557.382 151.982 557.673 152.012 558.227 152.259C558.71 152.473 559.486 153.006 559.996 153.006C560.728 153.006 561.396 153.496 562.12 153.537C562.523 153.559 563.806 153.962 564.155 154.156C564.876 154.557 565.764 154.563 566.445 154.952C567.198 155.382 568.326 156.094 569.198 156.191C569.785 156.256 570.778 156.618 571.321 156.859C572.051 157.184 572.925 157.365 573.71 157.607C575.379 158.12 576.841 159.122 578.566 159.553C579.622 159.817 580.61 160.211 581.673 160.448C583.955 160.955 586.075 162.157 588.309 162.777C590.368 163.349 592.44 163.97 594.404 164.685C594.783 164.823 595.063 165.129 595.485 165.206C595.939 165.288 596.431 165.177 596.891 165.225C597.488 165.288 597.962 165.746 598.572 165.746C598.768 165.746 599.563 165.41 599.594 165.432C600.132 165.808 600.36 166.625 600.872 166.946C601.583 167.39 602.112 167.925 602.956 168.184C603.844 168.457 604.715 168.77 605.61 169.069C606.63 169.409 607.388 169.106 608.402 168.922C609.018 168.81 609.39 168.577 610.064 168.577C610.642 168.577 611.483 168.445 611.922 168.047C612.591 167.438 613.554 167.335 613.613 166.277C613.644 165.716 616.159 165.771 616.621 165.746C617.061 165.723 617.474 165.409 617.899 165.392C618.354 165.375 618.684 165.569 619.177 165.569C622.994 165.569 626.444 163.623 630.246 163.623C632.302 163.623 634.189 162.835 636.174 162.394C637.156 162.176 638.021 161.587 639.015 161.322C639.655 161.152 640.19 160.865 640.853 160.782L640.865 160.78C641.138 160.746 641.68 160.679 641.925 160.575C642.735 160.234 643.865 159.587 644.717 159.553C645.349 159.528 646.877 158.822 647.371 158.452C647.964 158.007 649.489 157.43 650.241 157.43C651.307 157.43 652.009 156.545 652.994 156.545C654.104 156.545 654.93 155.762 655.992 155.67C657.183 155.566 658.256 155.369 659.443 155.306C659.954 155.279 660.355 154.952 660.898 154.952C661.708 154.952 661.971 154.404 662.628 154.028C662.865 153.893 664.557 153.028 664.751 153.271C664.932 153.497 664.819 151.784 664.741 151.512C664.517 150.727 664.22 149.891 664.22 149.015C664.22 147.185 663.759 145.465 663.69 143.667C663.653 142.717 663.277 141.684 663.021 140.757C662.747 139.763 662.805 138.557 662.805 137.523C662.805 136.886 662.389 136.084 662.284 135.399C662.099 134.197 662.442 132.961 662.136 131.772C661.797 130.451 662.097 129.319 662.097 128.016C662.097 127.145 661.981 126.185 662.235 125.362C662.435 124.709 662.071 123.914 662.313 123.278C662.5 122.788 662.6 122.037 662.628 121.509C662.684 120.446 662.451 119.398 662.451 118.314C662.451 116.764 662.274 115.254 662.274 113.723C662.274 112.711 662.238 111.968 661.959 111.029C661.66 110.02 661.92 108.567 661.92 107.529V104.148C661.92 102.932 661.913 101.773 661.753 100.569C661.629 99.6379 662.084 98.299 661.704 97.4433C661.047 95.9654 662.338 94.1111 661.468 92.7443C661.352 92.5615 659.573 90.1883 659.531 90.1883C659.061 90.1883 658.138 90.9743 657.811 91.2893C657.345 91.7383 657.183 91.9451 657.142 91.25C657.128 91.003 656.803 90.7892 656.788 90.5422C656.734 89.6143 656.29 88.6985 656.091 87.7995C655.891 86.8995 655.892 85.9702 655.638 85.0567C655.33 83.9462 654.914 83.0966 654.39 82.0486C654.025 81.3194 653.054 80.9528 652.63 80.1906C652.281 79.5618 652.018 78.7925 651.519 78.2933C651.059 77.833 649.296 78.3399 648.826 78.5489C648.001 78.9155 646.832 78.8635 645.926 78.8635C643.876 78.8635 641.386 79.2225 639.408 79.7875C635.175 80.997 631.28 82.7887 627.405 84.9683C625.571 86.0001 623.855 87.0396 621.89 87.888C619.923 88.7375 617.362 90.1966 616.001 91.8595C615.277 92.7451 614.588 93.6235 613.888 94.5236C613.349 95.2159 613.244 96.2306 612.816 97.0009C612.04 98.3973 611.803 100.381 611.351 101.906L611.342 101.938C611.064 102.878 610.805 103.751 610.781 104.738C610.765 105.438 610.464 106.13 610.427 106.822C610.397 107.398 610.306 106.992 610.162 106.733C609.925 106.307 609.54 105.855 609.376 105.416C609.194 104.932 608.652 104.717 608.481 104.246C608.016 102.969 606.679 102.086 606.141 100.845C605.733 99.9035 604.88 99.0658 604.372 98.1511C604.09 97.6432 603.492 97.3803 603.172 96.8731C602.842 96.3479 602.439 96.0902 602.071 95.5951C601.324 94.5897 600.392 93.4214 599.28 92.8032C598.88 92.5814 598.561 91.7894 598.218 91.427C597.932 91.1249 597.728 90.7605 597.422 90.4537C595.941 88.9728 594.337 87.5466 592.909 86.0398C591.248 84.2861 589.428 83.8634 587.335 82.9333C585.803 82.2523 583.89 81.4784 582.214 81.1737C581.06 80.9639 579.937 80.5777 578.753 80.4462C578.326 80.3987 577.442 80.3961 577.072 80.1906C576.725 79.9977 576.321 79.7902 575.922 79.7482C575.446 79.6981 574.838 79.5726 574.369 79.4336C573.892 79.2923 573.084 79.5713 572.56 79.5713C572.035 79.5713 571.08 79.5967 570.614 79.7875C569.993 80.0414 569.119 80.1244 568.579 80.4659C567.713 81.0123 567.361 81.5339 567.084 82.5008C566.774 83.5875 566.577 84.6003 566.15 85.7252C565.646 87.0559 566.021 91.25 564.243 91.25C564.019 91.25 563.318 91.2207 563.182 91.3287C562.765 91.6572 562.496 91.4221 562.12 91.6432C561.491 92.0132 559.986 92.139 559.81 92.931C559.64 93.6966 559.505 94.5181 559.298 95.2412C559.183 95.6457 559.382 96.0791 559.2 96.4799C559.068 96.7701 558.948 97.4392 558.935 97.7579C558.887 98.944 558.47 100.068 558.404 101.258C558.373 101.812 558.07 102.346 558.05 102.889C558.035 103.285 558.101 103.706 558.04 104.099C557.757 105.941 557.185 107.89 557.185 109.741C557.185 109.992 557.335 110.574 557.431 110.823C557.698 111.519 557.439 112.31 557.352 113.005C557.244 113.867 557.342 114.797 557.342 115.669C557.342 117.411 557.696 118.971 557.696 120.702C557.696 121.614 558.05 122.611 558.05 123.553V126.326C558.05 127.379 558.404 128.489 558.404 129.511C558.404 130.742 558.121 132.363 558.492 133.551C558.748 134.368 558.581 135.432 558.581 136.284C558.581 137.018 558.513 138.353 558.797 139.027C559.621 140.983 558.043 142.792 557.696 144.61C557.496 145.659 556.988 146.779 556.988 147.796Z" fill="#393E43"/>
<path d="M615.076 109.623C614.978 108.84 612.157 108.93 611.444 108.635C609.259 107.731 606.92 107.22 604.553 107.22C600.931 107.22 597.708 108.285 600.414 112.24C602.25 114.925 608.033 117.041 611.123 115.285C612.195 114.676 614.134 113.799 614.969 112.881C615.799 111.968 615.762 110.104 614.595 110.104M616.518 111.546C614.766 127.312 616.518 175 616.518 159.137M598.732 109.142C600.288 109.488 599.562 112.329 599.453 113.309C599.009 117.303 599.213 121.367 599.213 125.38C599.213 131.65 599.873 138.402 598.839 144.608C597.963 149.859 598.732 165.902 598.732 160.579M616.518 162.501C614.882 162.865 614.533 166.587 613.153 167.683C611.18 169.25 609.681 169.992 607.118 169.605C604.91 169.272 603.919 168.427 602.097 167.415C600.464 166.508 600.102 164.148 598.732 163.463M598.828 164.44C607.257 169.397 580.054 158.963 570.632 156.345C567.516 155.48 564.565 153.977 561.515 152.921C560.255 152.485 556.935 151.008 556 151.631M599.228 110.404C600.553 112.259 594.936 108.86 592.824 108.002C589.819 106.781 586.84 105.514 583.885 104.178C578.644 101.807 573.339 99.6433 568.096 97.2841C566.491 96.5619 565.183 95.4092 563.693 94.4823C562.983 94.0405 562.055 92.8396 561.203 92.7923C559.774 92.7129 559.68 93.7093 560.402 94.7936M559.602 93.1925C559.515 91.8789 559.229 96.8171 559.18 97.551C558.877 102.095 557.891 106.615 557.646 111.16C557.299 117.576 558.281 123.893 558.402 130.284C558.488 134.839 559.08 139.225 558.379 143.782C558.262 144.543 557.533 145.519 557.29 146.339C556.891 147.685 556.983 149.46 556.801 150.831M608.835 107.602C611.923 109.918 604.927 100.94 602.786 97.7289C600.559 94.3884 598.061 90.5424 594.781 88.1225C592.683 86.5748 589.574 83.0435 586.909 82.7857C585.484 82.6477 584.425 81.6902 583.129 81.2736C582.089 80.9392 580.884 81.3268 579.816 81.1624C577.6 80.8215 575.24 80.2162 573.033 80.006C571.899 79.898 567.207 80.5148 567.207 81.785C567.207 83.7914 563.876 94.7288 564.806 95.1939M606.033 106.802C607.03 106.677 605.455 104.731 605.232 104.4C602.933 100.984 599.954 98.0136 597.494 94.7047C594.173 90.2379 588.705 87.3044 583.729 85.2095C580.621 83.9009 578.736 82.1529 575.213 81.9851C572.807 81.8706 569.778 80.6152 568.008 82.3854M603.231 106.401C603.231 106.425 600.885 103.825 600.429 103.288C598.099 100.547 595.201 98.5476 592.846 95.8387C589.851 92.3947 585.42 90.8318 581.794 88.2559C579.436 86.5806 575.909 85.9508 573.211 84.9871C572.101 84.5908 570.991 84.2196 569.831 84.0087C568.746 83.8115 567.426 82.7514 568.408 84.3867M600.83 107.202C600.949 107.306 599.024 104.176 597.939 103.288C596.655 102.238 595.075 101.161 593.625 100.308C592.389 99.5812 591.407 98.3768 590.023 97.6844C588.485 96.9155 586.652 95.5358 585.442 94.3933C584.465 93.4703 581.713 91.786 580.416 91.5915C579.035 91.3843 577.825 89.7875 576.503 89.2788C574.864 88.6486 573.186 87.8457 571.611 87.0996C570.453 86.5511 569.241 86.3986 568.008 85.9878M598.828 108.803C599.974 108.516 596.076 104.936 595.226 104.489C593.89 103.786 593.124 102.354 591.801 101.598C588.462 99.69 585.508 97.5619 582.017 95.8165C579.46 94.5377 575.693 93.4167 573.523 91.6804C571.479 90.0455 567.931 90.1844 565.606 88.7896M598.428 109.203C597.023 107.799 594.272 107.509 592.513 106.401C590.774 105.306 588.529 104.463 587.065 102.999C584.747 100.681 582.139 99.947 579.215 98.4849C577.834 97.7942 576.071 97.3588 574.901 96.3057C574.139 95.6194 572.233 95.372 571.61 94.5935C571.027 93.8642 568.306 93.4144 567.407 93.2148C566.323 92.9738 564.944 92.4614 564.005 91.9917M656.719 92.338C657.793 92.4768 656.767 90.898 656.59 90.4822C655.998 89.0906 655.471 87.6734 654.964 86.2521C654.022 83.6129 652.999 81.0085 651.914 78.4197C651.428 77.2612 651.613 77.3318 650.446 77.3553C648.362 77.3974 646.818 77.8953 644.834 78.3924C640.209 79.5511 635.282 80.2319 630.877 82.0221C627.729 83.3014 625.302 85.2604 622.402 86.9344C617.41 89.8158 613.557 92.8368 611.783 98.2192C611.34 99.562 611.238 102.002 610.344 103.132C609.497 104.203 610.549 107.337 609.581 107.566M615.992 111.229C617.07 111.008 617.587 108.395 618.324 107.639C619.134 106.807 619.769 106.019 620.655 105.246C623.175 103.047 626.319 101.638 629.377 100.06C632.192 98.6076 635.141 97.3382 638.013 95.9641C639.361 95.3192 640.626 94.4175 642.028 93.8897C643.058 93.5024 644.161 93.334 645.18 92.9323C647.363 92.0721 649.687 91.4573 651.945 90.8313C653.04 90.5277 654.222 90.1664 655.371 90.1664M616.908 110.314C617.69 108.121 617.669 105.505 619.217 103.578C619.908 102.717 620.591 101.126 621.683 100.672C623.529 99.9066 625.051 98.4151 626.86 97.5257C629.602 96.1782 631.972 94.2023 634.992 93.3211C637.064 92.7165 638.833 91.632 640.857 90.9777C642.266 90.5224 643.697 90.0981 645.045 89.5316C647.108 88.6647 649.444 88.3326 651.498 87.4694C652.462 87.0645 654.411 86.0957 655.371 86.6928M616.075 109.945C616.075 111.795 615.769 106.17 616.331 104.402C616.591 103.581 617.196 102.801 617.481 101.913C617.89 100.634 618.6 99.5446 619.341 98.4188C620.685 96.3775 622.949 94.3473 625.02 92.9858C627.605 91.2871 630.779 90.6888 633.597 89.3958C635.674 88.4425 637.89 87.3242 640.086 86.6861C641.889 86.1622 644.058 85.6261 645.666 84.6917C646.799 84.0333 648.899 83.949 650.195 83.949C651.026 83.949 652.412 83.3796 652.623 84.1966M612.329 109.398C613.155 109.048 613.099 106.773 613.099 106.078C613.099 104.709 613.241 103.297 613.612 101.969C614.129 100.117 615.86 97.7386 617.205 96.4174C619.457 94.2055 621.109 91.8983 623.892 90.172C626.015 88.8554 628.23 86.8871 630.608 86.0765C632.657 85.3781 634.468 84.2235 636.597 83.6817C638.484 83.2013 640.561 82.4623 642.357 81.7768C643.146 81.4756 644.21 81.2326 645.066 81.2326C646.149 81.2326 646.967 80.7427 648.032 80.7427C649.454 80.7427 651.857 79.2804 652.623 80.7427M665 153.878C664.401 153.055 664.72 152 664.608 151.053C664.348 148.837 663.822 146.556 663.433 144.352C663.106 142.499 663.272 140.707 663.124 138.847C662.928 136.4 662.432 133.994 662.402 131.527C662.315 124.334 661.66 117.117 661.66 109.918C661.66 107.787 661.289 105.722 661.289 103.588C661.289 102.092 661.595 100.236 661.268 98.7631C660.998 97.5473 660.722 90.3247 660.546 90.4124M616.751 112.681C616.756 112.713 621.476 110.439 622.03 110.083C622.872 109.542 623.768 109.051 624.628 108.516C625.9 107.725 627.293 106.158 628.648 105.65C631 104.768 633.318 103.648 635.535 102.454C638.118 101.063 641.042 100.324 643.68 99.0312C647.266 97.2731 650.813 95.7415 654.196 93.5671C655.265 92.8795 656.246 92.1688 657.371 91.5258C657.839 91.2582 658.115 90.9479 658.691 90.7835C659.091 90.6692 659.298 90.4963 659.618 90.2474C660.032 89.9255 657.35 92.1528 657.206 92.2681M618.739 112.145C621.605 108.438 625.817 106.715 629.283 103.743C630.637 102.581 632.609 102.36 634.132 101.451C636.026 100.321 638.006 99.345 639.999 98.3961C642.795 97.0655 645.444 95.4169 648.161 93.9828C649.168 93.4517 654.87 90.6487 655.371 91.1397M612.941 167.59C612.941 168.33 614.168 166.76 614.821 166.412C616.44 165.547 618.074 165.617 619.854 165.567C624.404 165.441 628.611 163.929 633.044 163.067C635.901 162.51 638.666 162.081 641.406 161.012C643.272 160.284 645.134 159.204 647.077 158.718C650.289 157.915 653.765 156.996 656.81 155.707C658.133 155.148 663.302 154.893 663.978 153.541M611.475 119.39C609.393 119.582 603.128 118.978 605.218 118.925M611.054 119.193C612.331 120.809 611.079 123.685 609.044 123.824C607.75 123.912 606.864 123.367 605.889 122.562C604.614 121.509 604.355 120.548 605.016 119.138M607.468 125.529C606.7 125.514 605.943 125.359 605.174 125.379M609.845 125.7L610.063 126.111M608.384 128.836C608.214 128.085 606.576 127.185 605.847 127.27C603.864 127.501 604.65 130.002 605.108 131.001M612.027 132.907C609.489 132.739 606.952 132.31 604.5 131.641M607.163 129.908C607.568 131.117 607.647 132.579 607.679 133.85M606.244 134.72C605.726 134.46 605.133 134.577 604.574 134.554M608.335 135.083C608.471 135.229 608.49 135.318 608.553 135.494M606.296 136.8C607.989 136.757 610.719 139.259 608.105 140.154C607.203 140.463 605.527 140.557 605.057 139.48C604.854 139.012 604.76 138.093 605.022 137.63C605.539 136.717 606.967 137.635 607.571 137.808M607.266 142.188C607.133 142.155 605.936 141.676 605.824 141.854C605.785 141.916 607.886 143.048 607.984 143.118C608.366 143.392 609.228 144.224 608.603 144.744C607.483 145.676 606.332 145.039 605.244 144.529M608.454 147.986C608.061 146.97 606.469 145.697 605.421 146.514C604.536 147.203 605.082 148.051 605.967 148.42C606.487 148.636 608.257 148.402 608.13 148.423C606.905 148.618 605.568 149.589 604.341 149.964M607.93 151.955C607.055 151.88 606.139 151.551 605.261 151.606C604.608 151.647 606.437 152.184 607.04 152.44C608.813 153.192 609.138 154.345 608.66 156.1M608.499 157.977C607.714 157.997 606.624 157.811 606.227 158.66C606.039 159.061 605.828 160.018 606.292 160.323C606.704 160.595 610.154 160.44 607.917 161.022C606.419 161.412 603.721 162.491 602.874 160.537C601.987 158.491 602.218 155.014 604.883 154.947M619.95 123.125C619.95 121.071 620.232 119.034 619.96 116.997C619.865 116.287 619.731 115.221 620.395 114.852C621.852 114.043 623.237 113.576 624.042 115.376C625.104 117.75 622.356 119.002 620.484 118.322M625.465 120.634C625.465 119.685 625.037 119.131 625.465 118.322C625.628 118.013 627.431 116.139 628.347 116.997C629.721 118.886 629.263 119.802 628.529 120.555C627.795 121.308 626.443 121.768 625.643 121.168M630.98 116.009C631.338 117.122 631.385 118.233 631.514 119.389M633.649 114.586C633.308 116.047 634.004 120.573 634.004 119.073C634.004 117.497 633.802 116.065 634.825 114.764C635.135 114.368 636.262 112.473 636.89 113.241C638.007 114.606 637.815 116.682 637.74 118.322M639.875 107.292C639.875 107.137 639.936 106.842 640.014 107.193C640.244 108.228 640.133 109.46 640.192 110.514C640.28 112.1 640.484 113.632 640.725 115.198C640.899 116.325 640.631 115.607 640.409 114.941M638.274 111.917C639.719 111.841 641.295 111.135 642.722 110.85M643.611 112.273C643.688 112.257 643.765 112.239 643.843 112.219M643.843 112.219C644.956 111.937 646.153 111.29 646.685 110.257C646.901 109.837 647.239 109.018 646.596 108.814C645.367 108.423 644.483 109.39 644.184 110.494C644.052 110.984 643.872 111.629 643.843 112.219ZM643.843 112.219C643.805 112.973 644.015 113.64 644.886 113.785C646.468 114.049 647.961 113.677 649.126 112.629M651.083 107.825C650.693 107.777 650.905 109.36 650.905 109.762C650.905 110.065 650.772 111.71 650.994 110.642C651.276 109.287 651.114 107.532 651.834 106.323C652.264 105.603 653.349 103.995 653.93 105.157M656.954 103.022C656.894 102.873 656.333 103.933 656.282 104.05C656.026 104.634 655.709 105.308 655.709 105.957C655.709 106.766 656.961 105.868 657.488 105.868C659.626 105.868 656.07 109.773 655.709 110.316M626.328 133.863C626.116 132.615 625.749 131.282 626.607 130.172C627.099 129.536 628.062 129.189 628.423 130.098C628.824 131.109 629.062 132.587 628.392 133.537C628.101 133.95 627.691 134.09 627.189 134.122C626.682 134.154 626.667 133.845 626.467 133.463M630.676 132.293C630.494 131.753 631.139 131.297 631.447 130.893C631.79 130.445 632.164 130.009 632.476 129.545M629.729 130.461C630.759 131.377 632.876 131.911 634.308 132.293M636.307 131.377C634.573 130.077 634.8 125.773 637.862 127.023C639.028 127.499 639.095 129.164 638.579 130.063C638.285 130.575 637.877 130.842 637.255 130.925C636.073 131.085 635.947 130.683 635.384 129.952M639.827 129.413C639.827 127.885 639.443 125.148 641.68 124.971C643.515 124.827 643.9 127.714 642.998 128.762C642.557 129.273 641.906 129.58 641.208 129.542C640.208 129.487 640.432 128.37 640.308 127.715M645.936 126.861C645.743 126.647 645.594 126.418 645.489 126.182M645.489 126.182C645.186 125.497 645.255 124.746 645.704 124.065C646.647 122.638 647.523 122.988 648.362 124.202C649.345 125.625 649.209 127.861 647.255 128.537C646.657 128.744 646.044 128.605 645.666 128.1C645.16 127.424 645.25 126.808 645.489 126.182ZM645.489 126.182C645.569 125.973 645.666 125.763 645.762 125.55M651.201 126.673C650.852 126.946 650.984 123.784 651.034 123.382C651.134 122.585 652.028 120.615 652.825 121.549C653.714 122.591 653.638 125.249 653.319 126.54C653.2 127.02 652.757 127.187 652.431 127.465C651.473 128.281 651.215 126.9 650.792 126.033M637.973 135.956C637.89 135.944 640.169 134.399 640.718 134.124M629.356 141.672C629.356 141.127 629.196 141.732 629.15 141.952C628.97 142.811 628.85 143.714 628.815 144.6C628.757 146.074 629.794 145.817 630.725 146.013C632.54 146.396 631.058 139.771 629.492 142.177M633.392 145.113C633.977 144.482 634.556 143.87 635.223 143.282M633.392 143.282C633.943 143.965 634.625 144.512 635.223 145.113M638.216 145.113C638.216 143.583 637.05 139.619 639.802 139.619M637.055 143.282C637.947 142.871 638.87 142.65 639.802 142.366M641.865 144.198C641.865 142.857 641.295 141.029 641.945 139.828C642.392 139.002 643.254 136.999 644.381 138.12M640.718 142.366C641.589 142.014 642.553 141.757 643.465 141.45M646.648 142.366C645.641 142.237 646.495 135.525 648.044 137.115M645.373 140.535C645.047 140.495 645.87 140.354 645.908 140.348C646.71 140.227 647.318 139.93 648.044 139.619M650.893 141.45C650.823 139.534 650.288 136.379 652.623 135.956M649.876 139.552C650.376 139.868 651.338 138.978 651.707 138.703M563.082 104.785C564.765 104.595 566.373 105.185 568.09 104.963C568.9 104.858 569.89 104.562 570.652 105.036C571.287 105.431 571.058 106.087 571.206 106.678C571.565 108.115 572.938 107.288 573.977 107.357C575.902 107.487 577.512 108.631 579.038 109.721C579.401 109.98 579.694 110.39 580.104 110.578C580.836 110.913 581.741 110.778 582.52 110.818C583.537 110.871 584.592 111.042 585.583 111.279C586.524 111.503 587.479 111.724 588.428 111.937C589.42 112.161 590.426 112.267 591.418 112.512C592.971 112.896 593.821 113.441 595.078 114.384M561.952 111.184C564.198 110.425 567.145 110.189 569.188 111.644C570.736 112.747 572.02 113.127 573.956 112.523C574.868 112.238 576.09 111.528 577.072 111.937C577.648 112.177 577.848 113.034 578.222 113.485C578.765 114.139 579.439 114.301 580.23 114.468C581.469 114.729 582.123 115.238 583.032 116.078M561.576 114.949C560.989 115.448 559.972 117.48 561.409 117.542C563.923 117.65 567.083 114.704 569.46 116.13C570.807 116.938 571.318 118.102 573.036 118.148C573.685 118.166 574.324 118.184 574.939 118.42C575.666 118.7 576.281 119.283 577.051 119.445C578.352 119.719 579.715 119.264 580.983 119.581C582.862 120.05 584.651 120.841 586.545 121.306C587.677 121.584 588.573 121.535 589.724 121.337C592.172 120.918 594.17 121.165 596.583 121.536M563.458 132.829C563.458 136.346 562.798 140.027 562.245 143.505C562.004 145.023 562.001 146.616 561.722 148.116C561.573 148.918 561.324 149.718 562.433 149.496C563.136 149.355 564.013 149.756 564.734 149.768C565.451 149.78 566.151 149.956 566.856 149.956C568.373 149.956 570.501 150.894 571.823 151.65C571.958 151.727 573.208 152.838 573.245 152.215C573.354 150.369 573.857 148.622 574.27 146.819C574.839 144.333 575.88 141.77 575.88 139.197C575.88 137.452 576.328 136.149 576.779 134.523C576.99 133.763 577.386 132.761 577.386 131.971C577.386 130.918 573.927 131.292 573.214 131.114C570.874 130.529 568.532 130.049 566.344 129.253C565.158 128.821 564.807 128.912 564.776 130.006C564.737 131.372 564.262 133.102 563.646 134.335M567.411 137.158C567.14 138.038 567.234 138.954 567.034 139.855C566.876 140.568 566.644 140.75 567.264 140.964C568.032 141.229 568.581 141.487 569.408 141.487C569.626 141.487 570.939 141.708 571.07 141.633C571.378 141.457 571.17 139.871 571.175 139.563C571.188 138.705 571.461 137.914 571.541 137.074C571.705 135.348 568.645 136.739 567.975 137.158M572.116 137.346C572.65 137.346 573.099 137.274 573.622 137.158M572.116 139.228C571.742 139.153 572.863 139.04 573.245 139.04M572.304 140.546C571.86 140.546 573.18 140.69 573.622 140.734M564.964 139.981C565.345 139.952 565.717 139.861 566.093 139.793M565.152 138.852H565.717M564.964 137.911C565.407 137.879 565.843 137.79 566.281 137.722M568.728 134.711V136.405M569.669 134.899V135.84M570.987 134.146V135.84M567.599 141.863C567.181 141.967 567.532 142.757 567.599 142.992M568.728 141.863C568.728 142.385 568.823 142.857 568.916 143.369M570.045 142.051C570.045 142.594 570.103 143.033 570.234 143.557M562.329 147.698C562.425 146.636 563.26 145.012 564.106 144.414C565.309 143.565 566.467 142.113 567.975 142.616M570.798 143.369C573.434 143.369 573.668 145.174 573.998 147.321M568.916 139.04C568.916 138.77 568.931 139.304 568.958 139.374C569.116 139.795 569.405 139.166 569.481 139.04M579.08 136.781C579.164 135.858 579.577 137.133 579.686 137.346C580.157 138.269 580.575 137.563 581.296 137.241C583.238 136.375 584.19 137.977 585.908 138.256C587.158 138.458 588.395 137.988 589.609 138.109C590.323 138.181 590.983 138.287 591.711 138.287C592.263 138.287 592.803 138.245 593.352 138.203C594.25 138.136 594.674 138.824 595.266 139.416M578.139 141.863C578.063 142.618 577.236 144.453 578.881 143.63C580.03 143.056 580.482 142.934 581.715 142.992C582.272 143.019 582.809 142.818 583.346 142.7C583.856 142.587 584.317 142.832 584.841 142.794C585.628 142.735 586.467 142.352 587.256 142.48C587.681 142.549 587.986 142.815 588.323 143.055C588.889 143.458 589.528 143.552 590.184 143.745M576.445 148.639C576.119 147.728 576.443 146.775 576.717 148.105C576.855 148.779 576.714 150.815 577.898 150.113L577.925 150.097C579.099 149.401 579.674 149.061 581.077 149.318C582.011 149.49 583.8 150.377 584.726 150.029C585.327 149.804 586.97 147.9 587.549 148.45C588.313 149.176 588.355 149.449 589.431 149.726C590.551 150.014 591.701 150.523 592.819 150.709M560.447 121.16C560.704 120.967 560.211 124.553 561.388 124.202C562.896 123.753 564.431 120.249 566.135 122.101C567.192 123.25 568.386 124.357 570.025 124.506C571.548 124.644 572.698 123.726 574.123 124.662C575.934 125.852 577.593 126.191 579.77 125.677C582.243 125.093 582.34 126.541 584.046 127.862C584.848 128.483 586.981 128.406 587.926 128.228C588.938 128.037 589.891 127.651 590.895 128.082C591.853 128.492 592.755 128.368 593.76 128.312M616.238 106.651C615.375 106.45 617.041 104.066 617.269 103.814C618.687 102.254 620.209 100.748 621.767 99.3091C624.428 96.8524 627.256 94.383 630.607 92.7741C633.864 91.2097 637.369 89.6243 640.91 88.7071C642.897 88.1926 644.962 87.9935 646.94 87.4488C647.296 87.3508 650.006 86.5033 648.517 86.5033M617.823 105.735C623.829 101 630.105 96.6914 636.744 92.7556C639.403 91.1793 642.253 89.9341 645.194 88.8919C646.546 88.413 647.534 88.2902 648.96 88.3482M611.413 100.074C611.655 100.384 611.733 100.71 611.76 101.087C611.782 101.4 612.136 100.56 612.317 100.293C614.745 96.7193 617.925 93.9657 621.618 91.4965C626.093 88.5053 631.229 85.8631 636.821 85.1235C638.117 84.9522 639.449 84.9599 640.718 84.6717M614.682 102.987C613.35 102.722 614.935 101.573 615.387 101.154C617.589 99.1093 620.053 97.2983 622.526 95.543C627.289 92.162 632.231 88.8169 637.54 86.1823C639.486 85.2164 641.478 84.6381 643.659 84.3487C644.446 84.2444 645.26 84.1543 646.014 83.9076C646.466 83.7595 646.028 83.781 645.864 83.7559M619.655 110.314C620.399 108.486 622.366 107.529 623.953 106.433C629.031 102.925 633.917 99.2625 639.532 96.553C642.054 95.3363 644.696 94.6449 647.447 94.1363C648.487 93.944 649.543 93.8224 650.578 93.6104C650.852 93.5543 651.201 93.4764 651.459 93.3545C652.039 93.08 651.436 93.1271 651.341 92.9138M610.784 104.216C609.335 107.207 613.749 98.2522 615.527 95.4317C618.071 91.3938 621.748 88.0828 626.26 86.1526C631.252 84.0175 636.603 82.7478 641.752 81.0397C643.799 80.3603 645.889 80.0928 648.044 80.0928M597.736 109.742C597.208 109.804 596.645 109.29 596.23 109.028C595.496 108.563 594.721 108.195 593.952 107.792C592.416 106.987 590.803 106.356 589.279 105.533C586.282 103.914 583.14 102.636 580.089 101.131C577.189 99.6998 574.281 98.3721 571.477 96.7476C569.265 95.4657 566.955 94.3045 564.642 93.2142C563.911 92.8693 563.09 92.4738 562.267 92.4033C561.678 92.3527 561.939 92.8769 561.939 93.2335M597.563 108.004C598.127 108.71 596.09 106.956 595.362 106.421C593.087 104.749 590.767 103.176 588.324 101.758C584.726 99.6705 580.879 97.538 577 96.0139C574.623 95.0802 572.506 93.695 570.251 92.5288C569.378 92.077 568.478 91.5779 567.5 91.3993C566.449 91.2073 566.263 91.356 565.762 92.1909M597.736 106.266C598.584 106.955 598.858 106.641 598.47 105.552C597.927 104.029 596.861 102.684 595.709 101.575C592.535 98.5169 588.547 96.7112 584.481 95.174C579.526 93.3005 574.725 91.0123 570.464 87.8273C569.668 87.2326 568.872 86.6609 568.041 86.1185C567.165 85.5472 567.238 85.5711 567.326 86.4564M602.081 107.83C602.219 107.951 601.113 106.55 601.077 106.498C599.431 104.149 598.048 101.69 596.182 99.4893C594.606 97.6304 592.987 96.2373 590.979 94.894C588.145 92.9986 585.242 91.3269 582.242 89.7388C581.084 89.1258 579.979 88.315 578.737 87.8852C577.501 87.4572 576.349 86.6678 575.078 86.3888C574.143 86.1834 573.287 86.0267 572.346 85.7613C571.633 85.5601 571.037 85.345 570.309 85.5875C570.042 85.6766 569.705 85.8552 570.107 85.5875M603.992 105.919C604.58 106.507 604.734 106.533 604.475 105.61C604.102 104.282 602.957 103.159 602.139 102.096C600.059 99.394 597.408 97.4032 595.062 94.9906C592.465 92.3187 589.847 90.0123 586.499 88.31C585.025 87.5606 583.498 86.9188 582.058 86.1088C580.606 85.2918 578.903 84.4228 577.251 84.178C576.429 84.0563 575.693 83.7033 574.895 83.5119C574.208 83.3469 573.523 83.4768 572.829 83.396C572.086 83.3097 571.408 82.8458 570.657 82.8458C570.417 82.8458 570.136 82.9286 569.971 83.1161C569.712 83.4112 570.746 83.487 570.802 83.5022M607.641 107.657C608.181 107.522 604.916 101.457 604.34 100.667C602.717 98.4421 600.716 96.606 599.088 94.4113C596.863 91.4119 594.081 89.1415 591.027 87.0646C588.42 85.2921 585.65 84.1322 582.734 83.0389C581.518 82.5829 580.479 81.9092 579.355 81.2818C578.72 80.9272 578.153 80.5601 577.415 80.8184C576.787 81.0379 576.443 81.0684 575.802 80.9343C575.253 80.8193 574.666 80.5065 574.277 80.8957M632.476 96.5769C633.132 95.848 634.507 95.5662 635.443 95.232C638.546 94.1245 641.632 92.9756 644.666 91.7281C646.301 91.0559 647.869 90.2556 649.651 89.9231C651.237 89.6273 652.853 89.4572 654.455 89.2507M638.913 85.724C638.244 84.1188 647.283 82.225 648.532 82.04C649.23 81.9366 653.025 80.9867 653.239 81.6307M614.08 108.783C613.598 108.662 615.122 104.004 615.232 103.674C615.921 101.607 616.947 99.7467 618.113 97.9281C619.287 96.096 620.709 94.4461 622.388 93.0464C623.175 92.3906 624.066 91.9751 624.799 91.2423L625.784 90.2569C625.957 90.084 626.563 89.6808 626.224 89.6808M647.922 86.8436C648.026 86.3227 649.446 86.0682 649.863 85.9555C650.35 85.8238 650.928 85.8335 651.436 85.7271C651.853 85.6399 652.351 85.574 652.743 85.4479C652.967 85.376 653.91 84.9343 653.746 85.0165M630.397 113.572L630.616 113.983" stroke="white" stroke-width="1.293" stroke-linecap="round"/>
<path d="M270.95 172.132C271.328 175.91 276.565 180.18 279.814 181.601C283.536 183.23 288.576 183.17 292.357 181.623C295.45 180.358 298.389 178.593 299.538 175.273C300.285 173.115 300.031 170.777 300.031 168.497" stroke="white" stroke-width="1.91907" stroke-linecap="round"/>
<path d="M269.078 163.894C269.078 162.447 269.867 161.154 270.425 159.872C271.026 158.491 271.64 157.022 272.455 155.754C273.289 154.458 275.367 152.921 276.785 152.291C277.337 152.045 277.756 151.635 278.334 151.425C279.175 151.119 279.991 150.777 280.854 150.52C281.749 150.254 282.255 150.039 283.192 150.039C283.959 150.039 284.774 149.961 285.53 150.078C286.549 150.234 287.626 150.559 288.648 150.559C289.172 150.559 289.522 151.003 289.956 151.251C291.418 152.087 292.936 152.73 294.276 153.772C294.756 154.146 295.408 154.376 295.834 154.802C296.33 155.297 296.78 155.824 297.268 156.312C297.83 156.874 298.264 158.279 298.519 159.045" stroke="white" stroke-width="1.91907" stroke-linecap="round"/>
<path d="M290.726 156.793C291.712 156.793 292.511 156.85 293.458 157.178C294.781 157.636 296.55 158.044 297.73 158.794C297.881 158.891 298.668 159.625 298.692 159.006C298.746 157.585 298.925 156.438 299.288 155.052C299.797 153.109 300.25 151.01 300.25 149" stroke="white" stroke-width="1.91907" stroke-linecap="round"/>
<path d="M267 181.038C267 179.137 267.522 176.829 268.472 175.141C268.939 174.311 269.154 172.727 269.809 172.071C270.036 171.844 271.049 172.95 271.291 173.034C272.395 173.414 273.316 173.302 274.447 173.428C275.847 173.584 277.178 173.765 278.603 173.765" stroke="white" stroke-width="1.91907" stroke-linecap="round"/>
<path d="M187.027 228.644V227.322" stroke="white" stroke-width="2.24384" stroke-linecap="round"/>
<path d="M187.688 226.661C185.464 228.607 187.153 238.784 187.688 241.46" stroke="white" stroke-width="2.24384" stroke-linecap="round"/>
<path d="M198.921 227.322C198.921 222.456 199.62 237.033 200.243 241.858" stroke="white" stroke-width="2.24384" stroke-linecap="round"/>
<path d="M211.476 226C210.238 230.177 210.815 236.036 210.815 240.337" stroke="white" stroke-width="2.24384" stroke-linecap="round"/>
<path d="M223.369 226.661C223.369 231.843 222.791 235.536 223.369 240.737" stroke="white" stroke-width="2.24384" stroke-linecap="round"/>
<path d="M234.603 226V226.661" stroke="white" stroke-width="2.24384" stroke-linecap="round"/>
<path d="M234.603 226.661V241.198" stroke="white" stroke-width="2.24384" stroke-linecap="round"/>
<path d="M246.496 227.322C244.033 228.862 246.221 239.995 246.496 241.921" stroke="white" stroke-width="2.24384" stroke-linecap="round"/>
<path d="M257.729 227.322C256.053 232.35 256.636 237.478 256.408 242.719" stroke="white" stroke-width="2.24384" stroke-linecap="round"/>
<path d="M191.653 326.437C191.508 327.594 191.536 328.281 191.616 329.594C191.734 331.547 191.611 333.512 191.653 335.467C191.722 338.723 192.392 339.81 193.635 342.295" stroke="white" stroke-width="2.24384" stroke-linecap="round"/>
<path d="M206.189 326.237C203.415 331.208 204.113 334.343 205.529 339.652" stroke="white" stroke-width="2.24384" stroke-linecap="round"/>
<path d="M216.761 325.776C216.761 330.804 217.26 335.376 218.083 340.313" stroke="white" stroke-width="2.24384" stroke-linecap="round"/>
<path d="M232.173 326.412C229.516 330.064 231.93 339.352 233.281 342.956" stroke="white" stroke-width="2.24384" stroke-linecap="round"/>
<path d="M243.853 328.419C243.853 332.349 245.313 335.932 246.496 339.652" stroke="white" stroke-width="2.24384" stroke-linecap="round"/>
<path d="M261.033 327.097C260.387 331.865 260.649 336.175 261.033 340.973" stroke="white" stroke-width="2.24384" stroke-linecap="round"/>
<path d="M163.671 256.409C161.092 256.409 166.74 256.169 167.276 256.075C171.486 255.339 173.95 255.226 178.092 256.409" stroke="white" stroke-width="2.24384" stroke-linecap="round"/>
<path d="M164.872 268.426C163.913 269.523 169.798 268.262 170.514 268.159C174.328 267.615 176.471 268.048 179.894 269.628" stroke="white" stroke-width="2.24384" stroke-linecap="round"/>
<path d="M164.872 282.406C169.251 280.845 176.11 282.538 179.894 281.204" stroke="white" stroke-width="2.24384" stroke-linecap="round"/>
<path d="M166.54 294.998C167.662 295.385 170.467 294.998 172.15 294.998C176.638 294.998 176.692 295.089 181.176 295.986" stroke="white" stroke-width="2.24384" stroke-linecap="round"/>
<path d="M166.074 309.285C170.315 308.368 176.13 308.543 180.335 309.285" stroke="white" stroke-width="2.24384" stroke-linecap="round"/>
<path d="M164.872 321.303C169.973 321.248 174.849 320.582 179.894 321.303" stroke="white" stroke-width="2.24384" stroke-linecap="round"/>
<path d="M271.488 315.467C271.812 316.331 277.98 315.979 278.938 316.037C280.301 316.119 282.811 316.259 284 315.467" stroke="white" stroke-width="2.24384" stroke-linecap="round"/>
<path d="M272.129 304.238C270.323 304.238 275.708 303.692 277.512 303.614C279.603 303.523 281.405 304.228 283.358 304.879" stroke="white" stroke-width="2.24384" stroke-linecap="round"/>
<path d="M271.968 292.688C276.18 292.337 278.808 291.091 283.038 291.725" stroke="white" stroke-width="2.24384" stroke-linecap="round"/>
<path d="M272.129 282.421C275.429 281.3 278.975 281.099 282.396 280.496" stroke="white" stroke-width="2.24384" stroke-linecap="round"/>
<path d="M271.488 268.625C268.37 268.625 277.696 268.031 280.792 267.663" stroke="white" stroke-width="2.24384" stroke-linecap="round"/>
<path d="M269.196 255.17C268.917 255.201 270.251 254.37 270.251 254.725C270.251 255.199 272.177 254.774 272.373 254.745C275.992 254.213 279.239 254.042 282.708 255.28" stroke="white" stroke-width="2.24384" stroke-linecap="round"/>
<path d="M213.109 273.658C212.226 274.149 211.797 269.879 213.86 271.941C214.636 272.718 215.04 273.975 215.04 273.39C215.04 272.803 214.751 268.607 213.484 270.76C212.836 271.862 212.307 272.435 212.035 273.766C211.989 273.993 211.545 277.054 212.035 276.073C212.592 274.959 212.551 271.436 214.075 271.056C214.697 270.9 214.491 276.769 214.799 277.2C215.078 277.591 214.883 271.005 214.45 271.726C213.548 273.229 212.32 277.857 215.04 275.59" stroke="white" stroke-width="2.24384" stroke-linecap="round"/>
<path d="M230.496 276.541C228.959 276.349 230.906 271.846 231.462 271.228C233.323 269.161 233.452 274.545 232.91 275.629C232.546 276.357 232.91 274.001 232.91 273.187C232.91 272.314 232.919 271.446 232.428 272.892C231.831 274.647 230.298 280.032 231.945 275.092" stroke="white" stroke-width="2.24384" stroke-linecap="round"/>
<path d="M197.093 251.841L197.435 249.449" stroke="#62686D" stroke-width="2.24384" stroke-linecap="round"/>
<path d="M182.398 245.007C181.135 245.081 181.611 245.781 181.126 246.639C180.651 247.48 178.872 249.424 179.816 249.222C180.436 249.089 181.475 247.745 181.943 247.361C182.28 247.084 186.472 243.335 185.911 245.083C184.913 248.188 182.007 250.508 180.993 253.55C180.381 255.386 183.906 250.998 185.284 249.639C186.76 248.184 188.292 246.764 190.012 245.595C192.827 243.681 188.425 249.834 188.132 250.247C186.519 252.517 184.786 254.826 183.575 257.348C182.736 259.096 185.125 257.066 185.36 256.816C187.405 254.64 189.139 252.178 191.17 249.981C191.716 249.39 194.997 245.956 193.714 249.127C190.781 256.373 183.772 261.692 181.202 269.081C180.403 271.378 184.202 266.724 184.259 266.651C186.276 264.056 188.333 261.473 190.258 258.81C191.698 256.818 192.932 254.61 194.549 252.753C195.803 251.314 195.278 253.133 194.929 253.892C191.791 260.729 187.39 266.823 183.518 273.239C183.416 273.409 179.908 279.455 180.386 279.523C181.868 279.735 185.482 273.009 186.1 272.081C188.196 268.937 190.363 265.871 192.689 262.892C193.269 262.148 194.72 259.659 195.84 259.455C196.135 259.402 193.78 265.984 193.676 266.233C191.769 270.814 189.435 275.21 187.202 279.637C185.421 283.168 183.369 286.583 181.753 290.194C181.284 291.24 180.848 292.643 181.999 290.934C186.21 284.685 189.273 277.488 194.094 271.663C194.604 271.046 195.481 270.2 195.119 271.682C194.444 274.442 193.032 277.058 191.891 279.637C189.69 284.613 187.354 289.585 185.569 294.731C184.931 296.571 184.388 298.442 184.449 300.408C184.497 301.964 185.779 299.212 185.873 299.022C187.593 295.52 189.596 292.238 191.967 289.13C192.312 288.678 197.622 283.005 196.106 286.131C192.344 293.885 189.208 301.757 186.651 310.015C186.119 311.732 185.379 313.549 185.189 315.35C184.982 317.315 186.644 311.67 187.524 309.901C189.575 305.78 192.096 300.925 195.385 297.636C196.462 296.559 195.673 298.177 195.442 298.699C194.104 301.721 192.447 304.559 190.828 307.433C187.692 312.999 184.547 318.613 181.848 324.407C180.781 326.697 181.592 325.624 182.36 324.369C185.851 318.661 188.501 312.687 192.499 307.281C192.983 306.627 193.63 305.328 194.492 305.041C194.874 304.914 193.474 308.812 193.448 308.876C191.653 313.233 189.391 317.386 187.695 321.786C187.665 321.866 186.399 326.726 187.069 325.925C189.508 323.009 190.966 318.74 192.841 315.464C194.662 312.282 196.606 309.367 198.992 306.598C199.582 305.913 200.025 305.352 199.562 306.712C198.536 309.72 196.978 312.533 195.802 315.483C194.61 318.478 193.106 322.106 193.106 325.394C193.106 327.49 195.104 324.598 195.385 324.293" stroke="#62686D" stroke-width="2.24384" stroke-linecap="round"/>
<path d="M201.878 309.939C201.258 309.319 201.237 311.573 200.966 312.407C200.021 315.321 198.714 318.245 198.043 321.235C197.979 321.518 197.734 323.195 198.555 322.375C201.405 319.525 203.343 315.24 205.561 311.913C205.758 311.618 210.886 303.793 209.51 308.42C208.522 311.745 206.526 314.932 205.143 318.103C204.412 319.78 202.55 324.278 204.213 323.514C206.382 322.517 207.901 318.785 209.073 316.945C210.892 314.09 212.675 310.978 215.054 308.534C215.36 308.219 216.653 306.946 216.497 308.23C216.17 310.926 214.767 313.721 213.687 316.166C212.648 318.52 211.208 320.818 210.497 323.305C209.606 326.424 211.064 325.895 212.624 323.893C214.721 321.203 216.363 318.185 218.396 315.445C218.978 314.66 222.67 308.903 224.186 309.369C225.542 309.786 214.394 333.384 224.889 318.369C226.941 315.432 229.024 311.869 231.952 309.673C233.165 308.763 232.067 311.018 231.971 311.249C230.592 314.541 228.689 317.683 227.737 321.14C227.501 321.995 227.189 324.389 227.851 323.799C229.683 322.164 230.816 318.95 232.009 316.888C233.987 313.468 236.148 310.099 238.863 307.205C240.388 305.579 240.183 307.844 239.85 308.875C238.484 313.104 234.887 317.526 234.8 322.09C234.737 325.355 237.4 320.696 237.648 320.305C239.129 317.97 240.749 315.797 242.546 313.698C243.253 312.872 244.239 311.454 245.394 311.192C246.647 310.907 245.029 313.778 244.464 314.932C243.093 317.729 238.864 325.993 240.723 323.495C244.559 318.34 247.1 312.37 251.109 307.319C251.186 307.221 256.099 301.188 256.748 302.382C257.571 303.899 254.043 308.457 253.444 309.502C251.926 312.148 250.413 314.799 249.02 317.514C248.033 319.438 245.432 323.162 245.925 325.431C246.287 327.096 248.048 322.747 248.868 321.254C252.18 315.234 255.892 309.452 260.051 303.977C262.191 301.161 264.508 298.44 267.114 296.041C269.434 293.904 267.982 296.593 267.285 297.939C263.289 305.655 258.188 312.755 254.203 320.476C254.071 320.733 253.191 322.785 253.216 322.754C254.515 321.196 255.486 319.073 256.596 317.381C258.649 314.252 260.707 311.153 263.051 308.23C263.523 307.641 265.113 305.73 265.671 305.078C266.183 304.48 266.971 302.684 267.323 303.388C267.705 304.153 265.452 307.266 265.101 307.888C263.493 310.739 261.988 313.646 260.469 316.546C259.803 317.817 258.549 319.503 258.323 320.97C258.061 322.678 260.538 318.313 261.57 316.926C263.205 314.727 268.109 308.239 266.981 310.736C265.537 313.933 263.484 316.901 261.722 319.925C261.405 320.469 259.176 323.507 259.88 324.368C260.511 325.139 264.988 319.682 265.519 319.242C266.773 318.203 267.435 317.772 267.19 319.489C266.98 320.955 267.731 322.27 268.177 323.609" stroke="#62686D" stroke-width="2.24384" stroke-linecap="round"/>
<path d="M258.95 247.399C256.547 250.816 253.356 254.708 252.001 258.714C251.493 260.217 253.179 258.972 253.52 258.562C254.927 256.874 255.927 254.936 256.406 252.791C256.901 250.575 257.584 248.754 258.931 246.867C259.78 245.678 261.297 244.114 260.583 246.639C259.725 249.674 257.879 252.541 256.444 255.316C254.884 258.333 253.238 261.349 251.925 264.486C251.9 264.545 250.248 268.04 252.115 266.897C254.522 265.424 255.935 262.437 257.355 260.119C259.67 256.342 262.117 252.64 264.817 249.126C265.115 248.739 267.503 244.996 268.367 245.158C268.422 245.168 262.44 255.53 262.14 256.018C259.547 260.226 256.715 264.432 254.792 269.005C254.764 269.072 252.746 275.162 254.318 273.637C256.386 271.63 257.532 268.15 258.817 265.644C260.26 262.831 261.751 259.979 263.735 257.499C264.432 256.627 265.479 255.627 264.646 257.575C263.239 260.869 261.283 263.997 259.653 267.182C257.064 272.241 253.957 277.403 252.495 282.941C252.319 283.606 251.483 287.304 252.514 287.82C252.88 288.003 262.426 270.918 263.697 268.986C264.29 268.084 265.345 265.719 266.469 265.245C266.821 265.097 264.438 270.939 264.38 271.055C262.034 275.804 259.723 280.542 257.583 285.39C255.955 289.078 253.985 292.89 253.292 296.914C252.852 299.474 254.715 295.854 254.887 295.547C257.563 290.779 260.268 285.873 263.849 281.706C263.945 281.594 266.837 278.512 267.076 278.991C267.671 280.181 264.704 284.589 264.285 285.409C262.259 289.374 259.583 293.572 258.76 298.015C258.22 300.932 259.997 299.741 261.684 299.003" stroke="#62686D" stroke-width="2.24384" stroke-linecap="round"/>
<path d="M200.852 244.323C197.519 243.833 195.447 251.762 195.745 254.594C195.805 255.161 196.191 254.201 196.22 254.158C197.317 252.488 198.632 250.929 199.922 249.411C199.979 249.344 206.768 241.97 206.7 244.437C206.616 247.489 203.964 250.81 202.713 253.474C202.273 254.411 201.275 256.067 201.365 257.195C201.511 259.016 204.06 254.707 205.181 253.265C207.68 250.052 209.907 246.511 212.662 243.506C212.89 243.257 212.511 244.173 212.358 244.475C210.931 247.287 209.656 250.151 208.523 253.094C208.418 253.366 206.825 258.976 207.308 258.638C210.631 256.312 212.989 251.808 215.282 248.576C215.975 247.599 219.089 242.924 217.693 247C216.853 249.454 214.644 253.069 214.826 255.714C214.872 256.384 216.191 255.351 216.649 254.86C218.587 252.782 220.284 250.462 222.041 248.234C222.07 248.196 226.912 242.21 225.895 244.949C224.797 247.904 223.212 250.671 222.193 253.664C222.014 254.19 221.735 255.081 222.572 254.29C224.255 252.702 225.619 250.723 227.053 248.917C227.779 248.004 229.258 245.438 230.528 245.12C231.363 244.911 229.198 248.546 229.066 248.804C228.773 249.372 226.788 255.449 227.585 255.107C228.741 254.612 230.004 252.421 230.661 251.575C232.273 249.5 233.881 247.45 235.787 245.633C240.583 241.06 233.584 256.485 233.964 256.664C235.305 257.295 238.188 252.342 238.711 251.613C239.852 250.023 240.982 248.419 242.337 247C242.604 246.72 243.379 246.01 243.324 246.392C242.988 248.743 241.263 250.93 240.211 252.999C239.856 253.696 238.805 255.196 239.584 255.259C240.816 255.359 242.933 251.781 243.533 251.006C244.974 249.144 246.252 247.082 247.938 245.424C249.356 244.029 249.967 244.785 249.286 246.487C248.022 249.647 245.622 252.238 244.425 255.43C244.308 255.743 243.715 257.675 244.938 256.702C246.815 255.208 248.158 252.966 249.761 251.196C251.264 249.536 253.894 247.085 256.387 247.797C257.866 248.22 252.077 255.823 251.773 256.284" stroke="#62686D" stroke-width="2.24384" stroke-linecap="round"/>
<path d="M199.447 261.905C199.227 259.926 199.447 265.387 199.447 265.983C199.447 270.106 199.115 274.377 199.536 278.483C200.261 285.552 200.097 292.785 200.245 299.892C200.276 301.398 200.644 302.848 200.644 304.391C200.644 306.845 201.353 306.093 203.658 305.876C210.584 305.224 217.83 306.187 224.801 306.187C228.495 306.187 232.116 307.383 235.75 307.383C238.615 307.383 241.544 307.248 244.349 307.871C245.372 308.098 248.976 308.276 248.826 307.206C248.201 302.739 248.046 298.169 248.604 293.642C249.771 284.177 249.713 274.47 249.713 264.919C249.713 263.427 250.112 262.001 250.112 260.531C250.112 259.517 250.503 259.464 249.225 259.511C247.582 259.572 245.992 259.91 244.305 259.91C242.071 259.91 240.056 258.815 237.833 258.713C235.889 258.625 234.019 257.916 232.049 257.916C229.245 257.916 226.264 258.187 223.472 257.827C219.718 257.343 215.92 257.556 212.213 258.403C209.91 258.93 206.944 259.383 204.633 259.511C202.295 259.641 200.751 258.265 199.048 260.309" stroke="white" stroke-width="2.24384" stroke-linecap="round"/>
<path d="M179.038 242.124C178.082 244.72 179.038 248.848 179.038 251.621C179.038 258.099 178.747 264.653 179.173 271.12C180.055 284.528 182.587 298.502 181.388 311.996C181.306 312.916 178.603 329.649 179.374 329.649C180.328 329.649 181.785 328.382 182.529 327.904C185.642 325.903 190.345 326.486 193.939 325.957C199.061 325.204 203.209 325.858 208.303 326.058C212.976 326.241 217.599 325.172 222.264 325.622C232.631 326.621 243.062 326.153 253.442 326.729C257.081 326.931 260.196 326.886 263.745 326.226C266.148 325.779 268.577 327.005 270.859 326.561C273.124 326.121 272.708 325.07 272.37 323.038C271.535 318.027 271.464 313.002 271.464 307.935C271.464 297.321 271.343 286.779 270.826 276.187C270.456 268.608 269.047 261.189 269.047 253.601C269.047 251.132 270.493 244.54 267.235 244.54C262.414 244.54 257.815 243.652 253.039 243.298C240.428 242.364 227.825 241.074 215.149 240.915C211.044 240.864 206.997 241.392 202.9 241.553C199.526 241.685 195.913 242.985 192.563 242.694C187.535 242.257 181.319 241.587 176.622 243.936" stroke="white" stroke-width="2.24384" stroke-linecap="round"/>
<path d="M210.773 287.728C210.496 287.697 210.186 287.331 210.462 287.486C211.421 288.026 212.086 289.248 213.095 289.86C215.721 291.451 218.929 291.187 221.863 291.159C225.12 291.128 228.262 290.508 231.376 289.6C232.147 289.375 238.551 287.325 236.349 285.857" stroke="white" stroke-width="2.24384" stroke-linecap="round"/>
<path d="M212.021 289.6C211.121 289.825 212.769 293.013 213.165 293.481C214.514 295.076 216.345 296.198 218.328 296.774C220.262 297.335 222.207 297.65 224.116 298.264C224.857 298.502 226.292 298.474 227.009 298.16C228.949 297.311 230.84 296.572 232.103 294.746C233.334 292.969 233.359 290.532 235.101 289.288" stroke="white" stroke-width="2.24384" stroke-linecap="round"/>
<path d="M632.484 311.451C632.484 309.506 631.256 299.574 632.713 298.653C634.715 297.389 640.855 298.579 643.158 298.539C649.051 298.436 657.799 297.268 662.21 292.857C664.545 290.523 663.907 287.282 663.989 284.307C664.041 282.457 665.199 282.528 666.686 282.528C670.106 282.528 673.654 282.688 676.5 280.462C680.73 277.151 681.033 270.96 681.033 266" stroke="white" stroke-width="1.92215" stroke-linecap="round"/>
<path d="M515.312 247.129C512.644 244.661 509.976 242.193 507.308 239.725C502.163 234.965 499.267 228.311 497.587 221.585C496.951 219.043 495.474 215.157 497.202 212.747C498.85 210.449 500.944 209.453 503.645 210.304C506.064 211.066 511.738 214.752 512.175 217.647C512.653 220.823 507.506 221.765 505.356 221.384C496.646 219.843 486.599 209.524 487.157 200.367C487.436 195.779 489.243 191.498 489.949 187.08" stroke="white" stroke-width="1.92215" stroke-linecap="round"/>
<path d="M397.077 312.781C397.975 315.143 398.745 317.475 400.136 319.5C400.99 320.745 400.475 320.332 400.671 319.251C400.834 318.349 400.577 316.775 400.306 315.909C399.967 314.821 399.227 314.166 398.427 313.351C398.145 313.063 396.937 312.797 397.206 312.524" stroke="white" stroke-width="1.92215" stroke-linecap="round"/>
<path d="M414.682 306.105C415.319 307.78 415.956 309.454 416.593 311.129C416.775 311.608 416.833 311.622 417.329 311.701C417.629 311.749 418.032 312.684 417.923 312.398C417.152 310.37 416.437 308.591 416.251 306.455C416.188 305.731 416.368 305.806 415.92 305.741C415.506 305.68 415.278 305.388 414.84 305.406" stroke="white" stroke-width="1.92215" stroke-linecap="round"/>
<path d="M401.321 332.616C402.663 336.144 408.136 338.662 411.794 339.285C415.027 339.835 417.7 338.867 420.821 337.68C425.223 336.006 426.834 333.192 429.671 329.65C431.208 327.73 429.071 320.2 428.064 322.445" stroke="white" stroke-width="1.92215" stroke-linecap="round"/>
<path d="M1091 333.698C1095.26 333.698 1099.52 333.698 1103.78 333.698C1106.57 333.698 1115.99 332.05 1118.12 334.18C1122.56 338.613 1117.61 354.584 1109.99 349.309C1103.35 344.717 1104.91 333.301 1109.62 328.274C1117.51 319.86 1127.98 317.374 1137.65 312" stroke="white" stroke-width="1.91907" stroke-linecap="round"/>
<path d="M858.929 301.996C863.068 303.067 866.869 304.052 870.804 305.922" stroke="white" stroke-width="2.3269" stroke-linecap="round"/>
<path d="M906.82 240.598C905.658 241.24 904.885 242.46 904.333 243.62C902.642 247.178 901.355 250.925 899.66 254.49C894.399 265.559 887.189 275.548 881.695 286.504C878.809 292.258 876.213 298.001 872.794 303.475C870.428 307.263 868.973 311.505 866.718 315.347C866.52 315.685 864.613 318.5 864.917 318.487C865.635 318.457 866.852 319.93 867.308 320.339C869.698 322.481 871.943 324.033 875.138 324.777C880.36 325.994 886.147 326.909 891.045 329.237C892.092 329.735 896.261 333.017 895.889 332.554" stroke="white" stroke-width="2.3269" stroke-linecap="round"/>
<path d="M894.432 332.095C892.435 332.897 894.144 330.564 894.635 329.532C897.681 323.123 900.256 316.485 903.036 309.959C908.131 298 913.729 286.16 919.312 274.414C922.648 267.396 926.506 259.978 930.955 253.601C931.316 253.083 936.529 245.246 934.878 245.409C931.871 245.704 929.332 244.698 926.606 243.402C924.421 242.364 921.511 242.378 919.553 241.028C917.769 239.797 916.737 239.456 914.599 239.223C913.403 239.092 910.593 238.198 909.701 237.537C909.072 237.07 908.833 236.484 908.016 236.216C907.123 235.923 905.791 239.828 905.468 240.507" stroke="white" stroke-width="2.3269" stroke-linecap="round"/>
<path d="M932.193 252.659C935.624 254.29 938.627 255.718 942 257.321" stroke="white" stroke-width="2.3269" stroke-linecap="round"/>
<path d="M927.462 258.998C931.454 258.448 934.639 260.849 937.875 262.387" stroke="white" stroke-width="2.3269" stroke-linecap="round"/>
<path d="M924.132 266.003C927.435 267.573 930.594 269.075 933.939 270.665" stroke="white" stroke-width="2.3269" stroke-linecap="round"/>
<path d="M921.468 271.607C924.794 273.188 928.483 273.656 931.941 274.868" stroke="white" stroke-width="2.3269" stroke-linecap="round"/>
<path d="M926.13 261.8C928.736 263.039 932.872 265.005 935.937 266.462" stroke="white" stroke-width="2.3269" stroke-linecap="round"/>
<path d="M918.804 277.212C922.74 277.552 925.324 278.593 929.277 280.473" stroke="white" stroke-width="2.3269" stroke-linecap="round"/>
<path d="M917.297 281.648C914.453 280.296 924.812 285.221 926.613 286.077" stroke="white" stroke-width="2.3269" stroke-linecap="round"/>
<path d="M914.142 287.019C917.57 288.649 920.888 289.45 924.615 290.28" stroke="white" stroke-width="2.3269" stroke-linecap="round"/>
<path d="M912.144 291.222C915.411 292.775 918.628 294.304 921.951 295.884" stroke="white" stroke-width="2.3269" stroke-linecap="round"/>
<path d="M908.814 298.227C912.237 299.314 916.069 299.958 919.287 301.488" stroke="white" stroke-width="2.3269" stroke-linecap="round"/>
<path d="M906.816 302.43C910.117 303.999 913.277 305.501 916.623 307.092" stroke="white" stroke-width="2.3269" stroke-linecap="round"/>
<path d="M904.818 306.633C905.076 309.128 911.573 311.44 914.006 312.597" stroke="white" stroke-width="2.3269" stroke-linecap="round"/>
<path d="M900.591 313.212C897.541 311.762 909.241 317.324 911.295 318.3" stroke="white" stroke-width="2.3269" stroke-linecap="round"/>
<path d="M899.559 321.309C902.303 321.288 905.842 322.939 908.631 323.904" stroke="white" stroke-width="2.3269" stroke-linecap="round"/>
<path d="M896.895 326.914C898.666 327.521 902.706 328.403 904.566 328.843" stroke="white" stroke-width="2.3269" stroke-linecap="round"/>
<path d="M857.617 309.957C854.546 308.497 863.753 313.023 867.473 312.928" stroke="white" stroke-width="2.3269" stroke-linecap="round"/>
<path d="M860.399 306.13C860.868 306.352 867.379 309.447 868.806 310.126" stroke="white" stroke-width="2.3269" stroke-linecap="round"/>
<path d="M864.4 297.718C864.284 297.663 870.561 300.868 873.467 300.318" stroke="white" stroke-width="2.3269" stroke-linecap="round"/>
<path d="M867.059 292.119C867.325 292.245 873.743 295.296 875.465 296.115" stroke="white" stroke-width="2.3269" stroke-linecap="round"/>
<path d="M869.723 286.515L878.129 290.511" stroke="white" stroke-width="2.3269" stroke-linecap="round"/>
<path d="M871.721 282.312C874.568 283.665 877.201 284.917 880.127 286.308" stroke="white" stroke-width="2.3269" stroke-linecap="round"/>
<path d="M874.385 276.708L882.791 280.704" stroke="white" stroke-width="2.3269" stroke-linecap="round"/>
<path d="M877.044 272.436C874.181 271.707 883.716 276.272 886.856 275.766" stroke="white" stroke-width="2.3269" stroke-linecap="round"/>
<path d="M879.047 266.901C881.597 268.113 886.926 270.646 888.854 271.563" stroke="white" stroke-width="2.3269" stroke-linecap="round"/>
<path d="M883.112 261.963C886.412 263.531 889.492 264.996 892.919 266.625" stroke="white" stroke-width="2.3269" stroke-linecap="round"/>
<path d="M882.974 255.027C884.379 255.695 891.415 259.039 895.584 261.021" stroke="white" stroke-width="2.3269" stroke-linecap="round"/>
<path d="M889.841 251.42C892.513 252.691 895.5 254.111 898.247 255.416" stroke="white" stroke-width="2.3269" stroke-linecap="round"/>
<path d="M890.369 243.083C892.03 246.772 897.855 247.892 901.093 249.431" stroke="white" stroke-width="2.3269" stroke-linecap="round"/>
<path d="M894.469 239.879C897.343 241.459 900.759 243.168 902.909 245.609" stroke="white" stroke-width="2.3269" stroke-linecap="round"/>
<path d="M895.766 235.343C899.128 236.942 902.276 238.438 905.573 240.005" stroke="white" stroke-width="2.3269" stroke-linecap="round"/>
<path d="M763.192 162C763.613 164.017 762.188 166.286 761.722 168.214C760.925 171.51 760.353 174.862 759.488 178.139C759.044 179.822 758.527 181.541 757.758 183.11C757.542 183.552 756.905 184.914 757.01 185.417C757.013 185.43 761.169 182.085 761.714 181.363C762.627 180.152 763.933 179.589 764.98 178.684C765.561 178.183 764.752 179.853 764.651 180.136C764.257 181.239 763.597 182.344 763.446 183.529C763.114 186.142 762.613 188.692 762.06 191.296C761.535 193.773 760.854 196.246 760.475 198.763C760.31 199.86 760.086 203.119 759.859 202.034" stroke="white" stroke-width="1.91907" stroke-linecap="round"/>
</svg>
