<svg width="530" height="714" viewBox="0 0 530 714" fill="none" xmlns="http://www.w3.org/2000/svg">
<path d="M453.633 84.8326C453.26 86.7835 454.425 84.9177 454.62 86.654C454.929 89.3968 458.784 82.4599 457.7 87.1936C457.301 88.9353 459.062 86.6918 459.364 86.3409C460.539 84.9757 459.506 87.0634 459.664 87.7012C459.922 88.7391 462.153 84.6001 462.147 85.6695C462.143 86.2855 461.041 89.124 462.429 87.8177C462.592 87.6639 463.42 86.6149 463.664 87.0481C464.026 87.6889 464.391 86.5072 464.753 86.5307C464.934 86.5424 464.204 88.7089 464.16 88.9404C464.119 89.1557 465.5 87.2731 465.771 87.0717C465.905 86.9715 465.397 89.1099 465.443 89.3013C465.703 90.3716 466.676 85.8145 467.403 86.6418C467.849 87.1488 466.485 90.1029 468.185 88.2426C469.147 87.1908 469.857 85.4818 469.606 87.8876C469.448 89.3958 469.277 89.4795 470.249 88.1427C470.808 87.3749 472.123 85.7625 471.733 87.7998C471.638 88.2964 470.65 90.969 471.92 89.5835C472.33 89.136 475.086 85.3302 474.306 87.7972C474.191 88.1611 473.055 91.1901 474.27 89.5384C474.499 89.227 475.71 86.6807 475.722 88.068C475.733 89.3467 475.795 89.5279 476.822 88.5258C478.261 87.1212 477.839 88.3691 477.514 89.6477C476.971 91.7858 478.247 89.7229 478.751 89.0432C479.754 87.6927 479.122 89.526 479.034 90.1527C478.85 91.4575 480.148 89.5485 480.335 89.2967C481.11 88.2572 480.665 89.6864 480.96 90.2572C481.263 90.8438 482.151 89.5762 482.376 89.4066C482.964 88.962 483.146 90.4417 483.448 90.7001C484.245 91.3828 484.923 89.6496 485.023 91.4301" stroke="#CFCFCF" stroke-width="1.12937" stroke-linecap="round"/>
<path d="M437.091 82.856C437.513 80.6499 436.58 82.6186 436.741 83.4816C436.779 83.6895 437.827 82.224 437.962 82.099C438.459 81.6363 438.507 84.3472 438.52 84.6134C438.535 84.9353 439.71 80.5125 439.666 84.1399C439.659 84.7184 440.768 84.4497 441.509 84.5914" stroke="#CFCFCF" stroke-width="1.12937" stroke-linecap="round"/>
<path d="M446.352 82.5494C446.34 82.5866 445.72 84.0908 445.931 84.2334C446.084 84.3369 446.373 83.7725 446.599 84.0149C447.31 84.7772 446.463 87.0087 447.714 84.7394C449.543 81.4214 447.549 88.1092 449.405 85.2112" stroke="#CFCFCF" stroke-width="1.12937" stroke-linecap="round"/>
<path d="M445.906 77.121C445.661 78.4005 445.47 79.1715 446.49 77.7769C446.943 77.1574 446.257 80.6806 447.199 79.7595C447.722 79.2487 448.329 77.3841 448.904 78.519C449.213 79.1287 449.357 77.6999 449.397 77.4919" stroke="#CFCFCF" stroke-width="1.12937" stroke-linecap="round"/>
<path d="M437.698 73.4735C438 73.0101 438.71 73.0918 439.279 73.314C440.004 73.597 439.599 74.7971 440.063 75.08C440.761 75.5062 440.688 72.4853 441.338 72.9822C441.553 73.1468 440.879 75.3216 440.9 75.702C440.917 76.011 441.941 74.4646 442.108 74.3004C442.229 74.1814 442.185 77.0782 442.975 75.3732" stroke="#CFCFCF" stroke-width="1.12937" stroke-linecap="round"/>
<path d="M441.169 64.6383C440.703 65.3095 439.843 68.7888 440.41 67.742C441.476 65.7785 440.459 69.0885 441.128 68.0441C441.511 67.4451 441.958 65.428 442.071 66.1302C442.232 67.1313 441.453 68.9115 442.197 69.7823C442.323 69.9299 443.135 66.7727 443.241 66.222" stroke="#CFCFCF" stroke-width="1.12937" stroke-linecap="round"/>
<path d="M439.523 59.2773C440.287 61.0047 441.574 61.733 442.739 60.1398C443.089 59.6613 442.755 62.0154 443.1 62.3032C443.505 62.6417 443.78 60.7766 444.867 62.3773" stroke="#CFCFCF" stroke-width="1.12937" stroke-linecap="round"/>
<path d="M454.123 77.5098C454.051 78.1847 453.479 81.9731 454.179 80.5702C454.396 80.1369 454.704 80.0642 454.945 79.7135C455.422 79.0188 455.363 76.6956 455.876 77.3637C456.376 78.0139 455.315 82.3168 456.138 79.1392C456.295 78.533 455.949 82.4342 457.073 80.9632" stroke="#CFCFCF" stroke-width="1.12937" stroke-linecap="round"/>
<path d="M457.34 79.5695L457.904 80.3995" stroke="#CFCFCF" stroke-width="1.12937" stroke-linecap="round"/>
<path d="M462.484 79.1089C461.643 83.506 462.993 76.4496 462.14 80.9089C462.078 81.2324 462.152 79.3459 461.543 80.253C461.079 80.9449 460.252 83.199 461.123 80.8749C461.667 79.4241 462.228 80.4222 462.402 81.3202C462.511 81.8818 462.909 79.201 463.085 79.7454C463.41 80.7509 463.183 82.3751 463.852 80.4539C464.7 78.0183 464.92 81.0859 465.153 82.1473" stroke="#CFCFCF" stroke-width="1.12937" stroke-linecap="round"/>
<path d="M470.63 79.9447C469.991 79.9805 469.664 82.3214 470.027 82.6782C470.525 83.1678 470.503 81.3596 470.838 80.7468C471.392 79.7324 471.743 80.9377 472.122 81.3737C472.617 81.9426 473.053 79.0144 473.32 81.8235C473.465 83.3464 473.863 78.552 474.462 80.6777" stroke="#CFCFCF" stroke-width="1.12937" stroke-linecap="round"/>
<path d="M478.576 81.8257C478.953 82.521 479.152 86.2193 479.548 84.2987C479.585 84.1166 479.988 82.1154 480.099 82.3578C480.198 82.572 480.035 83.6369 480.137 83.1073C480.625 80.5556 481.113 81.7811 480.752 83.6663C480.617 84.37 480.76 82.1098 481.233 81.5715C481.397 81.3845 482.03 84.0686 482.075 84.3006" stroke="#CFCFCF" stroke-width="1.12937" stroke-linecap="round"/>
<path d="M486.804 84.1217C486.906 83.5895 486.591 85.2067 486.675 85.7421C486.706 85.9455 487.157 84.1271 487.226 83.8012C487.319 83.3653 487.116 87.6875 488.245 84.5579C489.054 82.3171 488.845 85.5066 489.402 84.1771C490.015 82.7126 490.203 85.2549 490.851 85.6181" stroke="#CFCFCF" stroke-width="1.12937" stroke-linecap="round"/>
<path d="M496.329 83.1402C496.069 83.0905 495.577 82.8714 495.405 83.1407C495.088 83.6359 494.095 85.8157 494.781 84.0847C495.52 82.2198 495.029 85.5988 495.337 85.4822C495.791 85.3097 496.939 81.9846 496.942 83.5106C496.943 84.1643 496.837 84.8074 496.797 85.4577C496.757 86.1187 497.476 84.1576 497.5 84.0984C498.27 82.1726 497.858 83.7643 498.02 84.7549C498.061 85.004 498.312 84.3422 498.444 84.1271C498.741 83.6435 499.097 83.3069 499.214 84.0718C499.277 84.4856 499.26 85.6835 499.458 84.6501" stroke="#CFCFCF" stroke-width="1.12937" stroke-linecap="round"/>
<path d="M496.9 88.4903C496.504 89.4372 495.881 93.5032 496.927 90.7359C497.179 90.0667 497.565 91.6122 497.596 91.7373C497.905 93.01 497.698 93.635 498.281 91.9949C498.314 91.9012 498.828 90.3029 498.882 90.7048C498.987 91.4899 498.686 93.8127 498.985 93.079C499.057 92.9018 499.583 91.0411 499.692 91.1003C500.236 91.3939 500.147 93.3761 500.194 93.9052" stroke="#CFCFCF" stroke-width="1.12937" stroke-linecap="round"/>
<path d="M489.194 90.6619C489.047 88.8355 488.691 94.1395 489.329 91.1436C490.035 87.8312 489.87 93.5778 490.746 91.4779C490.838 91.2584 491.242 89.6224 491.431 90.4822C491.47 90.6613 491.999 92.4068 492.034 92.3571C492.57 91.586 492.123 91.0864 493.108 91.6385" stroke="#CFCFCF" stroke-width="1.12937" stroke-linecap="round"/>
<path d="M447.02 70.5189C447.053 71.2816 447.034 72.0364 447.027 72.7988C447.018 73.7478 447.339 70.9234 447.586 70.0069C447.6 69.9535 447.662 72.2427 447.831 72.7627C447.883 72.9221 448.585 70.3073 448.735 70.0241C449.037 69.4534 448.995 71.29 449.158 71.9152C449.282 72.3935 449.666 70.9483 449.692 71.106C449.802 71.7745 449.91 73.0402 450.228 71.6136C450.44 70.6646 450.204 71.7414 450.149 72.0288" stroke="#CFCFCF" stroke-width="1.12937" stroke-linecap="round"/>
<path d="M454.044 70.7233C453.901 71.4723 452.983 73.3986 453.614 72.9703C454.005 72.7052 454.084 71.0623 454.299 70.5821C454.579 69.9546 454.584 71.927 454.723 72.6C455.015 74.0109 455.45 72.2993 455.659 71.7411C455.845 71.2454 456.163 69.8897 456.238 71.2315C456.251 71.4562 456.166 73.7921 456.359 72.913C456.748 71.1457 456.828 71.1302 457.571 72.5371" stroke="#CFCFCF" stroke-width="1.12937" stroke-linecap="round"/>
<path d="M461.466 71.2315C461.48 71.5454 461.546 73.6898 461.747 73.3359C461.865 73.1288 463.101 70.4843 463.182 70.5977C463.683 71.2944 462.619 73.1669 463.267 73.7279C463.411 73.8528 464.428 71.8942 464.624 72.0632C464.743 72.167 464.48 74.7346 464.764 74.242C464.88 74.0408 465.499 72.0443 465.841 72.448C466.134 72.794 466.144 73.3449 466.712 73.3234C467.082 73.3094 467.101 73.3309 467.149 73.6855" stroke="#CFCFCF" stroke-width="1.12937" stroke-linecap="round"/>
<path d="M464.696 63.8744C464.596 64.7188 464.783 65.5865 465.132 66.3628C465.629 67.4721 465.92 65.7446 466.011 65.341C466.13 64.814 466.187 66.8105 466.294 67.1675C466.502 67.8596 467.044 65.3844 467.192 65.7188C467.449 66.3012 467.206 67.0291 467.608 65.925C467.695 65.686 468.15 64.6133 468.37 65.4504C468.424 65.6583 468.371 67.2256 468.787 66.91C469.188 66.6056 469.456 66.3806 469.939 66.2443" stroke="#CFCFCF" stroke-width="1.12937" stroke-linecap="round"/>
<path d="M455.661 64.6526C455.547 62.333 455.821 65.582 456.446 65.2458C456.635 65.1443 457.387 63.6442 457.438 63.7013C457.935 64.2564 457.695 65.4039 458.196 66.0236C458.391 66.2647 458.744 62.5439 459.426 64.6892C459.843 65.9998 459.756 63.6877 460.141 65.0538" stroke="#CFCFCF" stroke-width="1.12937" stroke-linecap="round"/>
<path d="M449.927 61.2772C449.649 60.9725 449.317 63.1663 449.287 63.4967C449.275 63.6289 449.66 62.5512 449.716 62.3763C449.94 61.6773 449.938 62.6951 450.203 62.8745C451.085 63.4697 451.191 60.1294 451.295 62.7288C451.363 64.4376 451.327 64.4248 452.092 63.0586" stroke="#CFCFCF" stroke-width="1.12937" stroke-linecap="round"/>
<path d="M473.63 71.9631C473.771 72.7917 473.861 75.5222 474.271 73.3769C474.439 72.5019 473.884 75.2338 473.837 75.1167C473.76 74.9251 473.069 72.6833 473.167 73.7227C473.334 75.4947 473.561 74.3561 474.229 73.5967C475.368 72.3024 474.573 75.997 475.151 75.925C476.248 75.7883 476.279 71.8594 476.355 75.3199C476.363 75.6556 476.504 74.019 476.874 74.3304C477.905 75.1977 476.696 77.8837 478.046 75.0862" stroke="#CFCFCF" stroke-width="1.12937" stroke-linecap="round"/>
<path d="M481.699 76.2406C481.866 76.5207 481.837 76.7111 481.776 77.0276C481.711 77.3657 482.148 75.8337 482.276 75.6042C482.606 75.0154 481.97 77.2287 482.525 77.6138C482.791 77.7987 483.604 74.9437 483.856 74.7545C484.478 74.2877 483.716 76.304 483.603 77.0732C483.378 78.594 484.37 76.3163 484.591 76.009C485.105 75.2942 484.905 77.42 484.909 77.5889C484.921 78.0041 486.319 76.1287 486.567 75.8046" stroke="#CFCFCF" stroke-width="1.12937" stroke-linecap="round"/>
<path d="M492.095 75.4947C491.838 76.2633 491.411 76.9659 491.135 77.729C490.648 79.0784 492.064 77.3993 492.308 77.1559C494.06 75.4124 492.323 79.8438 493.224 78.7234C493.826 77.9747 495.015 75.529 495.044 76.4891C495.072 77.44 494.371 78.3638 494.326 79.314C494.297 79.9317 495.264 78.4592 495.846 78.2502C496.381 78.0582 496.106 78.5857 496.028 78.7535" stroke="#CFCFCF" stroke-width="1.12937" stroke-linecap="round"/>
<path d="M498.496 69.4277C498.279 69.8885 497.167 71.2995 497.223 71.7159C497.296 72.2669 497.822 70.7777 498.079 70.2847C498.307 69.8475 498.289 68.8264 498.76 68.9719C498.822 68.9911 498.151 71.5055 498.201 71.498C498.571 71.4429 500.39 69.2096 500.042 70.078C497.739 75.8266 501.01 69.3166 501.504 70.1803C501.591 70.3328 501.343 71.1165 501.283 70.9356C501.11 70.4075 501.254 70.4924 501.143 71.0733" stroke="#CFCFCF" stroke-width="1.12937" stroke-linecap="round"/>
<path d="M489.441 67.9237C487.064 70.7002 490.562 67.626 490.4 68.474C490.336 68.8073 489.085 71.1442 489.708 70.3672C489.908 70.1183 491.362 68.2563 491.34 68.6539C491.298 69.3957 491.737 68.6565 492.02 68.3409C492.364 67.9574 492.948 66.7776 493.125 67.2611C493.256 67.6172 492.573 68.7876 492.46 69.0834C491.796 70.8303 492.351 69.6078 493.13 69.2874C493.466 69.1493 492.891 70.3089 492.842 70.3969" stroke="#CFCFCF" stroke-width="1.12937" stroke-linecap="round"/>
<path d="M480.972 68.1266C479.063 72.3242 482.007 67.5598 482.132 68.0193C482.298 68.6306 481.55 70.3139 481.881 70.7183C482.216 71.1268 482.511 69.8696 482.822 69.4424C483.2 68.9228 483.591 68.3807 484.038 67.9155C484.123 67.8263 482.63 71.4556 484.3 69.1935C484.646 68.7237 485.396 67.219 485.363 67.8019C485.339 68.2244 485.032 68.6216 485.494 68.308" stroke="#CFCFCF" stroke-width="1.12937" stroke-linecap="round"/>
<path d="M473.362 66.2155C472.981 68.5117 474.317 65.7828 473.707 67.7245C473.133 69.5508 475.074 64.3915 474.988 66.9821C474.947 68.2136 475.793 66.2457 476.011 65.9372C476.753 64.8833 476.226 66.6768 476.178 66.9819C475.986 68.1971 476.388 67.4766 476.925 67.1122C477.251 66.8907 477.305 67.9738 477.329 68.1134" stroke="#CFCFCF" stroke-width="1.12937" stroke-linecap="round"/>
<path d="M437.899 54.4108C436.825 61.1591 435.172 67.9136 434.415 74.7028C434.136 77.2059 433.874 79.6106 433.402 82.0793C433.283 82.7007 431.728 85.9941 432.131 86.1811C436.835 88.3609 442.266 88.3846 447.342 89.3556C453.975 90.6242 460.527 92.1424 467.157 93.4105C470.312 94.014 473.518 94.2153 476.686 94.7177C479.466 95.1584 482.31 95.7217 485.12 95.9036C488.283 96.1083 491.464 96.0049 494.632 96.147C496.8 96.2443 499.241 96.1332 501.344 96.7828C502.313 97.0822 501.898 95.2027 501.97 94.2809C502.22 91.0962 502.316 87.9293 502.352 84.7365C502.423 78.511 504.011 73.3684 506.351 67.6801C506.538 67.2248 506.777 66.5289 506.865 66.07C506.904 65.8648 506.453 66.161 506.244 66.1575C505.343 66.1423 504.427 66.1917 503.529 66.1094C497.415 65.5486 491.486 63.3743 485.366 62.8122C478.939 62.2219 472.416 61.7503 466.055 60.5915C462.551 59.9531 459.125 59.0009 455.647 58.3356C452.492 57.7323 449.48 56.6705 446.339 56.025C442.259 55.1866 441.951 55.1858 437.86 54.4033" stroke="black" stroke-width="1.12937" stroke-linecap="round"/>
<path d="M436.61 83.3262C433.479 82.7272 436.709 78.0214 439.571 79.5477C441.559 80.6075 443.622 83.0362 442.096 85.2887C441.042 86.8461 439.237 87.0256 437.882 85.7639C437.183 85.1137 436.235 83.9855 436.659 83.0704" stroke="black" stroke-width="1.12937" stroke-linecap="round"/>
<path d="M444.915 87.0353C443.99 85.6305 443.21 83.8345 444.051 82.157C444.778 80.7057 447.717 81.1699 448.82 81.8615C450.912 83.1728 450.822 85.8433 448.636 86.9813C445.705 88.5075 444.232 85.4878 444.065 83.1612" stroke="black" stroke-width="1.12937" stroke-linecap="round"/>
<path d="M452.493 83.4478C453.017 82.763 456.125 83.6122 456.811 83.7434C458.47 84.0606 460.038 84.2519 461.716 84.3575C464.544 84.5356 467.341 84.5598 470.162 84.7064C473.858 84.8984 477.339 85.5488 480.973 86.2439C482.884 86.6094 483.388 87.8643 484.933 88.7981C486.011 89.4499 486.918 89.7374 486.974 90.9854C487.065 93.02 485.539 93.0887 483.952 92.9258C481.928 92.7182 479.907 92.5702 477.865 92.4834C475.503 92.3829 473.18 92.0736 470.813 91.9299C469.862 91.8721 469.152 91.4059 468.237 91.2309C467.096 91.0128 466.041 90.9319 464.894 90.842C461.793 90.5986 458.617 90.1863 455.558 89.6013C454.145 89.331 451.305 88.5238 450.764 86.9463C450.341 85.7114 450.297 85.2291 450.554 83.8868C450.761 82.8052 454.037 82.3705 453.565 83.3877" stroke="black" stroke-width="1.12937" stroke-linecap="round"/>
<path d="M488.419 92.44C486.499 89.6128 490.555 86.7316 492.523 89.3073C493.43 90.4936 495.258 93.2644 492.566 93.7045C490.926 93.9727 489.399 93.2309 488.324 92.0096C487.318 90.8657 488.096 90.6166 489.115 90.1871" stroke="black" stroke-width="1.12937" stroke-linecap="round"/>
<path d="M495.422 93.2493C494.858 91.959 494.792 90.4283 495.769 89.2801C497.371 87.3951 499.355 89.052 500.504 90.6276C501.649 92.1997 501.425 94.158 499.448 94.9914C496.872 96.0776 495.585 92.2243 495.704 90.3871" stroke="black" stroke-width="1.12937" stroke-linecap="round"/>
<path d="M440.012 62.768C439.088 62.5344 438.116 60.8613 438.45 59.9214C439.115 58.0514 441.69 58.1291 443.077 58.9065C444.4 59.6479 446.887 62.0699 444.76 63.2785C443.387 64.0584 441.541 63.6934 440.143 63.1613C438.48 62.5286 438.601 61.8321 439.38 60.5264" stroke="black" stroke-width="1.12937" stroke-linecap="round"/>
<path d="M439.132 67.3715C437.97 67.0988 437.734 66.0383 438.614 65.1516C440.266 63.486 443.223 63.1949 444.241 65.6093C445.224 67.9423 443.653 71.5989 440.661 70.4625C438.087 69.4847 436.254 66.8215 438.342 64.5694" stroke="black" stroke-width="1.12937" stroke-linecap="round"/>
<path d="M437.261 75.7625C436.314 74.8141 435.815 73.0855 436.98 71.9972C438.521 70.5571 440.708 71.3167 442.299 72.2191C443.86 73.105 445.417 76.6846 442.848 77.5086C441.24 78.0244 439.106 77.0549 437.838 76.1378C436.495 75.1669 436.394 74.7542 436.678 73.2651" stroke="black" stroke-width="1.12937" stroke-linecap="round"/>
<path d="M445.859 77.9372C445.654 77.2092 444.738 75.7273 445.672 75.2208C447.478 74.2416 449.543 74.5872 450.674 76.325C452.35 78.8983 447.971 80.8876 445.917 80.7909C443.061 80.6563 445.569 77.0988 446.457 76.1959" stroke="black" stroke-width="1.12937" stroke-linecap="round"/>
<path d="M452.934 81.1461C452.046 79.4151 452.144 78.0675 454.024 76.9067C455.55 75.9651 458.74 77.5272 459.136 79.21C459.692 81.5715 455.895 82.8128 454.167 82.3982C453.223 82.1717 452.268 81.4553 451.969 80.4903C451.66 79.4912 452.826 78.837 453.472 78.3328" stroke="black" stroke-width="1.12937" stroke-linecap="round"/>
<path d="M460.595 81.2858C457.717 76.7663 465.418 76.5326 466.26 80.1601C467.503 85.517 455.166 83.6215 459.915 79.2999" stroke="black" stroke-width="1.12937" stroke-linecap="round"/>
<path d="M469.9 82.5354C468.943 81.6557 467.602 80.3296 469.243 79.3463C470.866 78.3736 473.896 78.2022 475.014 80.1262C477.216 83.9117 465.923 84.2862 469.012 80.2448" stroke="black" stroke-width="1.12937" stroke-linecap="round"/>
<path d="M477.512 82.9309C474.578 78.3147 483.178 78.2797 484.412 82.6601C485.564 86.7484 473.117 86.4246 478.257 80.4223" stroke="black" stroke-width="1.12937" stroke-linecap="round"/>
<path d="M484.989 85.4215C484.16 81.52 489.738 80.652 491.594 83.3856C493.053 85.5352 489.584 86.7874 487.921 86.8806C486.02 86.9872 484.355 85.2429 485.843 83.729" stroke="black" stroke-width="1.12937" stroke-linecap="round"/>
<path d="M494.038 86.6221C493.219 84.8419 493.066 83.5302 495.009 82.625C496.314 82.0172 499.41 81.1001 500.142 83.0471C502.045 88.109 492.393 88.6838 492.59 84.4895" stroke="black" stroke-width="1.12937" stroke-linecap="round"/>
<path d="M446.326 72.7243C445.592 71.6436 445.335 70.2296 446.033 69.0158C446.604 68.0251 450.23 68.4849 450.993 69.1102C452.793 70.5845 451.512 73.81 449.39 74.1057C447.442 74.3771 444.182 73.5959 445.291 71.2009" stroke="black" stroke-width="1.12937" stroke-linecap="round"/>
<path d="M453.427 73.0221C451.142 68.4334 457.248 67.1661 458.824 71.1382C459.895 73.8352 457.943 74.365 455.715 74.4611C454.767 74.502 453.706 74.5094 452.785 74.2247C451.825 73.9281 452.925 72.3425 453.111 71.9012" stroke="black" stroke-width="1.12937" stroke-linecap="round"/>
<path d="M461.709 74.076C460.194 73.7863 460.782 71.6745 461.523 70.8886C463.522 68.7674 466.451 70.3601 468.351 71.7674C473.605 75.6607 460.317 77.1914 461.137 72.9062" stroke="black" stroke-width="1.12937" stroke-linecap="round"/>
<path d="M471.781 75.4721C470.164 74.9724 473.146 72.1869 473.515 71.8714C475.154 70.4713 477.086 72.265 478.193 73.5173C479.822 75.3599 478.586 77.3842 476.113 77.4642C475.082 77.4975 470.539 75.7049 472.026 74.1933" stroke="black" stroke-width="1.12937" stroke-linecap="round"/>
<path d="M481.037 76.9774C479.415 76.6673 480.313 74.2983 481.349 73.6497C482.64 72.8418 485.841 73.7659 486.75 74.8299C488.534 76.9181 485.626 78.898 483.749 78.969C482.65 79.0105 481.779 78.7264 481.157 77.8105C480.61 77.0042 481.159 76.6838 481.744 76.0523" stroke="black" stroke-width="1.12937" stroke-linecap="round"/>
<path d="M490.853 78.3247C489.887 76.508 489.639 74.8601 492.19 74.3387C494.361 73.8949 496.666 74.4609 497.625 76.6449C498.961 79.6854 494.386 80.542 492.429 79.7896C491.145 79.2961 489.66 78.2625 489.247 76.8686C488.906 75.7194 490.505 75.278 491.233 74.951" stroke="black" stroke-width="1.12937" stroke-linecap="round"/>
<path d="M497.654 73.2629C497.095 72.1463 495.725 70.6515 496.705 69.3698C497.473 68.3653 500.671 66.8477 501.913 67.6266C503.507 68.6253 502.723 72.5269 501.126 73.1315C499.136 73.8842 495.477 72.9718 495.537 70.4719" stroke="black" stroke-width="1.12937" stroke-linecap="round"/>
<path d="M488.789 69.7117C488.105 69.4901 488.142 67.3159 488.911 67.0693C490.083 66.6934 491.173 66.7154 492.325 66.4703C493.86 66.144 495.27 69.2913 494.361 70.3797C493.044 71.9555 490.352 72.7546 488.659 71.1597C487.571 70.1343 486.263 68.7982 487.39 67.3232" stroke="black" stroke-width="1.12937" stroke-linecap="round"/>
<path d="M480.203 68.8646C480.589 66.8426 481.207 66.3317 483.254 66.0018C484.534 65.7954 486.5 66.1874 486.713 67.7828C487.319 72.3162 479.6 72.0174 480.398 67.8416" stroke="black" stroke-width="1.12937" stroke-linecap="round"/>
<path d="M472.541 68.7247C470.004 64.4702 477.398 63.5383 477.979 65.9354C478.368 67.5396 478.137 69.2514 476.47 69.7414C475.076 70.1516 471.547 69.7621 471.969 67.5549" stroke="black" stroke-width="1.12937" stroke-linecap="round"/>
<path d="M465.587 67.6598C463.541 67.2684 463.318 63.3942 465.49 62.9283C466.548 62.7015 469.472 63.2916 470.039 64.4022C472.36 68.9481 464.548 69.984 463.481 66.1965" stroke="black" stroke-width="1.12937" stroke-linecap="round"/>
<path d="M455.357 65.7031C453.828 64.2859 455.926 62.173 457.391 61.9977C459.114 61.7916 460.534 62.6313 461.051 64.2735C461.524 65.7773 460.319 67.0713 458.998 67.4598C457.195 67.99 456.022 66.4584 454.895 65.3495" stroke="black" stroke-width="1.12937" stroke-linecap="round"/>
<path d="M450.498 64.7737C446.539 65.6976 447.876 57.6969 451.758 60.1102C453.461 61.1688 453.471 62.4594 452.683 64.1312C451.184 67.309 448.587 64.0969 446.808 63.2727" stroke="black" stroke-width="1.12937" stroke-linecap="round"/>
<path d="M225.194 619.444V618.761" stroke="black" stroke-width="1.1601" stroke-linecap="round"/>
<path d="M225.536 618.419C224.386 619.426 225.26 624.687 225.536 626.07" stroke="black" stroke-width="1.1601" stroke-linecap="round"/>
<path d="M231.343 618.761C231.343 616.245 231.705 623.782 232.027 626.277" stroke="black" stroke-width="1.1601" stroke-linecap="round"/>
<path d="M237.834 618.078C237.194 620.237 237.493 623.266 237.493 625.49" stroke="black" stroke-width="1.1601" stroke-linecap="round"/>
<path d="M243.984 618.419C243.984 621.098 243.685 623.008 243.984 625.697" stroke="black" stroke-width="1.1601" stroke-linecap="round"/>
<path d="M249.792 618.078V618.419" stroke="black" stroke-width="1.1601" stroke-linecap="round"/>
<path d="M249.792 618.419V625.935" stroke="black" stroke-width="1.1601" stroke-linecap="round"/>
<path d="M255.941 618.761C254.667 619.557 255.799 625.313 255.941 626.309" stroke="black" stroke-width="1.1601" stroke-linecap="round"/>
<path d="M261.748 618.761C260.882 621.361 261.183 624.012 261.065 626.722" stroke="black" stroke-width="1.1601" stroke-linecap="round"/>
<path d="M227.586 670.005C227.511 670.604 227.526 670.959 227.567 671.637C227.628 672.647 227.564 673.663 227.586 674.674C227.622 676.357 227.968 676.919 228.611 678.204" stroke="black" stroke-width="1.1601" stroke-linecap="round"/>
<path d="M235.101 669.902C233.667 672.472 234.028 674.093 234.76 676.838" stroke="black" stroke-width="1.1601" stroke-linecap="round"/>
<path d="M240.567 669.664C240.567 672.263 240.825 674.627 241.251 677.179" stroke="black" stroke-width="1.1601" stroke-linecap="round"/>
<path d="M248.535 669.992C247.161 671.881 248.409 676.682 249.108 678.546" stroke="black" stroke-width="1.1601" stroke-linecap="round"/>
<path d="M254.574 671.03C254.574 673.062 255.329 674.915 255.941 676.838" stroke="black" stroke-width="1.1601" stroke-linecap="round"/>
<path d="M263.456 670.347C263.122 672.812 263.258 675.04 263.456 677.521" stroke="black" stroke-width="1.1601" stroke-linecap="round"/>
<path d="M213.119 633.8C211.786 633.8 214.706 633.676 214.983 633.627C217.159 633.246 218.433 633.188 220.575 633.8" stroke="black" stroke-width="1.1601" stroke-linecap="round"/>
<path d="M213.74 640.013C213.244 640.58 216.287 639.928 216.657 639.875C218.629 639.593 219.737 639.817 221.507 640.634" stroke="black" stroke-width="1.1601" stroke-linecap="round"/>
<path d="M213.74 647.24C216.004 646.434 219.55 647.309 221.506 646.619" stroke="black" stroke-width="1.1601" stroke-linecap="round"/>
<path d="M214.602 653.751C215.182 653.951 216.632 653.751 217.502 653.751C219.823 653.751 219.851 653.798 222.169 654.262" stroke="black" stroke-width="1.1601" stroke-linecap="round"/>
<path d="M214.361 661.137C216.554 660.663 219.56 660.754 221.735 661.137" stroke="black" stroke-width="1.1601" stroke-linecap="round"/>
<path d="M213.74 667.351C216.377 667.322 218.898 666.978 221.506 667.351" stroke="black" stroke-width="1.1601" stroke-linecap="round"/>
<path d="M268.862 664.333C269.029 664.78 272.219 664.598 272.714 664.628C273.418 664.671 274.716 664.743 275.331 664.333" stroke="black" stroke-width="1.1601" stroke-linecap="round"/>
<path d="M269.193 658.528C268.259 658.528 271.043 658.246 271.976 658.205C273.057 658.158 273.989 658.523 274.999 658.86" stroke="black" stroke-width="1.1601" stroke-linecap="round"/>
<path d="M269.11 652.556C271.288 652.375 272.646 651.731 274.833 652.059" stroke="black" stroke-width="1.1601" stroke-linecap="round"/>
<path d="M269.193 647.248C270.899 646.669 272.733 646.565 274.501 646.253" stroke="black" stroke-width="1.1601" stroke-linecap="round"/>
<path d="M268.862 640.116C267.25 640.116 272.072 639.808 273.672 639.618" stroke="black" stroke-width="1.1601" stroke-linecap="round"/>
<path d="M267.677 633.159C267.533 633.175 268.222 632.746 268.222 632.929C268.222 633.174 269.218 632.954 269.32 632.939C271.191 632.664 272.869 632.576 274.663 633.216" stroke="black" stroke-width="1.1601" stroke-linecap="round"/>
<path d="M238.678 642.718C238.222 642.971 238.001 640.764 239.067 641.83C239.468 642.231 239.677 642.882 239.677 642.579C239.677 642.276 239.528 640.106 238.873 641.22C238.538 641.789 238.264 642.085 238.124 642.773C238.1 642.891 237.87 644.473 238.124 643.966C238.411 643.391 238.39 641.569 239.178 641.372C239.5 641.292 239.393 644.326 239.552 644.549C239.697 644.751 239.596 641.346 239.372 641.719C238.906 642.496 238.271 644.889 239.677 643.717" stroke="black" stroke-width="1.1601" stroke-linecap="round"/>
<path d="M247.668 644.208C246.874 644.109 247.88 641.781 248.168 641.462C249.13 640.393 249.197 643.176 248.917 643.737C248.729 644.113 248.917 642.895 248.917 642.474C248.917 642.023 248.921 641.574 248.667 642.322C248.359 643.229 247.566 646.013 248.418 643.459" stroke="black" stroke-width="1.1601" stroke-linecap="round"/>
<path d="M230.398 631.438L230.575 630.201" stroke="#CFCFCF" stroke-width="1.1601" stroke-linecap="round"/>
<path d="M222.801 627.904C222.148 627.943 222.394 628.305 222.144 628.749C221.898 629.183 220.978 630.188 221.466 630.084C221.787 630.015 222.324 629.32 222.566 629.122C222.74 628.978 224.908 627.04 224.617 627.944C224.101 629.549 222.599 630.749 222.075 632.322C221.758 633.271 223.581 631.002 224.293 630.299C225.056 629.547 225.849 628.813 226.737 628.209C228.193 627.219 225.917 630.4 225.766 630.614C224.932 631.787 224.036 632.981 223.41 634.285C222.976 635.189 224.211 634.139 224.333 634.01C225.39 632.885 226.286 631.612 227.336 630.476C227.619 630.17 229.315 628.395 228.652 630.034C227.135 633.781 223.512 636.531 222.183 640.351C221.77 641.539 223.734 639.133 223.763 639.095C224.806 637.753 225.869 636.418 226.865 635.041C227.609 634.011 228.247 632.87 229.084 631.909C229.732 631.165 229.46 632.106 229.28 632.498C227.657 636.033 225.382 639.183 223.38 642.501C223.327 642.589 221.514 645.715 221.761 645.75C222.527 645.86 224.395 642.382 224.715 641.902C225.799 640.277 226.919 638.691 228.122 637.151C228.422 636.766 229.172 635.48 229.751 635.374C229.903 635.347 228.686 638.75 228.632 638.879C227.646 641.247 226.439 643.52 225.285 645.809C224.364 647.634 223.303 649.4 222.467 651.267C222.225 651.808 222 652.533 222.595 651.65C224.772 648.419 226.356 644.697 228.848 641.686C229.112 641.367 229.565 640.93 229.378 641.696C229.029 643.123 228.299 644.475 227.709 645.809C226.571 648.382 225.364 650.952 224.441 653.613C224.111 654.564 223.83 655.531 223.861 656.548C223.886 657.352 224.549 655.929 224.598 655.831C225.487 654.021 226.522 652.324 227.749 650.717C227.927 650.483 230.672 647.55 229.888 649.166C227.943 653.175 226.322 657.245 225 661.515C224.725 662.402 224.342 663.342 224.244 664.273C224.137 665.289 224.996 662.371 225.452 661.456C226.512 659.325 227.815 656.815 229.515 655.115C230.072 654.558 229.664 655.394 229.545 655.664C228.853 657.226 227.997 658.694 227.16 660.18C225.538 663.057 223.912 665.96 222.517 668.955C221.965 670.139 222.385 669.585 222.782 668.936C224.586 665.985 225.956 662.896 228.023 660.101C228.274 659.763 228.608 659.091 229.054 658.943C229.251 658.877 228.528 660.893 228.514 660.926C227.586 663.178 226.417 665.326 225.54 667.601C225.524 667.642 224.87 670.155 225.216 669.741C226.477 668.233 227.231 666.026 228.2 664.332C229.142 662.687 230.147 661.18 231.381 659.748C231.686 659.394 231.915 659.104 231.675 659.807C231.145 661.362 230.339 662.816 229.731 664.342C229.115 665.89 228.338 667.766 228.338 669.466C228.338 670.55 229.371 669.055 229.515 668.896" stroke="#CFCFCF" stroke-width="1.1601" stroke-linecap="round"/>
<path d="M232.872 661.475C232.552 661.155 232.541 662.32 232.401 662.752C231.912 664.258 231.236 665.77 230.889 667.316C230.857 667.462 230.73 668.329 231.154 667.905C232.628 666.432 233.63 664.217 234.777 662.496C234.878 662.344 237.53 658.298 236.818 660.69C236.307 662.409 235.276 664.057 234.561 665.696C234.182 666.564 233.22 668.889 234.08 668.494C235.201 667.979 235.986 666.049 236.593 665.098C237.533 663.622 238.455 662.013 239.685 660.749C239.843 660.586 240.511 659.928 240.431 660.592C240.262 661.986 239.536 663.431 238.978 664.695C238.44 665.912 237.696 667.1 237.329 668.386C236.868 669.999 237.622 669.725 238.428 668.69C239.512 667.299 240.361 665.739 241.412 664.322C241.713 663.916 243.622 660.94 244.406 661.181C245.107 661.397 239.343 673.597 244.769 665.834C245.831 664.316 246.907 662.473 248.421 661.338C249.048 660.868 248.481 662.034 248.431 662.153C247.718 663.855 246.734 665.479 246.242 667.267C246.12 667.709 245.959 668.946 246.301 668.641C247.248 667.796 247.834 666.134 248.45 665.068C249.473 663.3 250.59 661.558 251.994 660.062C252.782 659.222 252.677 660.392 252.505 660.926C251.798 663.112 249.938 665.398 249.893 667.758C249.861 669.446 251.238 667.037 251.366 666.835C252.132 665.628 252.97 664.504 253.898 663.419C254.264 662.992 254.774 662.259 255.371 662.123C256.019 661.976 255.182 663.461 254.89 664.057C254.182 665.503 251.995 669.776 252.956 668.484C254.939 665.819 256.253 662.732 258.325 660.121C258.365 660.071 260.906 656.951 261.241 657.569C261.666 658.353 259.843 660.71 259.533 661.25C258.748 662.618 257.966 663.988 257.246 665.392C256.736 666.387 255.391 668.312 255.646 669.485C255.833 670.346 256.743 668.097 257.167 667.326C258.879 664.213 260.799 661.224 262.949 658.393C264.055 656.937 265.253 655.531 266.601 654.29C267.8 653.186 267.049 654.576 266.689 655.272C264.623 659.261 261.986 662.932 259.926 666.923C259.857 667.056 259.402 668.117 259.415 668.101C260.086 667.296 260.588 666.198 261.162 665.323C262.224 663.705 263.288 662.103 264.5 660.592C264.744 660.288 265.566 659.3 265.854 658.963C266.119 658.653 266.526 657.725 266.708 658.089C266.906 658.484 265.741 660.094 265.56 660.415C264.728 661.889 263.95 663.392 263.165 664.892C262.82 665.549 262.172 666.421 262.056 667.179C261.92 668.062 263.201 665.805 263.734 665.088C264.58 663.951 267.115 660.597 266.532 661.888C265.785 663.54 264.724 665.075 263.813 666.639C263.649 666.92 262.496 668.49 262.861 668.936C263.187 669.334 265.501 666.513 265.776 666.285C266.424 665.748 266.767 665.525 266.64 666.413C266.531 667.171 266.919 667.851 267.15 668.543" stroke="#CFCFCF" stroke-width="1.1601" stroke-linecap="round"/>
<path d="M262.38 629.141C261.137 630.908 259.488 632.92 258.787 634.991C258.524 635.769 259.396 635.125 259.572 634.913C260.3 634.04 260.817 633.038 261.064 631.929C261.32 630.783 261.673 629.841 262.37 628.866C262.809 628.252 263.593 627.443 263.224 628.748C262.78 630.317 261.826 631.8 261.084 633.234C260.277 634.794 259.426 636.354 258.748 637.975C258.735 638.006 257.881 639.813 258.846 639.222C260.09 638.46 260.821 636.916 261.555 635.718C262.752 633.765 264.017 631.851 265.413 630.034C265.567 629.834 266.801 627.899 267.249 627.983C267.277 627.988 264.184 633.345 264.029 633.597C262.688 635.773 261.224 637.947 260.23 640.312C260.215 640.346 259.172 643.495 259.985 642.707C261.054 641.669 261.646 639.87 262.311 638.574C263.057 637.12 263.828 635.645 264.853 634.363C265.214 633.912 265.755 633.395 265.325 634.402C264.597 636.105 263.586 637.722 262.743 639.369C261.404 641.985 259.798 644.654 259.042 647.517C258.951 647.861 258.519 649.773 259.052 650.039C259.241 650.134 264.177 641.301 264.834 640.302C265.14 639.836 265.686 638.613 266.267 638.368C266.449 638.291 265.217 641.312 265.187 641.372C263.974 643.827 262.779 646.276 261.673 648.783C260.831 650.69 259.812 652.661 259.454 654.741C259.227 656.065 260.19 654.193 260.279 654.035C261.663 651.569 263.061 649.033 264.912 646.879C264.962 646.821 266.457 645.227 266.581 645.475C266.889 646.09 265.355 648.369 265.138 648.793C264.091 650.843 262.707 653.014 262.282 655.311C262.002 656.818 262.921 656.203 263.793 655.821" stroke="#CFCFCF" stroke-width="1.1601" stroke-linecap="round"/>
<path d="M232.342 627.551C230.619 627.298 229.548 631.397 229.702 632.862C229.733 633.155 229.932 632.658 229.947 632.636C230.515 631.773 231.194 630.966 231.861 630.182C231.891 630.147 235.401 626.335 235.366 627.61C235.322 629.188 233.951 630.905 233.304 632.282C233.077 632.767 232.561 633.623 232.607 634.206C232.683 635.147 234.001 632.92 234.58 632.174C235.872 630.513 237.024 628.683 238.448 627.129C238.566 627 238.37 627.474 238.291 627.63C237.553 629.083 236.894 630.564 236.308 632.086C236.254 632.226 235.43 635.127 235.68 634.952C237.398 633.75 238.617 631.421 239.803 629.75C240.161 629.245 241.771 626.828 241.049 628.935C240.615 630.204 239.473 632.073 239.567 633.441C239.591 633.787 240.273 633.253 240.509 632.999C241.511 631.924 242.389 630.725 243.297 629.573C243.312 629.554 245.816 626.459 245.29 627.875C244.722 629.403 243.902 630.833 243.376 632.381C243.283 632.653 243.139 633.113 243.572 632.704C244.442 631.883 245.147 630.86 245.889 629.927C246.264 629.454 247.029 628.127 247.685 627.963C248.117 627.855 246.997 629.735 246.929 629.868C246.778 630.162 245.751 633.303 246.163 633.127C246.761 632.87 247.414 631.738 247.754 631.301C248.587 630.228 249.419 629.168 250.404 628.228C252.884 625.864 249.265 633.839 249.462 633.931C250.155 634.258 251.645 631.697 251.916 631.32C252.506 630.498 253.09 629.669 253.791 628.935C253.928 628.791 254.329 628.423 254.301 628.621C254.127 629.837 253.235 630.967 252.691 632.037C252.508 632.397 251.964 633.172 252.367 633.205C253.004 633.257 254.099 631.407 254.409 631.006C255.154 630.044 255.815 628.978 256.686 628.12C257.419 627.399 257.735 627.79 257.383 628.67C256.73 630.304 255.489 631.643 254.87 633.293C254.81 633.455 254.503 634.454 255.135 633.951C256.106 633.179 256.8 632.02 257.629 631.104C258.406 630.246 259.766 628.979 261.054 629.347C261.819 629.566 258.826 633.497 258.669 633.735" stroke="#CFCFCF" stroke-width="1.1601" stroke-linecap="round"/>
<path d="M231.615 636.641C231.502 635.618 231.615 638.441 231.615 638.749C231.615 640.881 231.444 643.089 231.661 645.212C232.036 648.867 231.951 652.606 232.028 656.281C232.044 657.06 232.234 657.809 232.234 658.607C232.234 659.876 232.601 659.487 233.793 659.375C237.374 659.038 241.12 659.535 244.724 659.535C246.634 659.535 248.506 660.154 250.385 660.154C251.866 660.154 253.381 660.084 254.831 660.406C255.359 660.524 257.223 660.616 257.145 660.062C256.822 657.753 256.742 655.39 257.031 653.05C257.634 648.156 257.604 643.138 257.604 638.199C257.604 637.428 257.81 636.691 257.81 635.931C257.81 635.406 258.012 635.379 257.352 635.404C256.502 635.435 255.68 635.61 254.808 635.61C253.653 635.61 252.611 635.043 251.462 634.991C250.457 634.945 249.49 634.579 248.471 634.579C247.022 634.579 245.48 634.719 244.037 634.533C242.096 634.282 240.132 634.393 238.216 634.831C237.025 635.103 235.492 635.337 234.297 635.404C233.088 635.471 232.29 634.759 231.409 635.816" stroke="black" stroke-width="1.1601" stroke-linecap="round"/>
<path d="M221.064 626.414C220.569 627.756 221.064 629.89 221.064 631.324C221.064 634.674 220.913 638.062 221.133 641.405C221.589 648.337 222.898 655.563 222.278 662.539C222.236 663.015 220.839 671.666 221.237 671.666C221.73 671.666 222.484 671.011 222.868 670.764C224.478 669.729 226.909 670.031 228.768 669.757C231.416 669.368 233.561 669.706 236.194 669.809C238.61 669.904 241 669.351 243.412 669.584C248.772 670.1 254.165 669.858 259.532 670.156C261.413 670.261 263.024 670.237 264.858 669.896C266.101 669.665 267.357 670.299 268.537 670.07C269.708 669.842 269.493 669.299 269.318 668.248C268.886 665.657 268.849 663.059 268.849 660.44C268.849 654.952 268.787 649.501 268.52 644.025C268.328 640.107 267.6 636.271 267.6 632.348C267.6 631.071 268.347 627.663 266.663 627.663C264.171 627.663 261.792 627.204 259.323 627.021C252.803 626.538 246.287 625.871 239.734 625.789C237.611 625.763 235.519 626.036 233.401 626.119C231.656 626.187 229.788 626.859 228.056 626.709C225.457 626.483 222.243 626.136 219.814 627.351" stroke="black" stroke-width="1.1601" stroke-linecap="round"/>
<path d="M237.472 649.992C237.328 649.976 237.168 649.787 237.31 649.867C237.807 650.146 238.15 650.778 238.672 651.094C240.03 651.917 241.688 651.78 243.205 651.766C244.889 651.75 246.513 651.429 248.123 650.96C248.522 650.843 251.833 649.784 250.694 649.025" stroke="black" stroke-width="1.1601" stroke-linecap="round"/>
<path d="M238.117 650.96C237.651 651.076 238.503 652.724 238.708 652.966C239.406 653.791 240.352 654.371 241.378 654.668C242.377 654.959 243.383 655.122 244.37 655.439C244.753 655.562 245.495 655.547 245.866 655.385C246.869 654.946 247.846 654.564 248.5 653.62C249.136 652.702 249.149 651.442 250.049 650.798" stroke="black" stroke-width="1.1601" stroke-linecap="round"/>
<path d="M462.537 506.295C462.537 507.055 462.403 507.793 462.345 508.55C462.751 508.571 462.909 508.587 463.21 508.721C463.473 508.838 463.895 509.127 464.172 509.127C464.57 509.127 464.933 509.394 465.327 509.416C465.546 509.428 466.243 509.647 466.433 509.753C466.825 509.97 467.307 509.974 467.678 510.185C468.087 510.419 468.7 510.806 469.174 510.859C469.493 510.894 470.033 511.091 470.328 511.222C470.725 511.398 471.2 511.497 471.627 511.628C472.534 511.907 473.328 512.452 474.267 512.686C474.84 512.83 475.377 513.044 475.955 513.173C477.196 513.448 478.348 514.102 479.562 514.439C480.681 514.75 481.808 515.087 482.875 515.476C483.081 515.551 483.233 515.717 483.463 515.759C483.71 515.804 483.977 515.743 484.227 515.77C484.552 515.804 484.81 516.053 485.141 516.053C485.248 516.053 485.68 515.87 485.697 515.882C485.989 516.087 486.113 516.531 486.391 516.705C486.778 516.946 487.066 517.237 487.524 517.378C488.007 517.526 488.48 517.697 488.967 517.859C489.521 518.044 489.933 517.879 490.485 517.779C490.819 517.718 491.022 517.592 491.388 517.592C491.702 517.592 492.159 517.52 492.398 517.303C492.762 516.972 493.285 516.917 493.317 516.341C493.334 516.036 494.701 516.066 494.952 516.053C495.191 516.04 495.416 515.869 495.647 515.86C495.894 515.851 496.074 515.957 496.341 515.957C498.416 515.957 500.292 514.899 502.358 514.899C503.476 514.899 504.502 514.47 505.581 514.231C506.115 514.112 506.585 513.792 507.125 513.648C507.473 513.555 507.764 513.399 508.124 513.354L508.131 513.353C508.279 513.335 508.573 513.298 508.707 513.242C509.147 513.057 509.761 512.705 510.224 512.686C510.568 512.673 511.399 512.289 511.667 512.088C511.99 511.846 512.819 511.532 513.227 511.532C513.807 511.532 514.188 511.051 514.724 511.051C515.327 511.051 515.776 510.626 516.353 510.576C517.001 510.519 517.584 510.412 518.229 510.378C518.507 510.363 518.725 510.185 519.02 510.185C519.46 510.185 519.603 509.887 519.96 509.683C520.089 509.609 521.009 509.14 521.115 509.272C521.213 509.395 521.152 508.463 521.109 508.315C520.987 507.889 520.826 507.434 520.826 506.958C520.826 505.963 520.575 505.028 520.538 504.051C520.518 503.535 520.313 502.973 520.174 502.469C520.025 501.929 520.057 501.273 520.057 500.711C520.057 500.365 519.831 499.929 519.773 499.557C519.673 498.903 519.86 498.232 519.693 497.585C519.509 496.867 519.672 496.252 519.672 495.544C519.672 495.07 519.609 494.548 519.747 494.101C519.856 493.746 519.658 493.314 519.789 492.968C519.891 492.702 519.945 492.294 519.96 492.006C519.991 491.429 519.864 490.859 519.864 490.269C519.864 489.427 519.768 488.606 519.768 487.774C519.768 487.224 519.748 486.82 519.597 486.31C519.434 485.761 519.576 484.971 519.576 484.407V482.569C519.576 481.908 519.572 481.279 519.485 480.624C519.417 480.118 519.665 479.39 519.458 478.925C519.101 478.121 519.803 477.114 519.33 476.371C519.267 476.271 518.3 474.981 518.277 474.981C518.021 474.981 517.52 475.408 517.342 475.58C517.089 475.824 517.001 475.936 516.979 475.558C516.971 475.424 516.794 475.308 516.786 475.174C516.757 474.669 516.515 474.171 516.407 473.683C516.298 473.193 516.299 472.688 516.161 472.192C515.993 471.588 515.767 471.126 515.482 470.557C515.284 470.16 514.756 469.961 514.526 469.547C514.336 469.205 514.193 468.787 513.922 468.515C513.672 468.265 512.714 468.541 512.458 468.654C512.009 468.854 511.374 468.825 510.882 468.825C509.767 468.825 508.414 469.02 507.339 469.328C505.038 469.985 502.92 470.959 500.814 472.144C499.817 472.705 498.884 473.27 497.816 473.731C496.747 474.193 495.355 474.986 494.615 475.89C494.221 476.371 493.847 476.848 493.466 477.338C493.174 477.714 493.117 478.266 492.884 478.684C492.462 479.443 492.333 480.522 492.088 481.351L492.083 481.368C491.931 481.879 491.791 482.354 491.778 482.89C491.769 483.27 491.605 483.647 491.585 484.023C491.569 484.336 491.519 484.115 491.441 483.975C491.312 483.743 491.103 483.497 491.014 483.259C490.915 482.996 490.62 482.878 490.527 482.623C490.275 481.928 489.548 481.448 489.256 480.774C489.034 480.262 488.57 479.807 488.294 479.31C488.14 479.033 487.815 478.891 487.642 478.615C487.462 478.329 487.243 478.189 487.043 477.92C486.637 477.374 486.131 476.739 485.526 476.403C485.309 476.282 485.135 475.851 484.949 475.654C484.793 475.49 484.682 475.292 484.516 475.125C483.711 474.32 482.839 473.545 482.063 472.726C481.16 471.773 480.171 471.543 479.033 471.038C478.2 470.667 477.16 470.247 476.249 470.081C475.622 469.967 475.011 469.757 474.368 469.686C474.136 469.66 473.655 469.658 473.454 469.547C473.266 469.442 473.046 469.329 472.829 469.306C472.57 469.279 472.24 469.211 471.985 469.135C471.725 469.058 471.286 469.21 471.002 469.21C470.716 469.21 470.197 469.224 469.943 469.328C469.606 469.466 469.131 469.511 468.837 469.696C468.367 469.993 468.175 470.277 468.025 470.802C467.856 471.393 467.749 471.944 467.517 472.555C467.243 473.278 467.447 475.558 466.481 475.558C466.359 475.558 465.978 475.542 465.904 475.601C465.677 475.78 465.531 475.652 465.327 475.772C464.985 475.973 464.166 476.042 464.071 476.472C463.978 476.888 463.905 477.335 463.793 477.728C463.73 477.948 463.838 478.183 463.739 478.401C463.668 478.559 463.602 478.923 463.595 479.096C463.569 479.741 463.343 480.351 463.307 480.998C463.29 481.299 463.125 481.59 463.114 481.885C463.106 482.1 463.142 482.329 463.109 482.542C462.955 483.544 462.644 484.603 462.644 485.61C462.644 485.746 462.726 486.062 462.778 486.198C462.923 486.576 462.782 487.006 462.735 487.384C462.676 487.852 462.729 488.358 462.729 488.832C462.729 489.779 462.922 490.627 462.922 491.568C462.922 492.063 463.114 492.605 463.114 493.118V494.625C463.114 495.197 463.307 495.801 463.307 496.356C463.307 497.025 463.153 497.907 463.355 498.552C463.493 498.996 463.403 499.575 463.403 500.038C463.403 500.437 463.366 501.162 463.52 501.529C463.968 502.592 463.11 503.575 462.922 504.564C462.813 505.134 462.537 505.743 462.537 506.295Z" fill="#E6E6E6"/>
<path d="M494.112 485.545C494.059 485.119 492.526 485.169 492.138 485.008C490.951 484.517 489.679 484.239 488.393 484.239C486.424 484.239 484.671 484.818 486.142 486.968C487.141 488.427 490.284 489.577 491.964 488.623C492.546 488.292 493.6 487.816 494.054 487.317C494.505 486.82 494.485 485.807 493.851 485.807M494.896 486.591C493.944 495.161 494.896 521.083 494.896 512.46M485.228 485.284C486.074 485.472 485.679 487.016 485.62 487.549C485.379 489.72 485.489 491.929 485.489 494.11C485.489 497.519 485.848 501.189 485.286 504.563C484.81 507.417 485.228 516.138 485.228 513.244M494.896 514.289C494.007 514.487 493.817 516.51 493.067 517.105C491.995 517.957 491.18 518.361 489.786 518.151C488.586 517.969 488.047 517.51 487.057 516.96C486.17 516.467 485.973 515.184 485.228 514.812M485.281 515.343C489.862 518.038 475.075 512.365 469.954 510.943C468.26 510.472 466.656 509.655 464.998 509.081C464.313 508.844 462.508 508.041 462 508.38M485.498 485.97C486.218 486.978 483.165 485.131 482.017 484.664C480.383 484.001 478.764 483.312 477.157 482.585C474.309 481.297 471.425 480.121 468.575 478.838C467.703 478.446 466.992 477.819 466.182 477.315C465.796 477.075 465.291 476.422 464.828 476.397C464.051 476.353 464 476.895 464.393 477.484M463.958 476.614C463.911 475.9 463.755 478.584 463.729 478.983C463.564 481.453 463.028 483.91 462.894 486.381C462.706 489.868 463.24 493.302 463.305 496.776C463.352 499.252 463.674 501.636 463.293 504.113C463.23 504.527 462.833 505.058 462.701 505.503C462.484 506.235 462.534 507.2 462.435 507.945M490.72 484.447C492.398 485.706 488.596 480.826 487.432 479.08C486.222 477.264 484.864 475.174 483.081 473.858C481.94 473.017 480.25 471.097 478.802 470.957C478.027 470.882 477.451 470.362 476.747 470.135C476.181 469.953 475.527 470.164 474.946 470.075C473.741 469.89 472.459 469.56 471.259 469.446C470.643 469.388 468.092 469.723 468.092 470.413C468.092 471.504 466.281 477.449 466.787 477.702M489.197 484.012C489.739 483.944 488.883 482.886 488.762 482.706C487.512 480.85 485.893 479.235 484.555 477.436C482.75 475.008 479.778 473.413 477.073 472.275C475.384 471.563 474.359 470.613 472.444 470.522C471.136 470.46 469.489 469.777 468.527 470.74M487.674 483.794C487.674 483.807 486.398 482.393 486.15 482.102C484.884 480.612 483.309 479.525 482.029 478.053C480.401 476.18 477.992 475.331 476.021 473.931C474.739 473.02 472.822 472.678 471.355 472.154C470.752 471.938 470.149 471.737 469.518 471.622C468.929 471.515 468.211 470.939 468.744 471.827M486.369 484.229C486.433 484.286 485.387 482.585 484.797 482.102C484.099 481.531 483.24 480.946 482.452 480.482C481.78 480.087 481.247 479.432 480.494 479.056C479.658 478.638 478.662 477.888 478.004 477.267C477.473 476.765 475.977 475.85 475.272 475.744C474.522 475.631 473.864 474.763 473.145 474.487C472.254 474.144 471.342 473.708 470.486 473.302C469.856 473.004 469.197 472.921 468.527 472.698M485.28 485.1C485.903 484.944 483.784 482.998 483.322 482.755C482.596 482.372 482.18 481.594 481.461 481.183C479.646 480.146 478.04 478.989 476.142 478.04C474.752 477.345 472.705 476.736 471.525 475.792C470.414 474.903 468.485 474.979 467.222 474.221M485.063 485.317C484.299 484.554 482.804 484.396 481.848 483.794C480.902 483.199 479.682 482.741 478.886 481.945C477.626 480.685 476.209 480.286 474.619 479.491C473.868 479.116 472.91 478.879 472.274 478.306C471.86 477.933 470.824 477.799 470.485 477.376C470.168 476.979 468.689 476.735 468.201 476.626C467.611 476.495 466.862 476.217 466.351 475.961M516.749 476.15C517.332 476.225 516.775 475.367 516.679 475.141C516.357 474.384 516.07 473.614 515.795 472.841C515.283 471.407 514.727 469.991 514.137 468.584C513.872 467.954 513.973 467.993 513.339 468.005C512.206 468.028 511.367 468.299 510.288 468.569C507.774 469.199 505.096 469.569 502.701 470.542C500.99 471.237 499.671 472.302 498.095 473.212C495.381 474.779 493.286 476.421 492.322 479.347C492.082 480.076 492.026 481.403 491.54 482.017C491.08 482.599 491.652 484.303 491.126 484.427M494.61 486.419C495.196 486.298 495.478 484.878 495.878 484.467C496.318 484.015 496.664 483.586 497.145 483.166C498.515 481.971 500.224 481.205 501.886 480.347C503.416 479.558 505.019 478.868 506.58 478.121C507.313 477.77 508.001 477.28 508.763 476.993C509.323 476.783 509.923 476.691 510.477 476.473C511.663 476.005 512.926 475.671 514.154 475.331C514.749 475.166 515.392 474.969 516.016 474.969M495.108 485.921C495.534 484.729 495.522 483.307 496.363 482.26C496.739 481.791 497.11 480.926 497.704 480.68C498.707 480.264 499.534 479.453 500.518 478.97C502.009 478.237 503.297 477.163 504.938 476.684C506.064 476.355 507.026 475.766 508.127 475.41C508.892 475.163 509.67 474.932 510.403 474.624C511.524 474.153 512.794 473.972 513.911 473.503C514.435 473.283 515.494 472.756 516.016 473.081M494.655 485.721C494.655 486.726 494.489 483.668 494.794 482.707C494.936 482.261 495.265 481.837 495.42 481.354C495.642 480.659 496.028 480.067 496.431 479.455C497.161 478.345 498.392 477.242 499.518 476.502C500.923 475.578 502.648 475.253 504.18 474.55C505.309 474.032 506.514 473.424 507.707 473.077C508.687 472.793 509.866 472.501 510.74 471.993C511.356 471.635 512.498 471.59 513.202 471.59C513.654 471.59 514.408 471.28 514.522 471.724M492.619 485.423C493.068 485.233 493.038 483.996 493.038 483.618C493.038 482.874 493.115 482.107 493.317 481.385C493.598 480.378 494.539 479.085 495.27 478.367C496.494 477.165 497.392 475.911 498.905 474.972C500.059 474.257 501.262 473.187 502.555 472.746C503.669 472.366 504.653 471.739 505.811 471.444C506.837 471.183 507.966 470.781 508.942 470.409C509.371 470.245 509.949 470.113 510.414 470.113C511.003 470.113 511.448 469.847 512.027 469.847C512.8 469.847 514.106 469.052 514.522 469.847M521.25 509.601C520.925 509.154 521.098 508.58 521.037 508.066C520.895 506.862 520.61 505.621 520.398 504.423C520.22 503.416 520.311 502.442 520.23 501.431C520.124 500.101 519.854 498.793 519.838 497.452C519.791 493.542 519.434 489.619 519.434 485.706C519.434 484.548 519.233 483.425 519.233 482.265C519.233 481.452 519.399 480.443 519.221 479.642C519.074 478.981 518.924 475.055 518.829 475.103M495.023 487.208C495.025 487.225 497.591 485.989 497.892 485.795C498.35 485.501 498.837 485.234 499.305 484.944C499.996 484.513 500.753 483.662 501.49 483.386C502.768 482.906 504.028 482.297 505.234 481.648C506.638 480.892 508.227 480.491 509.661 479.788C511.61 478.832 513.538 478 515.377 476.818C515.958 476.444 516.491 476.058 517.103 475.708C517.358 475.563 517.508 475.394 517.82 475.305C518.038 475.242 518.151 475.149 518.325 475.013C518.55 474.838 517.092 476.049 517.013 476.112M496.104 486.916C497.661 484.901 499.951 483.965 501.835 482.349C502.571 481.718 503.643 481.597 504.471 481.104C505.501 480.489 506.577 479.958 507.66 479.443C509.18 478.719 510.62 477.823 512.097 477.044C512.644 476.755 515.743 475.231 516.016 475.498M492.952 517.055C492.952 517.457 493.619 516.604 493.974 516.415C494.854 515.944 495.742 515.982 496.71 515.956C499.183 515.887 501.47 515.065 503.879 514.596C505.432 514.294 506.936 514.06 508.425 513.479C509.439 513.084 510.451 512.496 511.507 512.232C513.253 511.796 515.143 511.296 516.798 510.596C517.517 510.292 520.327 510.153 520.694 509.418M492.155 490.855C491.023 490.959 487.618 490.63 488.754 490.601M491.926 490.747C492.62 491.626 491.939 493.189 490.833 493.265C490.13 493.312 489.649 493.016 489.119 492.579C488.425 492.006 488.285 491.484 488.644 490.717M489.977 494.192C489.559 494.183 489.148 494.099 488.73 494.11M491.269 494.285L491.388 494.508M490.475 495.989C490.382 495.581 489.492 495.092 489.095 495.138C488.018 495.264 488.445 496.623 488.694 497.166M492.455 498.202C491.076 498.111 489.697 497.877 488.364 497.514M489.811 496.572C490.031 497.229 490.074 498.024 490.092 498.715M489.311 499.187C489.03 499.046 488.707 499.11 488.404 499.097M490.448 499.385C490.522 499.464 490.532 499.513 490.567 499.608M489.34 500.318C490.26 500.295 491.744 501.655 490.323 502.141C489.833 502.309 488.922 502.36 488.667 501.775C488.556 501.521 488.505 501.021 488.647 500.77C488.928 500.273 489.705 500.772 490.033 500.866M489.867 503.247C489.795 503.229 489.144 502.969 489.083 503.066C489.062 503.099 490.204 503.714 490.257 503.752C490.465 503.901 490.934 504.354 490.594 504.637C489.985 505.143 489.36 504.797 488.768 504.52M490.513 506.399C490.299 505.846 489.434 505.155 488.864 505.598C488.383 505.973 488.68 506.434 489.161 506.634C489.444 506.752 490.406 506.625 490.337 506.636C489.671 506.742 488.944 507.27 488.277 507.474M490.228 508.556C489.753 508.515 489.255 508.337 488.777 508.367C488.422 508.389 489.417 508.681 489.744 508.82C490.708 509.229 490.885 509.855 490.625 510.809M490.537 511.83C490.111 511.841 489.518 511.739 489.302 512.201C489.2 512.419 489.085 512.939 489.338 513.105C489.561 513.252 491.437 513.169 490.221 513.485C489.407 513.697 487.94 514.283 487.48 513.221C486.997 512.109 487.123 510.219 488.572 510.182M496.762 492.885C496.762 491.768 496.915 490.661 496.767 489.554C496.716 489.168 496.643 488.589 497.004 488.388C497.796 487.948 498.548 487.694 498.986 488.673C499.563 489.963 498.07 490.644 497.052 490.274M499.76 491.531C499.76 491.015 499.527 490.714 499.76 490.274C499.848 490.106 500.828 489.087 501.326 489.554C502.073 490.581 501.824 491.079 501.425 491.488C501.026 491.897 500.291 492.147 499.856 491.821M502.758 489.017C502.952 489.622 502.978 490.225 503.048 490.854M504.208 488.243C504.023 489.037 504.402 491.498 504.402 490.682C504.402 489.825 504.292 489.047 504.847 488.34C505.016 488.125 505.629 487.095 505.97 487.512C506.577 488.254 506.473 489.382 506.432 490.274M507.593 484.278C507.593 484.194 507.626 484.034 507.668 484.224C507.793 484.787 507.733 485.457 507.765 486.03C507.813 486.892 507.924 487.725 508.055 488.576C508.149 489.188 508.003 488.798 507.883 488.436M506.722 486.792C507.508 486.751 508.365 486.367 509.14 486.212M509.624 486.986C509.665 486.977 509.707 486.967 509.749 486.957M509.749 486.957C510.355 486.803 511.005 486.452 511.294 485.89C511.412 485.662 511.596 485.217 511.246 485.105C510.578 484.893 510.097 485.419 509.935 486.019C509.863 486.285 509.765 486.636 509.749 486.957ZM509.749 486.957C509.729 487.367 509.843 487.729 510.317 487.808C511.176 487.951 511.988 487.749 512.621 487.179M513.685 484.568C513.473 484.542 513.588 485.402 513.588 485.621C513.588 485.786 513.516 486.68 513.637 486.099C513.79 485.363 513.702 484.409 514.093 483.752C514.327 483.36 514.917 482.486 515.232 483.118M516.876 481.957C516.844 481.876 516.539 482.452 516.511 482.516C516.372 482.834 516.199 483.2 516.199 483.553C516.199 483.993 516.88 483.504 517.166 483.504C518.329 483.504 516.396 485.627 516.199 485.922M500.229 498.722C500.113 498.043 499.914 497.319 500.38 496.715C500.648 496.37 501.171 496.181 501.368 496.675C501.586 497.225 501.715 498.028 501.351 498.545C501.193 498.769 500.969 498.845 500.697 498.862C500.421 498.88 500.413 498.712 500.305 498.505M502.592 497.868C502.494 497.575 502.844 497.327 503.012 497.108C503.198 496.864 503.401 496.627 503.571 496.375M502.077 496.872C502.637 497.37 503.788 497.66 504.566 497.868M505.653 497.37C504.711 496.664 504.834 494.324 506.498 495.003C507.132 495.262 507.169 496.168 506.888 496.656C506.728 496.935 506.506 497.079 506.168 497.125C505.526 497.212 505.458 496.993 505.151 496.596M507.567 496.303C507.567 495.472 507.358 493.984 508.574 493.888C509.571 493.81 509.781 495.379 509.29 495.949C509.051 496.227 508.696 496.394 508.317 496.373C507.773 496.343 507.895 495.736 507.828 495.38M510.887 494.916C510.782 494.799 510.701 494.675 510.644 494.546M510.644 494.546C510.479 494.174 510.517 493.766 510.761 493.396C511.274 492.62 511.75 492.81 512.206 493.47C512.74 494.243 512.666 495.459 511.604 495.827C511.279 495.939 510.946 495.863 510.74 495.589C510.465 495.222 510.514 494.887 510.644 494.546ZM510.644 494.546C510.688 494.433 510.74 494.319 510.793 494.203M513.749 494.813C513.559 494.962 513.631 493.243 513.659 493.024C513.713 492.591 514.199 491.52 514.632 492.028C515.115 492.595 515.074 494.04 514.9 494.741C514.836 495.002 514.595 495.093 514.418 495.244C513.897 495.688 513.757 494.937 513.527 494.465M506.559 499.859C506.514 499.853 507.753 499.013 508.051 498.864M501.874 502.966C501.874 502.67 501.788 502.999 501.763 503.119C501.665 503.586 501.6 504.077 501.581 504.558C501.549 505.359 502.113 505.22 502.619 505.326C503.605 505.534 502.8 501.933 501.949 503.241M504.068 504.837C504.387 504.494 504.701 504.161 505.064 503.842M504.068 503.842C504.368 504.213 504.739 504.51 505.064 504.837M506.691 504.837C506.691 504.005 506.057 501.85 507.553 501.85M506.06 503.842C506.545 503.618 507.046 503.498 507.553 503.344M508.674 504.339C508.674 503.61 508.364 502.617 508.718 501.964C508.961 501.515 509.429 500.426 510.042 501.036M508.051 503.344C508.524 503.152 509.048 503.013 509.544 502.846M511.274 503.344C510.727 503.274 511.191 499.625 512.033 500.489M510.581 502.348C510.404 502.327 510.851 502.25 510.872 502.247C511.308 502.181 511.638 502.02 512.033 501.85M513.582 502.846C513.544 501.804 513.253 500.09 514.522 499.859M513.029 501.814C513.301 501.986 513.824 501.502 514.024 501.353M465.849 482.916C466.764 482.812 467.638 483.133 468.572 483.012C469.012 482.955 469.55 482.794 469.964 483.052C470.31 483.267 470.185 483.623 470.266 483.944C470.461 484.726 471.207 484.276 471.772 484.314C472.818 484.384 473.693 485.006 474.523 485.598C474.72 485.739 474.879 485.962 475.103 486.064C475.5 486.247 475.992 486.173 476.416 486.195C476.969 486.224 477.542 486.317 478.081 486.445C478.592 486.567 479.111 486.687 479.627 486.803C480.166 486.925 480.713 486.983 481.252 487.116C482.097 487.325 482.559 487.621 483.242 488.133M465.236 486.394C466.456 485.982 468.058 485.853 469.169 486.644C470.01 487.244 470.708 487.45 471.761 487.122C472.256 486.967 472.92 486.581 473.454 486.803C473.768 486.934 473.876 487.4 474.08 487.645C474.375 488 474.741 488.088 475.171 488.179C475.845 488.321 476.2 488.598 476.694 489.054M465.031 488.44C464.712 488.712 464.159 489.816 464.94 489.85C466.307 489.909 468.025 488.307 469.317 489.083C470.049 489.522 470.327 490.154 471.26 490.18C471.613 490.189 471.961 490.199 472.295 490.327C472.69 490.479 473.024 490.796 473.443 490.884C474.15 491.033 474.891 490.786 475.58 490.958C476.601 491.214 477.574 491.643 478.604 491.896C479.219 492.047 479.706 492.02 480.332 491.913C481.662 491.685 482.749 491.819 484.06 492.021M466.054 498.16C466.054 500.071 465.695 502.072 465.395 503.963C465.263 504.788 465.262 505.654 465.111 506.469C465.029 506.905 464.894 507.34 465.497 507.22C465.879 507.143 466.356 507.361 466.747 507.367C467.137 507.374 467.518 507.47 467.901 507.47C468.725 507.47 469.882 507.98 470.601 508.39C470.675 508.432 471.354 509.036 471.374 508.697C471.433 507.694 471.707 506.744 471.931 505.764C472.241 504.413 472.806 503.02 472.806 501.621C472.806 500.673 473.05 499.964 473.295 499.08C473.41 498.667 473.625 498.123 473.625 497.693C473.625 497.121 471.745 497.324 471.357 497.227C470.085 496.91 468.812 496.648 467.623 496.216C466.978 495.981 466.787 496.03 466.77 496.625C466.749 497.368 466.491 498.308 466.156 498.978M468.203 500.513C468.055 500.991 468.107 501.489 467.998 501.979C467.912 502.366 467.786 502.465 468.123 502.582C468.541 502.726 468.839 502.866 469.288 502.866C469.407 502.866 470.12 502.986 470.192 502.945C470.359 502.85 470.246 501.987 470.249 501.82C470.256 501.354 470.404 500.924 470.448 500.467C470.537 499.529 468.873 500.285 468.509 500.513M470.76 500.615C471.051 500.615 471.295 500.576 471.579 500.513M470.76 501.638C470.557 501.597 471.167 501.536 471.374 501.536M470.863 502.354C470.621 502.354 471.339 502.433 471.579 502.457M466.873 502.047C467.08 502.031 467.282 501.982 467.486 501.945M466.975 501.433H467.282M466.873 500.922C467.113 500.905 467.35 500.856 467.589 500.82M468.919 499.183V500.103M469.43 499.285V499.797M470.146 498.876V499.797M468.305 503.07C468.078 503.127 468.268 503.556 468.305 503.684M468.919 503.07C468.919 503.354 468.97 503.611 469.021 503.889M469.635 503.173C469.635 503.468 469.666 503.706 469.737 503.991M465.44 506.242C465.493 505.665 465.947 504.782 466.406 504.457C467.06 503.996 467.689 503.206 468.509 503.48M470.044 503.889C471.477 503.889 471.604 504.87 471.783 506.037M469.021 501.536C469.021 501.389 469.029 501.679 469.044 501.718C469.129 501.946 469.287 501.604 469.328 501.536M474.546 500.308C474.591 499.806 474.816 500.499 474.875 500.615C475.131 501.117 475.358 500.733 475.751 500.558C476.806 500.087 477.323 500.958 478.257 501.109C478.937 501.22 479.609 500.964 480.269 501.03C480.657 501.069 481.016 501.127 481.412 501.127C481.712 501.127 482.005 501.103 482.304 501.081C482.792 501.044 483.022 501.419 483.344 501.74M474.034 503.07C473.993 503.481 473.543 504.478 474.438 504.031C475.062 503.719 475.308 503.652 475.978 503.684C476.281 503.699 476.573 503.589 476.865 503.525C477.142 503.464 477.393 503.597 477.677 503.576C478.105 503.545 478.561 503.336 478.99 503.406C479.221 503.443 479.387 503.588 479.57 503.718C479.878 503.937 480.225 503.988 480.582 504.093M473.113 506.753C472.937 506.258 473.112 505.74 473.261 506.464C473.336 506.83 473.26 507.936 473.903 507.555L473.918 507.546C474.556 507.168 474.869 506.983 475.631 507.123C476.139 507.216 477.111 507.698 477.615 507.509C477.941 507.387 478.835 506.352 479.149 506.651C479.565 507.046 479.587 507.194 480.173 507.345C480.781 507.501 481.406 507.777 482.014 507.879M464.417 491.816C464.557 491.711 464.289 493.661 464.929 493.47C465.749 493.226 466.583 491.321 467.509 492.328C468.084 492.953 468.733 493.554 469.623 493.635C470.452 493.711 471.077 493.211 471.852 493.721C472.836 494.367 473.737 494.551 474.921 494.272C476.265 493.954 476.318 494.741 477.245 495.46C477.681 495.797 478.841 495.756 479.354 495.659C479.904 495.555 480.422 495.345 480.968 495.579C481.489 495.802 481.979 495.735 482.526 495.704M494.744 483.93C494.275 483.82 495.18 482.525 495.305 482.388C496.075 481.54 496.903 480.721 497.75 479.939C499.196 478.604 500.733 477.261 502.555 476.387C504.325 475.536 506.23 474.674 508.155 474.176C509.235 473.896 510.358 473.788 511.433 473.492C511.626 473.439 513.1 472.978 512.29 472.978M495.606 483.432C498.87 480.858 502.282 478.516 505.891 476.377C507.336 475.52 508.885 474.843 510.484 474.276C511.219 474.016 511.756 473.949 512.531 473.981M492.121 480.355C492.253 480.523 492.295 480.7 492.31 480.905C492.322 481.076 492.514 480.619 492.613 480.474C493.933 478.531 495.661 477.034 497.669 475.692C500.101 474.066 502.893 472.63 505.933 472.228C506.637 472.135 507.361 472.139 508.051 471.982M493.898 481.938C493.174 481.794 494.036 481.17 494.281 480.942C495.478 479.83 496.818 478.846 498.162 477.892C500.751 476.054 503.437 474.236 506.323 472.804C507.381 472.278 508.464 471.964 509.65 471.807C510.077 471.75 510.52 471.701 510.93 471.567C511.176 471.487 510.937 471.498 510.848 471.485M496.601 485.921C497.006 484.928 498.075 484.407 498.938 483.811C501.698 481.905 504.354 479.914 507.406 478.441C508.777 477.779 510.213 477.404 511.708 477.127C512.274 477.023 512.848 476.956 513.411 476.841C513.56 476.811 513.749 476.768 513.889 476.702C514.204 476.553 513.877 476.579 513.825 476.463M491.78 482.606C490.992 484.232 493.391 479.364 494.357 477.831C495.74 475.636 497.739 473.837 500.192 472.787C502.905 471.627 505.814 470.937 508.613 470.008C509.726 469.639 510.862 469.493 512.033 469.493M484.687 485.61C484.4 485.644 484.094 485.364 483.868 485.222C483.469 484.969 483.048 484.769 482.63 484.55C481.795 484.113 480.918 483.769 480.09 483.322C478.461 482.442 476.753 481.747 475.094 480.929C473.518 480.151 471.937 479.43 470.413 478.547C469.211 477.85 467.955 477.219 466.698 476.626C466.3 476.438 465.854 476.223 465.407 476.185C465.086 476.158 465.228 476.443 465.228 476.636M484.593 484.665C484.899 485.049 483.792 484.096 483.396 483.805C482.16 482.896 480.899 482.041 479.57 481.27C477.615 480.135 475.524 478.976 473.415 478.148C472.123 477.64 470.972 476.887 469.747 476.253C469.272 476.008 468.783 475.736 468.251 475.639C467.68 475.535 467.579 475.616 467.307 476.07M484.687 483.721C485.148 484.095 485.297 483.924 485.086 483.333C484.791 482.505 484.211 481.773 483.585 481.17C481.86 479.508 479.692 478.527 477.482 477.691C474.788 476.673 472.179 475.429 469.862 473.698C469.43 473.374 468.997 473.064 468.545 472.769C468.069 472.458 468.109 472.471 468.157 472.953M487.048 484.571C487.124 484.637 486.523 483.875 486.503 483.847C485.608 482.57 484.856 481.233 483.842 480.037C482.985 479.026 482.105 478.269 481.014 477.539C479.473 476.509 477.895 475.6 476.264 474.737C475.635 474.404 475.034 473.963 474.359 473.729C473.687 473.497 473.062 473.067 472.371 472.916C471.862 472.804 471.397 472.719 470.885 472.575C470.498 472.465 470.174 472.348 469.778 472.48C469.633 472.529 469.45 472.626 469.668 472.48M488.088 483.532C488.407 483.852 488.491 483.866 488.35 483.364C488.147 482.642 487.525 482.031 487.08 481.454C485.95 479.985 484.508 478.903 483.233 477.591C481.821 476.139 480.399 474.885 478.579 473.96C477.778 473.553 476.947 473.204 476.165 472.764C475.375 472.319 474.449 471.847 473.551 471.714C473.105 471.648 472.704 471.456 472.271 471.352C471.897 471.262 471.525 471.333 471.148 471.289C470.744 471.242 470.375 470.99 469.967 470.99C469.837 470.99 469.684 471.035 469.595 471.137C469.453 471.297 470.015 471.338 470.046 471.347M490.071 484.477C490.364 484.403 488.59 481.107 488.276 480.677C487.395 479.468 486.307 478.47 485.422 477.277C484.212 475.646 482.7 474.412 481.04 473.283C479.623 472.32 478.117 471.689 476.532 471.095C475.871 470.847 475.306 470.481 474.695 470.14C474.35 469.947 474.042 469.747 473.641 469.888C473.3 470.007 473.112 470.024 472.764 469.951C472.466 469.888 472.147 469.718 471.935 469.93M503.571 478.454C503.927 478.058 504.674 477.904 505.183 477.723C506.87 477.121 508.548 476.496 510.197 475.818C511.086 475.453 511.938 475.018 512.907 474.837C513.769 474.676 514.647 474.584 515.518 474.471M507.07 472.554C506.706 471.682 511.62 470.652 512.298 470.552C512.678 470.496 514.741 469.979 514.857 470.329M493.571 485.089C493.309 485.023 494.138 482.491 494.197 482.312C494.572 481.188 495.129 480.177 495.763 479.188C496.402 478.192 497.174 477.296 498.087 476.535C498.515 476.178 498.999 475.952 499.397 475.554L499.933 475.018C500.027 474.924 500.356 474.705 500.172 474.705M511.967 473.163C512.023 472.88 512.795 472.741 513.022 472.68C513.287 472.609 513.601 472.614 513.877 472.556C514.103 472.509 514.374 472.473 514.587 472.404C514.709 472.365 515.222 472.125 515.132 472.17M502.441 487.692L502.559 487.915" stroke="black" stroke-width="0.702849" stroke-linecap="round"/>
<path d="M25.6633 433.029C27.891 433.606 29.9366 434.136 32.0544 435.143" stroke="black" stroke-width="1.25242" stroke-linecap="round"/>
<path d="M51.4399 399.983C50.8146 400.329 50.3986 400.985 50.1017 401.61C49.1915 403.524 48.4987 405.541 47.5865 407.46C44.7545 413.418 40.8742 418.794 37.9167 424.691C36.3635 427.788 34.9661 430.879 33.1261 433.825C31.8527 435.864 31.0696 438.147 29.8558 440.216C29.7492 440.397 28.7228 441.912 28.8864 441.905C29.2728 441.89 29.9277 442.682 30.1735 442.903C31.4596 444.055 32.6681 444.89 34.3879 445.291C37.1985 445.946 40.3131 446.439 42.9494 447.692C43.513 447.96 45.7568 449.726 45.5566 449.477" stroke="black" stroke-width="1.25242" stroke-linecap="round"/>
<path d="M44.7723 449.23C43.6973 449.661 44.6172 448.406 44.8814 447.85C46.5213 444.401 47.9068 440.828 49.4033 437.315C52.1456 430.879 55.1585 424.506 58.1637 418.184C59.9592 414.407 62.0358 410.414 64.4305 406.981C64.6247 406.703 67.4305 402.485 66.5416 402.572C64.9233 402.731 63.5565 402.19 62.0894 401.492C60.9135 400.933 59.3472 400.941 58.2931 400.214C57.3329 399.552 56.7775 399.368 55.6267 399.243C54.9833 399.172 53.4706 398.691 52.9907 398.335C52.6523 398.084 52.5233 397.768 52.0834 397.624C51.6031 397.467 50.8859 399.568 50.7122 399.934" stroke="black" stroke-width="1.25242" stroke-linecap="round"/>
<path d="M65.0964 406.474C66.9431 407.352 68.5596 408.121 70.375 408.984" stroke="black" stroke-width="1.25242" stroke-linecap="round"/>
<path d="M62.5502 409.886C64.6987 409.59 66.4134 410.882 68.1547 411.71" stroke="black" stroke-width="1.25242" stroke-linecap="round"/>
<path d="M60.7581 413.657C62.5359 414.502 64.2361 415.31 66.0366 416.166" stroke="black" stroke-width="1.25242" stroke-linecap="round"/>
<path d="M59.3239 416.673C61.114 417.524 63.0998 417.776 64.961 418.428" stroke="black" stroke-width="1.25242" stroke-linecap="round"/>
<path d="M61.8333 411.395C63.2362 412.062 65.4623 413.12 67.1118 413.904" stroke="black" stroke-width="1.25242" stroke-linecap="round"/>
<path d="M57.8901 419.69C60.0087 419.873 61.3992 420.433 63.5271 421.445" stroke="black" stroke-width="1.25242" stroke-linecap="round"/>
<path d="M57.0791 422.078C55.548 421.35 61.1239 424 62.0933 424.461" stroke="black" stroke-width="1.25242" stroke-linecap="round"/>
<path d="M55.3808 424.968C57.2261 425.845 59.012 426.277 61.0178 426.723" stroke="black" stroke-width="1.25242" stroke-linecap="round"/>
<path d="M54.3054 427.23C56.0639 428.066 57.7953 428.889 59.584 429.74" stroke="black" stroke-width="1.25242" stroke-linecap="round"/>
<path d="M52.5131 431.001C54.3558 431.586 56.4181 431.933 58.1502 432.756" stroke="black" stroke-width="1.25242" stroke-linecap="round"/>
<path d="M51.4377 433.263C53.2144 434.108 54.9152 434.916 56.7163 435.772" stroke="black" stroke-width="1.25242" stroke-linecap="round"/>
<path d="M50.3625 435.525C50.5014 436.868 53.9983 438.113 55.308 438.735" stroke="black" stroke-width="1.25242" stroke-linecap="round"/>
<path d="M48.0876 439.066C46.4456 438.286 52.7433 441.279 53.8488 441.805" stroke="black" stroke-width="1.25242" stroke-linecap="round"/>
<path d="M47.5319 443.424C49.0087 443.413 50.9134 444.302 52.4149 444.821" stroke="black" stroke-width="1.25242" stroke-linecap="round"/>
<path d="M46.0978 446.441C47.0511 446.768 49.2258 447.243 50.2267 447.479" stroke="black" stroke-width="1.25242" stroke-linecap="round"/>
<path d="M24.9568 437.314C23.304 436.529 28.2595 438.965 30.262 438.913" stroke="black" stroke-width="1.25242" stroke-linecap="round"/>
<path d="M26.4546 435.254C26.7068 435.374 30.2112 437.04 30.9791 437.405" stroke="black" stroke-width="1.25242" stroke-linecap="round"/>
<path d="M28.6079 430.727C28.5455 430.697 31.9238 432.423 33.4884 432.127" stroke="black" stroke-width="1.25242" stroke-linecap="round"/>
<path d="M30.0393 427.714C30.1821 427.781 33.6366 429.424 34.5638 429.864" stroke="black" stroke-width="1.25242" stroke-linecap="round"/>
<path d="M31.4731 424.697L35.9977 426.848" stroke="black" stroke-width="1.25242" stroke-linecap="round"/>
<path d="M32.5483 422.435C34.0806 423.163 35.4977 423.837 37.0728 424.586" stroke="black" stroke-width="1.25242" stroke-linecap="round"/>
<path d="M33.9822 419.419L38.5067 421.569" stroke="black" stroke-width="1.25242" stroke-linecap="round"/>
<path d="M35.4133 417.119C33.8724 416.727 39.0043 419.184 40.6946 418.911" stroke="black" stroke-width="1.25242" stroke-linecap="round"/>
<path d="M36.4917 414.14C37.8639 414.792 40.7321 416.156 41.7703 416.649" stroke="black" stroke-width="1.25242" stroke-linecap="round"/>
<path d="M38.6794 411.482C40.4556 412.326 42.1135 413.115 43.958 413.991" stroke="black" stroke-width="1.25242" stroke-linecap="round"/>
<path d="M38.6052 407.749C39.3612 408.108 43.1486 409.909 45.392 410.975" stroke="black" stroke-width="1.25242" stroke-linecap="round"/>
<path d="M42.3013 405.808C43.7394 406.492 45.3472 407.256 46.8258 407.959" stroke="black" stroke-width="1.25242" stroke-linecap="round"/>
<path d="M42.5857 401.321C43.4794 403.306 46.6148 403.909 48.3574 404.737" stroke="black" stroke-width="1.25242" stroke-linecap="round"/>
<path d="M44.792 399.596C46.3391 400.446 48.1777 401.366 49.3351 402.68" stroke="black" stroke-width="1.25242" stroke-linecap="round"/>
<path d="M45.4902 397.155C47.3 398.015 48.9943 398.82 50.7688 399.664" stroke="black" stroke-width="1.25242" stroke-linecap="round"/>
<path d="M17.4918 77.5875C17.4918 76.129 16.5709 68.6799 17.664 67.9895C19.1652 67.0414 23.7708 67.9335 25.4974 67.9034C29.9171 67.8266 36.4787 66.9505 39.7868 63.6424C41.5378 61.8914 41.0591 59.4611 41.121 57.2294C41.1596 55.8421 42.0284 55.8952 43.1439 55.8952C45.7087 55.8952 48.37 56.0156 50.5039 54.3457C53.6764 51.8628 53.9041 47.2198 53.9041 43.4995" stroke="black" stroke-width="1.44161" stroke-linecap="round"/>
<path d="M242.155 42.505C242.302 42.4807 241.718 42.1294 241.694 42.1105C241.058 41.6076 240.482 41.0286 239.859 40.5087C238.451 39.3339 237.127 38.0602 235.718 36.8863C233.096 34.7028 230.403 32.5899 227.808 30.3661C226.037 28.8475 224.038 27.6369 222.277 26.0998C221.272 25.2234 220.328 24.4641 219.155 23.8459C218.786 23.6518 219.463 23.9017 219.559 23.9586C220.106 24.2812 221.021 24.1035 221.63 24.1035C223.163 24.1035 224.695 24.1429 226.223 23.9908C226.973 23.9162 227.722 23.7081 228.472 23.6688C229.965 23.5906 231.449 23.379 232.952 23.379C235.991 23.379 238.986 23.2841 242.002 22.88C244.058 22.6045 246.191 22.2199 248.27 22.2199C248.957 22.2199 249.899 22.0978 248.852 22.7351C247.341 23.6539 245.735 24.3877 244.339 25.488C242.9 26.6218 241.476 27.7064 240.198 29.0218C238.905 30.353 237.193 30.922 235.677 31.9277C233.841 33.1464 231.865 34.2694 229.935 35.3327C227.611 36.6132 225.523 38.2417 223.158 39.4622C222.347 39.8809 221.405 40.1269 220.683 40.6858C220.061 41.1676 220.056 41.6232 220.611 40.734C221.327 39.5854 221.668 38.087 222.309 36.8863C223.678 34.3193 225.353 31.8898 226.692 29.3197C227.457 27.8519 228.234 26.4723 228.763 24.8924C229.62 22.3323 231.141 20.058 231.852 17.4384C232.124 16.4385 232.619 15.5426 232.871 14.5405C233.19 13.2703 233.32 12.0529 233.534 10.7733C233.666 9.98784 233.623 9.13267 233.858 8.37451C234.131 7.48973 234.149 8.02872 234.149 8.68039C234.149 10.0842 234.073 11.4964 234.286 12.8743C235.113 18.2202 236.957 23.3939 237.934 28.7401C238.3 30.7421 238.991 32.6938 239.462 34.6727C239.732 35.8052 240.409 37.2101 240.409 38.3755C240.409 39.0106 241.081 40.1638 241.355 40.6938C241.782 41.521 242.301 42.4352 242.301 43.3743" stroke="black" stroke-width="1.44161" stroke-linecap="round"/>
<path d="M50.9629 184.349C51.2463 187.183 55.1741 190.385 57.6104 191.451C60.4024 192.672 64.182 192.628 67.018 191.467C69.3379 190.518 71.5415 189.195 72.4033 186.705C72.9636 185.086 72.7736 183.333 72.7736 181.622" stroke="black" stroke-width="1.4393" stroke-linecap="round"/>
<path d="M49.5586 178.17C49.5586 177.086 50.1499 176.116 50.5688 175.154C51.0197 174.119 51.4801 173.016 52.0913 172.066C52.7163 171.093 54.275 169.941 55.3385 169.468C55.7525 169.284 56.0665 168.976 56.5002 168.818C57.1313 168.589 57.7433 168.333 58.3907 168.14C59.062 167.941 59.4413 167.779 60.1442 167.779C60.719 167.779 61.3303 167.721 61.8976 167.808C62.6617 167.926 63.4692 168.169 64.2355 168.169C64.6291 168.169 64.8911 168.502 65.2169 168.689C66.3133 169.315 67.452 169.798 68.4568 170.579C68.8168 170.859 69.3062 171.032 69.6257 171.351C69.9975 171.723 70.3346 172.118 70.7009 172.484C71.1222 172.905 71.4476 173.959 71.639 174.533" stroke="black" stroke-width="1.4393" stroke-linecap="round"/>
<path d="M65.7942 172.845C66.5338 172.845 67.133 172.887 67.8435 173.133C68.8358 173.477 70.1625 173.783 71.0473 174.346C71.1609 174.418 71.751 174.968 71.7689 174.504C71.8099 173.439 71.9439 172.578 72.2163 171.539C72.5979 170.082 72.9378 168.508 72.9378 167" stroke="black" stroke-width="1.4393" stroke-linecap="round"/>
<path d="M48 191.029C48 189.602 48.3918 187.871 49.104 186.605C49.454 185.983 49.6155 184.795 50.107 184.304C50.2773 184.133 51.0367 184.962 51.2182 185.025C52.0459 185.311 52.7371 185.227 53.585 185.321C54.6356 185.438 55.6334 185.573 56.7023 185.573" stroke="black" stroke-width="1.4393" stroke-linecap="round"/>
<path d="M352.701 125.037C350.7 123.186 348.699 121.335 346.698 119.483C342.839 115.914 340.667 110.923 339.407 105.879C338.93 103.972 337.822 101.058 339.118 99.2504C340.354 97.5267 341.925 96.7792 343.95 97.4176C345.765 97.9895 350.02 100.754 350.348 102.925C350.707 105.307 346.846 106.014 345.233 105.728C338.701 104.572 331.166 96.8326 331.584 89.9649C331.793 86.5242 333.149 83.3135 333.678 80" stroke="black" stroke-width="1.44161" stroke-linecap="round"/>
<path d="M35.5745 610.651C36.2484 612.423 36.826 614.171 37.869 615.69C38.5099 616.624 38.1233 616.314 38.2701 615.503C38.3926 614.827 38.1999 613.646 37.997 612.996C37.7422 612.181 37.187 611.69 36.5872 611.078C36.3756 610.862 35.4695 610.663 35.6713 610.458" stroke="black" stroke-width="1.44161" stroke-linecap="round"/>
<path d="M48.7791 605.644C49.2568 606.9 49.7345 608.156 50.2122 609.412C50.3489 609.771 50.3918 609.782 50.7638 609.841C50.9891 609.877 51.2911 610.578 51.2096 610.364C50.6311 608.843 50.0947 607.508 49.9555 605.906C49.9083 605.363 50.043 605.42 49.7076 605.37C49.3969 605.325 49.2256 605.106 48.8974 605.119" stroke="black" stroke-width="1.44161" stroke-linecap="round"/>
<path d="M38.7581 625.527C39.7645 628.173 43.8689 630.062 46.6128 630.529C49.0373 630.942 51.0424 630.215 53.3827 629.325C56.6845 628.069 57.8927 625.959 60.0204 623.302C61.1735 621.863 59.5705 616.215 58.8155 617.898" stroke="black" stroke-width="1.44161" stroke-linecap="round"/>
<path d="M288.082 170.846C287.636 172.688 287.123 174.457 287.125 176.3C287.126 177.432 286.982 176.958 287.562 176.372C288.045 175.884 288.553 174.801 288.753 174.15C289.004 173.334 288.824 172.615 288.675 171.771C288.623 171.473 287.988 170.797 288.27 170.742" stroke="black" stroke-width="1.44161" stroke-linecap="round"/>
<path d="M301.804 174.182C301.488 175.488 301.172 176.794 300.855 178.1C300.765 178.474 300.794 178.507 301.068 178.766C301.233 178.923 301.086 179.672 301.14 179.449C301.523 177.867 301.835 176.464 302.626 175.063C302.894 174.589 302.973 174.712 302.724 174.481C302.494 174.268 302.476 173.991 302.198 173.816" stroke="black" stroke-width="1.44161" stroke-linecap="round"/>
<path d="M282.296 184.916C281.63 187.667 283.948 191.546 285.947 193.483C287.713 195.194 289.778 195.729 292.212 196.318C295.645 197.149 297.835 196.091 301.092 195.103C302.857 194.567 304.728 189.003 303.153 189.964" stroke="black" stroke-width="1.44161" stroke-linecap="round"/>
<path d="M207.394 355C207.71 356.513 206.641 358.215 206.291 359.661C205.694 362.132 205.265 364.646 204.616 367.104C204.283 368.367 203.895 369.655 203.319 370.832C203.156 371.164 202.679 372.185 202.757 372.563C202.759 372.572 205.876 370.064 206.285 369.522C206.97 368.614 207.95 368.192 208.735 367.513C209.17 367.137 208.564 368.39 208.488 368.602C208.193 369.429 207.697 370.258 207.584 371.147C207.335 373.107 206.959 375.019 206.545 376.972C206.151 378.829 205.64 380.685 205.356 382.573C205.233 383.395 205.064 385.84 204.894 385.025" stroke="black" stroke-width="1.4393" stroke-linecap="round"/>
<path d="M378 650.274C381.194 650.274 384.389 650.274 387.583 650.274C389.678 650.274 396.744 649.037 398.342 650.635C401.667 653.96 397.954 665.938 392.24 661.982C387.265 658.538 388.434 649.976 391.968 646.205C397.884 639.895 405.733 638.031 412.989 634" stroke="black" stroke-width="1.43931" stroke-linecap="round"/>
<path d="M328.11 442.594C328.256 442.57 327.672 442.219 327.649 442.2C327.012 441.697 326.436 441.118 325.813 440.598C324.405 439.423 323.082 438.15 321.672 436.976C319.05 434.792 316.357 432.679 313.762 430.455C311.991 428.937 309.992 427.726 308.231 426.189C307.226 425.313 306.282 424.553 305.109 423.935C304.74 423.741 305.417 423.991 305.513 424.048C306.06 424.371 306.975 424.193 307.584 424.193C309.117 424.193 310.65 424.232 312.177 424.08C312.927 424.006 313.676 423.797 314.426 423.758C315.919 423.68 317.403 423.468 318.906 423.468C321.945 423.468 324.94 423.373 327.956 422.969C330.012 422.694 332.145 422.309 334.224 422.309C334.911 422.309 335.854 422.187 334.806 422.824C333.295 423.743 331.69 424.477 330.293 425.577C328.854 426.711 327.43 427.796 326.152 429.111C324.86 430.442 323.147 431.011 321.632 432.017C319.795 433.236 317.819 434.359 315.889 435.422C313.565 436.703 311.477 438.331 309.112 439.552C308.301 439.97 307.359 440.216 306.637 440.775C306.015 441.257 306.01 441.713 306.565 440.823C307.281 439.675 307.623 438.176 308.263 436.976C309.632 434.409 311.307 431.979 312.646 429.409C313.411 427.941 314.188 426.562 314.717 424.982C315.574 422.422 317.095 420.147 317.806 417.528C318.078 416.528 318.574 415.632 318.825 414.63C319.144 413.36 319.274 412.142 319.488 410.863C319.62 410.077 319.577 409.222 319.812 408.464C320.085 407.579 320.103 408.118 320.103 408.77C320.103 410.174 320.028 411.586 320.241 412.964C321.067 418.31 322.911 423.483 323.888 428.829C324.254 430.831 324.946 432.783 325.416 434.762C325.686 435.895 326.363 437.299 326.363 438.465C326.363 439.1 327.035 440.253 327.309 440.783C327.736 441.61 328.255 442.525 328.255 443.464" stroke="black" stroke-width="1.44161" stroke-linecap="round"/>
<path d="M492.11 204.594C492.256 204.57 491.672 204.219 491.649 204.2C491.012 203.697 490.436 203.118 489.813 202.598C488.405 201.423 487.082 200.15 485.672 198.976C483.05 196.792 480.357 194.679 477.762 192.455C475.991 190.937 473.992 189.726 472.231 188.189C471.226 187.313 470.282 186.553 469.109 185.935C468.74 185.741 469.417 185.991 469.513 186.048C470.06 186.371 470.975 186.193 471.584 186.193C473.117 186.193 474.65 186.232 476.177 186.08C476.927 186.006 477.676 185.797 478.426 185.758C479.919 185.68 481.403 185.468 482.906 185.468C485.945 185.468 488.94 185.373 491.956 184.969C494.012 184.694 496.145 184.309 498.224 184.309C498.911 184.309 499.854 184.187 498.806 184.824C497.295 185.743 495.69 186.477 494.293 187.577C492.854 188.711 491.43 189.796 490.152 191.111C488.86 192.442 487.147 193.011 485.632 194.017C483.795 195.236 481.819 196.359 479.889 197.422C477.565 198.703 475.477 200.331 473.112 201.552C472.301 201.97 471.359 202.216 470.637 202.775C470.015 203.257 470.01 203.713 470.565 202.823C471.281 201.675 471.623 200.176 472.263 198.976C473.632 196.409 475.307 193.979 476.646 191.409C477.411 189.941 478.188 188.562 478.717 186.982C479.574 184.422 481.095 182.147 481.806 179.528C482.078 178.528 482.574 177.632 482.825 176.63C483.144 175.36 483.274 174.142 483.488 172.863C483.62 172.077 483.577 171.222 483.812 170.464C484.085 169.579 484.103 170.118 484.103 170.77C484.103 172.174 484.028 173.586 484.241 174.964C485.067 180.31 486.911 185.483 487.888 190.829C488.254 192.831 488.946 194.783 489.416 196.762C489.686 197.895 490.363 199.299 490.363 200.465C490.363 201.1 491.035 202.253 491.309 202.783C491.736 203.61 492.255 204.525 492.255 205.464" stroke="black" stroke-width="1.44161" stroke-linecap="round"/>
<path d="M445.363 370.088C445.363 368.629 444.442 361.18 445.535 360.49C447.036 359.542 451.642 360.434 453.368 360.404C457.788 360.327 464.35 359.451 467.658 356.143C469.409 354.392 468.93 351.962 468.992 349.73C469.03 348.343 469.899 348.396 471.015 348.396C473.58 348.396 476.241 348.516 478.375 346.846C481.547 344.363 481.775 339.72 481.775 336" stroke="black" stroke-width="1.44161" stroke-linecap="round"/>
<path d="M354.729 511.38C354.866 512.832 356.484 520.161 355.46 520.952C354.055 522.037 349.386 521.582 347.67 521.774C343.277 522.267 336.827 523.756 333.845 527.361C332.266 529.269 332.971 531.643 333.12 533.871C333.212 535.256 332.342 535.285 331.231 535.389C328.678 535.631 326.017 535.761 324.05 537.624C321.125 540.395 321.335 545.039 321.685 548.742" stroke="black" stroke-width="1.44161" stroke-linecap="round"/>
<path d="M203.701 538.037C201.7 536.186 199.699 534.335 197.698 532.484C193.839 528.914 191.667 523.923 190.407 518.879C189.93 516.972 188.822 514.058 190.118 512.251C191.354 510.527 192.925 509.779 194.95 510.418C196.765 510.99 201.02 513.754 201.348 515.925C201.707 518.307 197.846 519.014 196.233 518.728C189.701 517.572 182.166 509.833 182.584 502.965C182.793 499.524 184.149 496.314 184.678 493" stroke="black" stroke-width="1.44161" stroke-linecap="round"/>
<path d="M172.913 114.415C166.172 121.148 179.097 128.739 183.126 133C185.245 126.276 192.451 123.286 193.865 116.559C194.503 113.522 192.761 112.857 191.236 110.841C188.975 107.851 186.291 113.685 185.229 115.13C181.748 119.863 184.656 116.033 181.774 112.985C179.024 110.076 175.318 112.012 172.913 114.415Z" stroke="black" stroke-width="1.44" stroke-linecap="round"/>
<path d="M483.817 581.86C474.166 589.014 488.886 600.867 493.125 606.926C497.009 598.93 506.549 596.53 509.553 588.401C510.91 584.73 508.861 583.58 507.33 580.784C505.061 576.637 500.637 583.419 499.046 585.024C493.831 590.286 498.165 586.046 495.133 581.712C492.239 577.576 487.26 579.307 483.817 581.86Z" stroke="black" stroke-width="1.44" stroke-linecap="round"/>
</svg>
