<svg width="1100" height="230" viewBox="0 0 1100 230" fill="none" xmlns="http://www.w3.org/2000/svg">
<g clip-path="url(#clip0_477_157)">
<path d="M110.393 106.946C110.393 105.366 109.395 97.2919 110.58 96.5436C112.207 95.516 117.199 96.4829 119.07 96.4503C123.86 96.367 130.972 95.4175 134.558 91.832C136.455 89.9342 135.937 87.3 136.004 84.8812C136.046 83.3776 136.987 83.4351 138.196 83.4351C140.976 83.4351 143.861 83.5657 146.173 81.7557C149.612 79.0646 149.859 74.0323 149.859 70" stroke="white" stroke-width="1.5625" stroke-linecap="round"/>
<path d="M736.393 79.9465C736.393 78.3657 735.395 70.2919 736.58 69.5436C738.207 68.516 743.199 69.4829 745.07 69.4503C749.86 69.367 756.972 68.4175 760.558 64.832C762.455 62.9342 761.937 60.3 762.004 57.8812C762.046 56.3776 762.987 56.4351 764.196 56.4351C766.976 56.4351 769.861 56.5657 772.173 54.7557C775.612 52.0646 775.859 47.0323 775.859 43" stroke="white" stroke-width="1.5625" stroke-linecap="round"/>
<path d="M178.443 231.813C176.274 229.807 174.105 227.801 171.936 225.794C167.754 221.926 165.4 216.516 164.034 211.049C163.517 208.982 162.317 205.823 163.721 203.865C165.061 201.996 166.763 201.186 168.959 201.878C170.925 202.498 175.538 205.494 175.892 207.847C176.281 210.429 172.098 211.195 170.349 210.886C163.269 209.633 155.103 201.244 155.555 193.801C155.782 190.071 157.251 186.591 157.825 183" stroke="white" stroke-width="1.5625" stroke-linecap="round"/>
<path d="M335.047 60.4952C335.206 60.4689 334.574 60.0881 334.548 60.0677C333.858 59.5226 333.233 58.8951 332.558 58.3315C331.032 57.0583 329.598 55.6778 328.07 54.4054C325.228 52.0389 322.309 49.7487 319.497 47.3385C317.577 45.6925 315.411 44.3804 313.502 42.7144C312.413 41.7645 311.39 40.9416 310.118 40.2715C309.719 40.0611 310.452 40.332 310.556 40.3937C311.149 40.7433 312.141 40.5507 312.8 40.5507C314.463 40.5507 316.123 40.5934 317.779 40.4286C318.592 40.3477 319.404 40.1221 320.216 40.0796C321.834 39.9948 323.443 39.7655 325.072 39.7655C328.366 39.7655 331.612 39.6626 334.881 39.2246C337.109 38.926 339.421 38.5091 341.674 38.5091C342.419 38.5091 343.441 38.3768 342.305 39.0675C340.668 40.0634 338.928 40.8588 337.414 42.0513C335.855 43.2801 334.311 44.4558 332.926 45.8815C331.525 47.3243 329.669 47.941 328.026 49.0311C326.036 50.3519 323.894 51.569 321.803 52.7216C319.284 54.1094 317.02 55.8745 314.457 57.1973C313.578 57.6511 312.557 57.9178 311.775 58.5235C311.1 59.0457 311.095 59.5395 311.696 58.5758C312.472 57.3309 312.842 55.7068 313.537 54.4054C315.021 51.6232 316.836 48.99 318.288 46.2043C319.116 44.6135 319.958 43.1182 320.532 41.4057C321.461 38.631 323.109 36.166 323.88 33.3267C324.174 32.2429 324.712 31.2719 324.984 30.1858C325.33 28.8091 325.471 27.4896 325.703 26.1027C325.846 25.2514 325.8 24.3245 326.054 23.5028C326.35 22.5438 326.369 23.128 326.369 23.8343C326.369 25.3558 326.288 26.8865 326.518 28.3798C327.414 34.174 329.413 39.7816 330.472 45.5761C330.868 47.746 331.618 49.8613 332.128 52.0062C332.421 53.2337 333.154 54.7563 333.154 56.0195C333.154 56.7078 333.883 57.9578 334.18 58.5322C334.642 59.4287 335.205 60.4196 335.205 61.4375" stroke="white" stroke-width="1.5625" stroke-linecap="round"/>
<path d="M1006.05 217.495C1006.21 217.469 1005.57 217.088 1005.55 217.068C1004.86 216.523 1004.23 215.895 1003.56 215.332C1002.03 214.058 1000.6 212.678 999.07 211.405C996.228 209.039 993.309 206.749 990.497 204.338C988.577 202.692 986.411 201.38 984.502 199.714C983.413 198.765 982.39 197.942 981.118 197.272C980.719 197.061 981.452 197.332 981.556 197.394C982.149 197.743 983.141 197.551 983.8 197.551C985.463 197.551 987.123 197.593 988.779 197.429C989.592 197.348 990.404 197.122 991.216 197.08C992.834 196.995 994.443 196.765 996.072 196.765C999.366 196.765 1002.61 196.663 1005.88 196.225C1008.11 195.926 1010.42 195.509 1012.67 195.509C1013.42 195.509 1014.44 195.377 1013.31 196.068C1011.67 197.063 1009.93 197.859 1008.41 199.051C1006.85 200.28 1005.31 201.456 1003.93 202.881C1002.52 204.324 1000.67 204.941 999.026 206.031C997.036 207.352 994.894 208.569 992.803 209.722C990.284 211.109 988.02 212.874 985.457 214.197C984.578 214.651 983.557 214.918 982.775 215.523C982.1 216.046 982.095 216.54 982.696 215.576C983.472 214.331 983.842 212.707 984.537 211.405C986.021 208.623 987.836 205.99 989.288 203.204C990.116 201.613 990.958 200.118 991.532 198.406C992.461 195.631 994.109 193.166 994.88 190.327C995.174 189.243 995.712 188.272 995.984 187.186C996.33 185.809 996.471 184.49 996.703 183.103C996.846 182.251 996.8 181.325 997.054 180.503C997.35 179.544 997.369 180.128 997.369 180.834C997.369 182.356 997.288 183.886 997.518 185.38C998.414 191.174 1000.41 196.782 1001.47 202.576C1001.87 204.746 1002.62 206.861 1003.13 209.006C1003.42 210.234 1004.15 211.756 1004.15 213.02C1004.15 213.708 1004.88 214.958 1005.18 215.532C1005.64 216.429 1006.21 217.42 1006.21 218.438" stroke="white" stroke-width="1.5625" stroke-linecap="round"/>
<path d="M954.59 97.1688C954.121 99.6202 955.585 97.2758 955.83 99.4575C956.218 102.904 961.062 94.1876 959.7 100.135C959.198 102.324 961.411 99.505 961.79 99.0641C963.267 97.3486 961.969 99.9718 962.168 100.773C962.492 102.077 965.295 96.8767 965.288 98.2204C965.283 98.9945 963.898 102.561 965.642 100.92C965.847 100.726 966.887 99.4083 967.194 99.9527C967.648 100.758 968.107 99.2731 968.562 99.3025C968.79 99.3173 967.872 102.039 967.817 102.33C967.765 102.601 969.501 100.235 969.841 99.9823C970.01 99.8565 969.371 102.543 969.429 102.784C969.755 104.129 970.979 98.4026 971.892 99.4421C972.451 100.079 970.738 103.791 972.875 101.454C974.083 100.132 974.975 97.9846 974.659 101.007C974.461 102.903 974.246 103.008 975.468 101.328C976.17 100.363 977.822 98.3372 977.332 100.897C977.213 101.521 975.971 104.879 977.567 103.138C978.082 102.576 981.545 97.7941 980.566 100.894C980.421 101.351 978.993 105.157 980.52 103.082C980.808 102.69 982.33 99.491 982.345 101.234C982.358 102.841 982.436 103.068 983.727 101.809C985.535 100.044 985.005 101.613 984.597 103.219C983.914 105.906 985.517 103.314 986.151 102.46C987.41 100.763 986.617 103.066 986.506 103.854C986.275 105.493 987.906 103.094 988.141 102.778C989.115 101.472 988.555 103.268 988.926 103.985C989.307 104.722 990.423 103.129 990.705 102.916C991.444 102.358 991.673 104.217 992.052 104.541C993.054 105.399 993.906 103.221 994.031 105.459" stroke="#62686D" stroke-width="1.41905" stroke-linecap="round"/>
<path d="M933.805 94.6853C934.335 91.9134 933.163 94.387 933.364 95.4713C933.413 95.7326 934.729 93.8912 934.898 93.7341C935.524 93.1528 935.584 96.559 935.6 96.8935C935.618 97.298 937.095 91.7407 937.039 96.2986C937.031 97.0255 938.424 96.6878 939.355 96.8659" stroke="#62686D" stroke-width="1.41905" stroke-linecap="round"/>
<path d="M945.441 94.3001C945.426 94.3469 944.646 96.2369 944.912 96.416C945.104 96.5461 945.467 95.8369 945.752 96.1415C946.645 97.0993 945.581 99.9032 947.152 97.0518C949.45 92.8827 946.945 101.286 949.277 97.6446" stroke="#62686D" stroke-width="1.41905" stroke-linecap="round"/>
<path d="M944.88 87.4793C944.573 89.087 944.333 90.0556 945.614 88.3034C946.183 87.525 945.321 91.9519 946.505 90.7946C947.162 90.1527 947.925 87.8098 948.647 89.2358C949.035 90.0019 949.217 88.2066 949.267 87.9453" stroke="#62686D" stroke-width="1.41905" stroke-linecap="round"/>
<path d="M934.568 82.8961C934.947 82.3138 935.838 82.4165 936.554 82.6957C937.465 83.0513 936.956 84.5591 937.538 84.9147C938.416 85.4502 938.324 81.6544 939.141 82.2788C939.411 82.4856 938.564 85.2183 938.591 85.6962C938.613 86.0844 939.899 84.1415 940.109 83.9351C940.261 83.7855 940.205 87.4254 941.198 85.2831" stroke="#62686D" stroke-width="1.41905" stroke-linecap="round"/>
<path d="M938.929 71.7948C938.343 72.6382 937.262 77.0098 937.976 75.6946C939.314 73.2275 938.037 77.3864 938.877 76.0742C939.359 75.3215 939.92 72.787 940.062 73.6693C940.265 74.9273 939.286 77.164 940.221 78.2582C940.379 78.4437 941.4 74.4767 941.532 73.7846" stroke="#62686D" stroke-width="1.41905" stroke-linecap="round"/>
<path d="M936.861 65.0587C937.821 67.2291 939.437 68.1442 940.901 66.1423C941.341 65.5411 940.922 68.499 941.355 68.8607C941.864 69.286 942.21 66.9425 943.575 68.9538" stroke="#62686D" stroke-width="1.41905" stroke-linecap="round"/>
<path d="M955.205 87.9677C955.115 88.8157 954.396 93.5759 955.276 91.8131C955.548 91.2686 955.936 91.1774 956.239 90.7367C956.837 89.8638 956.763 86.9447 957.408 87.7841C958.036 88.6012 956.704 94.0077 957.738 90.0151C957.935 89.2533 957.5 94.1552 958.913 92.3069" stroke="#62686D" stroke-width="1.41905" stroke-linecap="round"/>
<path d="M959.248 90.5558L959.956 91.5987" stroke="#62686D" stroke-width="1.41905" stroke-linecap="round"/>
<path d="M965.711 89.9771C964.654 95.5021 966.35 86.6356 965.278 92.2387C965.201 92.6452 965.293 90.2748 964.528 91.4147C963.945 92.284 962.906 95.1163 964.001 92.1961C964.684 90.3731 965.389 91.6272 965.608 92.7555C965.745 93.4612 966.244 90.0928 966.465 90.7768C966.874 92.0402 966.589 94.0811 967.43 91.6671C968.495 88.6067 968.772 92.4612 969.065 93.7948" stroke="#62686D" stroke-width="1.41905" stroke-linecap="round"/>
<path d="M975.946 91.0272C975.144 91.0722 974.733 94.0135 975.189 94.4619C975.814 95.077 975.787 92.805 976.207 92.035C976.904 90.7604 977.345 92.2749 977.821 92.8227C978.443 93.5376 978.991 89.8583 979.327 93.3879C979.509 95.3014 980.009 89.2773 980.762 91.9482" stroke="#62686D" stroke-width="1.41905" stroke-linecap="round"/>
<path d="M985.931 93.3907C986.404 94.2643 986.654 98.9112 987.151 96.498C987.199 96.2692 987.705 93.7547 987.845 94.0593C987.969 94.3283 987.764 95.6664 987.892 95.0009C988.505 91.7947 989.118 93.3346 988.665 95.7034C988.496 96.5876 988.675 93.7476 989.269 93.0712C989.475 92.8363 990.271 96.2089 990.327 96.5004" stroke="#62686D" stroke-width="1.41905" stroke-linecap="round"/>
<path d="M996.269 96.2756C996.397 95.6069 996.002 97.6388 996.107 98.3116C996.146 98.5672 996.713 96.2824 996.8 95.8729C996.917 95.3252 996.661 100.756 998.08 96.8236C999.097 94.008 998.834 98.0157 999.533 96.3452C1000.3 94.505 1000.54 97.6995 1001.35 98.1558" stroke="#62686D" stroke-width="1.41905" stroke-linecap="round"/>
<path d="M1008.24 95.0423C1007.91 94.9798 1007.29 94.7046 1007.08 95.0429C1006.68 95.6652 1005.43 98.4041 1006.29 96.2291C1007.22 93.8859 1006.6 98.1316 1006.99 97.985C1007.56 97.7682 1009 93.5903 1009.01 95.5077C1009.01 96.329 1008.87 97.1371 1008.83 97.9542C1008.77 98.7848 1009.68 96.3207 1009.71 96.2463C1010.68 93.8266 1010.16 95.8265 1010.36 97.0711C1010.41 97.3842 1010.73 96.5527 1010.89 96.2823C1011.27 95.6747 1011.71 95.2517 1011.86 96.2129C1011.94 96.7328 1011.92 98.2379 1012.17 96.9395" stroke="#62686D" stroke-width="1.41905" stroke-linecap="round"/>
<path d="M1008.96 101.765C1008.46 102.954 1007.67 108.063 1008.99 104.586C1009.31 103.745 1009.79 105.687 1009.83 105.845C1010.22 107.444 1009.96 108.229 1010.69 106.168C1010.73 106.05 1011.38 104.042 1011.45 104.547C1011.58 105.534 1011.2 108.452 1011.57 107.53C1011.66 107.308 1012.33 104.97 1012.46 105.044C1013.15 105.413 1013.03 107.904 1013.09 108.568" stroke="#62686D" stroke-width="1.41905" stroke-linecap="round"/>
<path d="M999.272 104.493C999.087 102.198 998.64 108.863 999.442 105.098C1000.33 100.936 1000.12 108.157 1001.22 105.519C1001.34 105.243 1001.85 103.187 1002.08 104.267C1002.13 104.492 1002.8 106.686 1002.84 106.623C1003.51 105.654 1002.95 105.027 1004.19 105.72" stroke="#62686D" stroke-width="1.41905" stroke-linecap="round"/>
<path d="M946.28 79.1838C946.322 80.1422 946.298 81.0906 946.289 82.0485C946.278 83.241 946.682 79.6921 946.992 78.5405C947.01 78.4734 947.087 81.3498 947.3 82.0032C947.365 82.2035 948.246 78.9179 948.435 78.5621C948.815 77.845 948.762 80.1528 948.967 80.9383C949.123 81.5392 949.606 79.7234 949.638 79.9215C949.776 80.7615 949.911 82.3519 950.312 80.5593C950.578 79.3669 950.281 80.7199 950.212 81.081" stroke="#62686D" stroke-width="1.41905" stroke-linecap="round"/>
<path d="M955.106 79.4405C954.926 80.3816 953.773 82.802 954.566 82.2639C955.057 81.9308 955.157 79.8666 955.426 79.2632C955.779 78.4746 955.784 80.953 955.959 81.7987C956.326 83.5714 956.873 81.4208 957.136 80.7195C957.37 80.0966 957.768 78.3931 957.863 80.0791C957.879 80.3614 957.773 83.2965 958.016 82.192C958.504 79.9714 958.604 79.9519 959.537 81.7196" stroke="#62686D" stroke-width="1.41905" stroke-linecap="round"/>
<path d="M964.432 80.079C964.449 80.4735 964.533 83.168 964.785 82.7233C964.933 82.463 966.486 79.1402 966.588 79.2826C967.218 80.1581 965.881 82.5108 966.695 83.2158C966.876 83.3727 968.154 80.9117 968.399 81.1241C968.55 81.2545 968.219 84.4807 968.576 83.8618C968.721 83.6089 969.5 81.1003 969.929 81.6076C970.297 82.0423 970.309 82.7346 971.023 82.7076C971.488 82.69 971.513 82.7169 971.572 83.1625" stroke="#62686D" stroke-width="1.41905" stroke-linecap="round"/>
<path d="M968.49 70.8348C968.365 71.8959 968.6 72.9861 969.038 73.9616C969.663 75.3554 970.027 73.1847 970.142 72.6777C970.292 72.0154 970.364 74.5241 970.498 74.9726C970.759 75.8423 971.44 72.7321 971.626 73.1524C971.95 73.8842 971.644 74.7988 972.149 73.4115C972.258 73.1111 972.829 71.7632 973.106 72.8151C973.175 73.0763 973.107 75.0456 973.63 74.6491C974.134 74.2665 974.471 73.9838 975.078 73.8127" stroke="#62686D" stroke-width="1.41905" stroke-linecap="round"/>
<path d="M957.138 71.8127C956.995 68.8981 957.339 72.9806 958.124 72.5581C958.362 72.4306 959.306 70.5457 959.37 70.6173C959.996 71.3148 959.694 72.7567 960.323 73.5354C960.568 73.8383 961.011 69.1631 961.869 71.8587C962.393 73.5054 962.284 70.6003 962.767 72.3168" stroke="#62686D" stroke-width="1.41905" stroke-linecap="round"/>
<path d="M949.933 67.5715C949.584 67.1886 949.166 69.9451 949.129 70.3603C949.114 70.5264 949.598 69.1723 949.668 68.9525C949.949 68.0741 949.946 69.3531 950.28 69.5785C951.388 70.3263 951.521 66.1293 951.651 69.3954C951.737 71.5425 951.692 71.5264 952.654 69.8098" stroke="#62686D" stroke-width="1.41905" stroke-linecap="round"/>
<path d="M979.716 80.9983C979.893 82.0395 980.006 85.4703 980.522 82.7747C980.732 81.6753 980.036 85.108 979.976 84.9608C979.88 84.72 979.011 81.9032 979.134 83.2092C979.345 85.4357 979.63 84.0051 980.469 83.0509C981.9 81.4246 980.901 86.0669 981.627 85.9764C983.006 85.8047 983.044 80.868 983.141 85.2161C983.15 85.6379 983.327 83.5815 983.792 83.9728C985.087 85.0625 983.568 88.4375 985.264 84.9225" stroke="#62686D" stroke-width="1.41905" stroke-linecap="round"/>
<path d="M989.854 86.373C990.064 86.725 990.027 86.9642 989.951 87.3618C989.87 87.7866 990.418 85.8617 990.58 85.5733C990.994 84.8334 990.195 87.6145 990.892 88.0984C991.226 88.3308 992.249 84.7434 992.565 84.5057C993.347 83.9192 992.389 86.4526 992.247 87.4191C991.965 89.33 993.211 86.4681 993.489 86.082C994.135 85.1839 993.882 87.8549 993.888 88.0671C993.903 88.5888 995.66 86.2324 995.971 85.8252" stroke="#62686D" stroke-width="1.41905" stroke-linecap="round"/>
<path d="M1002.92 85.4357C1002.6 86.4015 1002.06 87.2844 1001.71 88.2432C1001.1 89.9387 1002.88 87.8289 1003.19 87.5231C1005.39 85.3323 1003.2 90.9005 1004.34 89.4927C1005.09 88.5519 1006.59 85.4789 1006.62 86.6853C1006.66 87.88 1005.78 89.0409 1005.72 90.2347C1005.68 91.0109 1006.9 89.1607 1007.63 88.8981C1008.3 88.6569 1007.96 89.3196 1007.86 89.5304" stroke="#62686D" stroke-width="1.41905" stroke-linecap="round"/>
<path d="M1010.96 77.8125C1010.69 78.3915 1009.29 80.1644 1009.36 80.6877C1009.45 81.38 1010.11 79.5087 1010.44 78.8893C1010.72 78.3399 1010.7 77.057 1011.29 77.2398C1011.37 77.264 1010.53 80.4233 1010.59 80.4138C1011.05 80.3446 1013.34 77.5385 1012.9 78.6296C1010.01 85.8528 1014.12 77.673 1014.74 78.7581C1014.85 78.9497 1014.54 79.9345 1014.46 79.7072C1014.24 79.0437 1014.43 79.1503 1014.29 79.8803" stroke="#62686D" stroke-width="1.41905" stroke-linecap="round"/>
<path d="M999.583 75.9228C996.596 79.4115 1000.99 75.5489 1000.79 76.6143C1000.71 77.0331 999.135 79.9695 999.918 78.9931C1000.17 78.6804 1002 76.3408 1001.97 76.8403C1001.92 77.7724 1002.47 76.8437 1002.82 76.4471C1003.25 75.9652 1003.99 74.4827 1004.21 75.0903C1004.38 75.5377 1003.52 77.0084 1003.38 77.38C1002.54 79.575 1003.24 78.0389 1004.22 77.6364C1004.64 77.4629 1003.92 78.9199 1003.86 79.0305" stroke="#62686D" stroke-width="1.41905" stroke-linecap="round"/>
<path d="M988.941 76.1777C986.543 81.452 990.242 75.4656 990.398 76.0429C990.607 76.811 989.667 78.9261 990.084 79.4343C990.505 79.9475 990.875 78.3678 991.265 77.8311C991.74 77.1782 992.232 76.497 992.793 75.9125C992.901 75.8004 991.025 80.3606 993.122 77.5183C993.558 76.928 994.5 75.0374 994.459 75.7698C994.429 76.3007 994.043 76.7998 994.624 76.4057" stroke="#62686D" stroke-width="1.41905" stroke-linecap="round"/>
<path d="M979.38 73.7764C978.901 76.6616 980.579 73.2327 979.812 75.6724C979.091 77.9672 981.53 71.4846 981.422 74.7397C981.371 76.287 982.434 73.8144 982.707 73.4267C983.64 72.1025 982.978 74.356 982.918 74.7394C982.677 76.2663 983.182 75.361 983.856 74.9031C984.266 74.6248 984.333 75.9857 984.363 76.1611" stroke="#62686D" stroke-width="1.41905" stroke-linecap="round"/>
<path d="M934.82 58.9436C933.472 67.4229 931.394 75.9099 930.443 84.4406C930.093 87.5857 929.764 90.6072 929.17 93.7092C929.021 94.4899 927.067 98.6282 927.574 98.8631C933.484 101.602 940.308 101.632 946.686 102.852C955.02 104.446 963.252 106.353 971.583 107.947C975.548 108.705 979.575 108.958 983.557 109.589C987.05 110.143 990.623 110.851 994.154 111.079C998.128 111.337 1002.13 111.207 1006.11 111.385C1008.83 111.508 1011.9 111.368 1014.54 112.184C1015.76 112.56 1015.24 110.199 1015.33 109.04C1015.64 105.039 1015.76 101.06 1015.81 97.0479C1015.9 89.2256 1017.89 82.7639 1020.83 75.6166C1021.07 75.0445 1021.37 74.1701 1021.48 73.5934C1021.53 73.3356 1020.96 73.7078 1020.7 73.7034C1019.56 73.6844 1018.41 73.7464 1017.28 73.643C1009.6 72.9383 1002.15 70.2063 994.463 69.5001C986.388 68.7584 978.191 68.1658 970.199 66.7097C965.796 65.9075 961.491 64.7111 957.121 63.8752C953.157 63.1171 949.372 61.783 945.425 60.972C940.299 59.9185 939.912 59.9175 934.772 58.9343" stroke="white" stroke-width="1.41905" stroke-linecap="round"/>
<path d="M933.201 95.2759C929.266 94.5234 933.326 88.6105 936.922 90.5283C939.419 91.8599 942.011 94.9115 940.095 97.7418C938.769 99.6987 936.502 99.9242 934.799 98.3389C933.921 97.522 932.73 96.1044 933.262 94.9545" stroke="white" stroke-width="1.41905" stroke-linecap="round"/>
<path d="M943.635 99.9365C942.474 98.1714 941.494 95.9148 942.55 93.807C943.463 91.9834 947.156 92.5666 948.543 93.4357C951.171 95.0833 951.058 98.4388 948.312 99.8686C944.629 101.786 942.777 97.9921 942.568 95.0688" stroke="white" stroke-width="1.41905" stroke-linecap="round"/>
<path d="M953.158 95.4289C953.816 94.5684 957.721 95.6355 958.584 95.8004C960.667 96.199 962.638 96.4393 964.746 96.572C968.299 96.7958 971.814 96.8261 975.359 97.0103C980.002 97.2516 984.376 98.0688 988.943 98.9423C991.344 99.4015 991.977 100.978 993.918 102.152C995.273 102.971 996.413 103.332 996.483 104.9C996.598 107.456 994.68 107.543 992.686 107.338C990.143 107.077 987.604 106.891 985.038 106.782C982.07 106.656 979.151 106.267 976.177 106.087C974.982 106.014 974.089 105.428 972.94 105.208C971.507 104.934 970.18 104.833 968.74 104.72C964.843 104.414 960.853 103.896 957.009 103.161C955.233 102.821 951.664 101.807 950.985 99.8248C950.453 98.2732 950.398 97.6672 950.721 95.9806C950.981 94.6215 955.097 94.0754 954.505 95.3534" stroke="white" stroke-width="1.41905" stroke-linecap="round"/>
<path d="M998.299 106.728C995.887 103.175 1000.98 99.555 1003.46 102.791C1004.6 104.282 1006.89 107.763 1003.51 108.316C1001.45 108.653 999.53 107.721 998.18 106.187C996.915 104.749 997.893 104.436 999.173 103.897" stroke="white" stroke-width="1.41905" stroke-linecap="round"/>
<path d="M1007.1 107.744C1006.39 106.123 1006.31 104.2 1007.53 102.757C1009.55 100.389 1012.04 102.471 1013.48 104.45C1014.92 106.426 1014.64 108.886 1012.16 109.933C1008.92 111.298 1007.3 106.456 1007.45 104.148" stroke="white" stroke-width="1.41905" stroke-linecap="round"/>
<path d="M937.475 69.4447C936.315 69.1511 935.093 67.0489 935.513 65.8679C936.349 63.5183 939.584 63.6159 941.327 64.5927C942.99 65.5243 946.115 68.5675 943.441 70.0861C941.716 71.066 939.397 70.6074 937.64 69.9388C935.551 69.1439 935.703 68.2686 936.682 66.628" stroke="white" stroke-width="1.41905" stroke-linecap="round"/>
<path d="M936.369 75.2291C934.91 74.8864 934.613 73.5539 935.718 72.4397C937.794 70.3468 941.509 69.9811 942.788 73.0148C944.025 75.9462 942.05 80.5407 938.291 79.1128C935.057 77.8842 932.753 74.5379 935.377 71.7082" stroke="white" stroke-width="1.41905" stroke-linecap="round"/>
<path d="M934.019 85.7723C932.83 84.5806 932.202 82.4087 933.666 81.0412C935.603 79.2317 938.35 80.1861 940.349 81.3201C942.311 82.4332 944.267 86.9309 941.039 87.9663C939.018 88.6144 936.337 87.3962 934.743 86.2439C933.056 85.0239 932.929 84.5054 933.287 82.6343" stroke="white" stroke-width="1.41905" stroke-linecap="round"/>
<path d="M944.823 88.5048C944.565 87.5901 943.413 85.728 944.587 85.0916C946.857 83.8613 949.451 84.2955 950.873 86.479C952.978 89.7124 947.476 92.212 944.895 92.0904C941.306 91.9213 944.459 87.4513 945.574 86.3168" stroke="white" stroke-width="1.41905" stroke-linecap="round"/>
<path d="M953.711 92.5367C952.596 90.3618 952.719 88.6685 955.082 87.21C956.999 86.0269 961.007 87.9897 961.505 90.1041C962.204 93.0713 957.432 94.6309 955.261 94.1101C954.075 93.8254 952.875 92.9253 952.5 91.7128C952.111 90.4574 953.576 89.6353 954.388 89.0019" stroke="white" stroke-width="1.41905" stroke-linecap="round"/>
<path d="M963.338 92.7123C959.722 87.0334 969.398 86.7398 970.456 91.2978C972.018 98.0288 956.516 95.6471 962.483 90.217" stroke="white" stroke-width="1.41905" stroke-linecap="round"/>
<path d="M975.03 94.2823C973.827 93.1769 972.143 91.5107 974.205 90.2752C976.244 89.0531 980.051 88.8376 981.457 91.2551C984.223 96.0117 970.033 96.4822 973.915 91.4041" stroke="white" stroke-width="1.41905" stroke-linecap="round"/>
<path d="M984.595 94.7794C980.909 88.9791 991.714 88.9351 993.265 94.4391C994.713 99.5761 979.073 99.1692 985.531 91.6273" stroke="white" stroke-width="1.41905" stroke-linecap="round"/>
<path d="M993.989 97.9088C992.947 93.0066 999.956 91.9159 1002.29 95.3507C1004.12 98.0517 999.763 99.6251 997.673 99.7422C995.285 99.8761 993.192 97.6844 995.062 95.7823" stroke="white" stroke-width="1.41905" stroke-linecap="round"/>
<path d="M1005.36 99.4173C1004.33 97.1804 1004.14 95.5323 1006.58 94.3949C1008.22 93.6312 1012.11 92.4788 1013.03 94.9253C1015.42 101.286 1003.29 102.008 1003.54 96.7376" stroke="white" stroke-width="1.41905" stroke-linecap="round"/>
<path d="M945.409 81.9547C944.487 80.5969 944.164 78.8202 945.042 77.295C945.758 76.0502 950.315 76.6279 951.274 77.4137C953.535 79.2661 951.926 83.319 949.259 83.6905C946.811 84.0316 942.715 83.05 944.109 80.0406" stroke="white" stroke-width="1.41905" stroke-linecap="round"/>
<path d="M954.331 82.3289C951.46 76.5633 959.133 74.9709 961.113 79.9618C962.458 83.3506 960.005 84.0162 957.206 84.137C956.015 84.1884 954.682 84.1977 953.524 83.84C952.318 83.4674 953.7 81.475 953.935 80.9205" stroke="white" stroke-width="1.41905" stroke-linecap="round"/>
<path d="M964.738 83.6531C962.834 83.2891 963.574 80.6356 964.504 79.6482C967.016 76.9828 970.697 78.9841 973.084 80.7524C979.685 85.6442 962.99 87.5677 964.019 82.1833" stroke="white" stroke-width="1.41905" stroke-linecap="round"/>
<path d="M977.393 85.4074C975.361 84.7795 979.109 81.2796 979.573 80.8831C981.631 79.1239 984.06 81.3776 985.451 82.9512C987.497 85.2664 985.944 87.8099 982.837 87.9105C981.541 87.9523 975.833 85.6999 977.701 83.8006" stroke="white" stroke-width="1.41905" stroke-linecap="round"/>
<path d="M989.023 87.2987C986.986 86.909 988.114 83.9324 989.416 83.1174C991.037 82.1023 995.059 83.2635 996.202 84.6004C998.444 87.2242 994.79 89.7119 992.431 89.8011C991.051 89.8533 989.956 89.4963 989.175 88.3455C988.487 87.3324 989.176 86.9298 989.912 86.1363" stroke="white" stroke-width="1.41905" stroke-linecap="round"/>
<path d="M1001.36 88.9917C1000.14 86.709 999.832 84.6384 1003.04 83.9832C1005.77 83.4256 1008.66 84.1368 1009.87 86.881C1011.55 90.7014 1005.8 91.7777 1003.34 90.8323C1001.73 90.2123 999.859 88.9136 999.339 87.1621C998.911 85.7181 1000.92 85.1635 1001.84 84.7526" stroke="white" stroke-width="1.41905" stroke-linecap="round"/>
<path d="M1009.9 82.6315C1009.2 81.2286 1007.48 79.3503 1008.71 77.7399C1009.67 76.4777 1013.69 74.5708 1015.25 75.5495C1017.26 76.8044 1016.27 81.7068 1014.26 82.4665C1011.76 83.4122 1007.17 82.2658 1007.24 79.1247" stroke="white" stroke-width="1.41905" stroke-linecap="round"/>
<path d="M998.764 78.1693C997.905 77.8909 997.952 75.159 998.918 74.8491C1000.39 74.3768 1001.76 74.4044 1003.21 74.0965C1005.14 73.6865 1006.91 77.6412 1005.77 79.0087C1004.11 80.9887 1000.73 81.9927 998.601 79.9887C997.234 78.7004 995.59 77.0215 997.006 75.1682" stroke="white" stroke-width="1.41905" stroke-linecap="round"/>
<path d="M987.975 77.105C988.461 74.5643 989.237 73.9224 991.809 73.5079C993.418 73.2486 995.888 73.7411 996.156 75.7457C996.917 81.442 987.217 81.0665 988.221 75.8196" stroke="white" stroke-width="1.41905" stroke-linecap="round"/>
<path d="M978.349 76.9293C975.161 71.5835 984.452 70.4126 985.181 73.4246C985.67 75.4402 985.379 77.5911 983.286 78.2067C981.533 78.7222 977.1 78.2328 977.63 75.4595" stroke="white" stroke-width="1.41905" stroke-linecap="round"/>
<path d="M969.611 75.5912C967.04 75.0994 966.76 70.2315 969.489 69.646C970.818 69.361 974.493 70.1025 975.205 71.498C978.121 77.2099 968.305 78.5115 966.964 73.7526" stroke="white" stroke-width="1.41905" stroke-linecap="round"/>
<path d="M956.757 73.1326C954.836 71.3519 957.472 68.697 959.313 68.4768C961.477 68.2179 963.261 69.2729 963.91 71.3363C964.505 73.2259 962.991 74.8517 961.331 75.3399C959.066 76.0061 957.592 74.0817 956.175 72.6883" stroke="white" stroke-width="1.41905" stroke-linecap="round"/>
<path d="M950.651 71.9648C945.676 73.1257 947.356 63.0729 952.234 66.1052C954.374 67.4353 954.387 69.0569 953.396 71.1575C951.513 75.1505 948.25 71.1145 946.015 70.0788" stroke="white" stroke-width="1.41905" stroke-linecap="round"/>
<path d="M489.653 66.5359C489.653 67.4585 489.49 68.3565 489.419 69.2762C489.913 69.3012 490.105 69.3213 490.471 69.484C490.79 69.6259 491.303 69.9775 491.64 69.9775C492.123 69.9775 492.564 70.3016 493.042 70.3282C493.309 70.343 494.156 70.6091 494.387 70.7373C494.863 71.0019 495.45 71.006 495.9 71.2632C496.397 71.5472 497.142 72.0174 497.718 72.0814C498.106 72.1245 498.762 72.3636 499.121 72.523C499.603 72.7373 500.18 72.8569 500.698 73.0165C501.801 73.3557 502.766 74.0173 503.906 74.3022C504.603 74.4765 505.256 74.7371 505.958 74.8932C507.466 75.2281 508.866 76.0224 510.341 76.4322C511.702 76.81 513.07 77.2202 514.367 77.6919C514.618 77.7831 514.803 77.9853 515.082 78.0361C515.382 78.0906 515.707 78.0171 516.01 78.0491C516.405 78.0906 516.718 78.3932 517.121 78.3932C517.251 78.3932 517.775 78.1708 517.796 78.1854C518.152 78.4342 518.302 78.9739 518.64 79.1854C519.11 79.4791 519.46 79.8321 520.017 80.0036C520.603 80.184 521.178 80.3908 521.77 80.5881C522.444 80.8126 522.944 80.6125 523.614 80.4907C524.021 80.4167 524.267 80.2634 524.712 80.2634C525.094 80.2634 525.649 80.1762 525.939 79.9127C526.381 79.5106 527.017 79.443 527.056 78.7439C527.077 78.373 528.738 78.4093 529.043 78.3932C529.334 78.3779 529.606 78.1702 529.887 78.1595C530.188 78.1479 530.406 78.2763 530.731 78.2763C533.253 78.2763 535.532 76.9906 538.043 76.9906C539.401 76.9906 540.648 76.4702 541.959 76.1789C542.608 76.0347 543.179 75.6461 543.835 75.4711C544.258 75.3584 544.612 75.1687 545.05 75.114L545.058 75.113C545.238 75.0905 545.596 75.0457 545.758 74.9776C546.293 74.7521 547.039 74.3248 547.602 74.3022C548.019 74.2855 549.029 73.8194 549.355 73.575C549.747 73.281 550.754 72.8996 551.251 72.8996C551.955 72.8996 552.419 72.3152 553.069 72.3152C553.803 72.3152 554.348 71.7983 555.05 71.7373C555.836 71.6689 556.546 71.5383 557.329 71.497C557.667 71.4792 557.932 71.2632 558.29 71.2632C558.825 71.2632 558.999 70.9008 559.433 70.6529C559.59 70.5633 560.707 69.9923 560.836 70.1528C560.955 70.3022 560.881 69.1701 560.829 68.9905C560.681 68.472 560.485 67.9203 560.485 67.3411C560.485 66.1323 560.18 64.9964 560.134 63.8086C560.11 63.1813 559.862 62.4991 559.693 61.8865C559.512 61.2298 559.55 60.4332 559.55 59.7501C559.55 59.3297 559.275 58.8 559.206 58.3475C559.084 57.5535 559.311 56.7372 559.108 55.9513C558.884 55.0789 559.082 54.3311 559.082 53.4708C559.082 52.8954 559.006 52.2612 559.173 51.7175C559.306 51.2863 559.065 50.7608 559.225 50.3409C559.349 50.0171 559.415 49.5212 559.433 49.172C559.47 48.4703 559.316 47.7777 559.316 47.0616C559.316 46.0379 559.199 45.0404 559.199 44.0291C559.199 43.3608 559.175 42.8701 558.992 42.2498C558.794 41.5829 558.966 40.6235 558.966 39.9381V37.7043C558.966 36.9011 558.961 36.1359 558.855 35.3406C558.773 34.7253 559.074 33.8409 558.823 33.2757C558.389 32.2994 559.241 31.0746 558.667 30.1717C558.59 30.051 557.415 28.4834 557.388 28.4834C557.077 28.4834 556.467 29.0025 556.251 29.2107C555.943 29.5072 555.837 29.6438 555.81 29.1847C555.8 29.0215 555.586 28.8803 555.576 28.7172C555.54 28.1042 555.247 27.4993 555.115 26.9054C554.983 26.311 554.984 25.6971 554.816 25.0937C554.612 24.3602 554.338 23.799 553.991 23.1067C553.751 22.625 553.109 22.3829 552.829 21.8794C552.598 21.464 552.425 20.9559 552.095 20.6261C551.791 20.3221 550.627 20.6569 550.316 20.795C549.771 21.0371 548.999 21.0028 548.4 21.0028C547.046 21.0028 545.402 21.2399 544.095 21.6132C541.299 22.4121 538.726 23.5956 536.167 25.0353C534.955 25.7168 533.821 26.4035 532.524 26.9639C531.224 27.525 529.533 28.4889 528.634 29.5873C528.155 30.1723 527.7 30.7525 527.238 31.3471C526.882 31.8044 526.813 32.4746 526.53 32.9835C526.018 33.9058 525.861 35.2163 525.562 36.2238L525.556 36.2445C525.372 36.8656 525.201 37.4424 525.186 38.0939C525.175 38.5564 524.976 39.0138 524.952 39.4706C524.932 39.8515 524.872 39.5828 524.777 39.4121C524.62 39.1307 524.366 38.8318 524.257 38.542C524.138 38.2227 523.779 38.0801 523.666 37.7692C523.36 36.9255 522.476 36.3423 522.121 35.5225C521.851 34.9007 521.288 34.3474 520.952 33.7432C520.766 33.4077 520.371 33.2341 520.16 32.899C519.941 32.5521 519.675 32.3819 519.433 32.0549C518.939 31.3907 518.323 30.619 517.588 30.2107C517.325 30.0641 517.114 29.541 516.887 29.3016C516.698 29.1021 516.564 28.8614 516.361 28.6587C515.383 27.6805 514.323 26.7384 513.38 25.7431C512.283 24.5847 511.081 24.3055 509.699 23.6911C508.686 23.2413 507.423 22.73 506.315 22.5288C505.553 22.3902 504.811 22.1351 504.03 22.0482C503.747 22.0169 503.164 22.0151 502.919 21.8794C502.69 21.752 502.423 21.6149 502.16 21.5872C501.845 21.5541 501.443 21.4712 501.134 21.3794C500.818 21.286 500.285 21.4703 499.939 21.4703C499.592 21.4703 498.961 21.4871 498.653 21.6132C498.243 21.7808 497.666 21.8357 497.309 22.0612C496.737 22.4222 496.504 22.7667 496.322 23.4054C496.117 24.1232 495.987 24.7922 495.705 25.5353C495.371 26.4143 495.62 29.1847 494.445 29.1847C494.297 29.1847 493.834 29.1653 493.744 29.2366C493.469 29.4537 493.291 29.2984 493.042 29.4444C492.627 29.6888 491.633 29.7719 491.517 30.2951C491.404 30.8008 491.315 31.3435 491.179 31.8211C491.102 32.0883 491.234 32.3745 491.114 32.6393C491.027 32.831 490.947 33.273 490.939 33.4835C490.907 34.2669 490.632 35.0092 490.588 35.7952C490.568 36.1613 490.367 36.5144 490.354 36.8731C490.344 37.1343 490.388 37.4128 490.348 37.6718C490.16 38.8892 489.783 40.1761 489.783 41.3992C489.783 41.565 489.882 41.9493 489.945 42.1135C490.122 42.5731 489.95 43.0959 489.893 43.555C489.822 44.1244 489.887 44.7386 489.887 45.3148C489.887 46.4654 490.12 47.4959 490.12 48.6395C490.12 49.2414 490.354 49.9001 490.354 50.5227V52.3539C490.354 53.0499 490.588 53.7832 490.588 54.4578C490.588 55.271 490.401 56.3421 490.646 57.1267C490.815 57.6664 490.705 58.3692 490.705 58.9319C490.705 59.4168 490.66 60.2985 490.848 60.7436C491.392 62.0357 490.349 63.2305 490.12 64.432C489.988 65.1249 489.653 65.8645 489.653 66.5359Z" fill="#393E43"/>
<path d="M528.022 41.321C527.958 40.8034 526.095 40.8635 525.623 40.6683C524.181 40.0713 522.635 39.7334 521.072 39.7334C518.679 39.7334 516.55 40.4371 518.338 43.0498C519.551 44.8229 523.37 46.2207 525.412 45.0609C526.12 44.6586 527.401 44.0797 527.952 43.4732C528.5 42.87 528.476 41.6386 527.705 41.6386M528.975 42.5912C527.818 53.0057 528.975 84.5058 528.975 74.0271M517.227 41.0035C518.254 41.2319 517.775 43.1082 517.703 43.7555C517.41 46.3942 517.544 49.0785 517.544 51.7291C517.544 55.871 517.98 60.3312 517.297 64.4305C516.719 67.8992 517.227 78.4962 517.227 74.9797M528.975 76.2499C527.894 76.4901 527.664 78.9487 526.753 79.6722C525.449 80.7074 524.459 81.1979 522.766 80.9423C521.307 80.7222 520.653 80.1643 519.449 79.4958C518.371 78.8966 518.132 77.3374 517.227 76.8849M517.29 77.5301C522.858 80.805 504.889 73.9122 498.665 72.1834C496.607 71.6118 494.658 70.6189 492.643 69.9214C491.811 69.6333 489.618 68.6575 489 69.0695M517.554 41.8368C518.43 43.0623 514.719 40.8172 513.324 40.2504C511.339 39.444 509.371 38.607 507.419 37.724C503.958 36.1581 500.453 34.7289 496.99 33.1705C495.93 32.6934 495.066 31.932 494.082 31.3197C493.613 31.0279 492.999 30.2347 492.437 30.2034C491.493 30.151 491.431 30.8091 491.908 31.5254M491.38 30.4678C491.322 29.6001 491.133 32.862 491.1 33.3468C490.9 36.3481 490.249 39.3341 490.087 42.3362C489.858 46.574 490.507 50.7469 490.586 54.9684C490.643 57.9771 491.035 60.8744 490.572 63.8844C490.494 64.3877 490.012 65.0322 489.852 65.5736C489.589 66.4626 489.649 67.6355 489.529 68.5407M523.9 39.986C525.94 41.5157 521.319 35.5855 519.905 33.4643C518.434 31.2577 516.784 28.7173 514.617 27.1188C513.231 26.0964 511.177 23.7639 509.417 23.5935C508.476 23.5024 507.776 22.8699 506.92 22.5947C506.233 22.3738 505.437 22.6299 504.731 22.5213C503.268 22.2961 501.709 21.8963 500.251 21.7575C499.502 21.6861 496.403 22.0935 496.403 22.9325C496.403 24.2579 494.202 31.4826 494.817 31.7898M522.049 39.4572C522.708 39.3749 521.667 38.0892 521.52 37.8709C520.002 35.6147 518.034 33.6523 516.409 31.4666C514.215 28.5161 510.603 26.5784 507.317 25.1946C505.264 24.3302 504.018 23.1756 501.691 23.0647C500.102 22.9891 498.101 22.1598 496.932 23.3291M520.198 39.1928C520.198 39.2086 518.649 37.4908 518.347 37.1364C516.808 35.3257 514.895 34.0051 513.339 32.2157C511.36 29.9408 508.433 28.9084 506.038 27.2069C504.481 26.1002 502.151 25.6843 500.369 25.0477C499.636 24.7859 498.902 24.5407 498.136 24.4014C497.42 24.2711 496.548 23.5709 497.196 24.6511M518.612 39.7216C518.691 39.7904 517.42 37.7229 516.703 37.1364C515.855 36.4426 514.811 35.7316 513.853 35.1682C513.037 34.6878 512.388 33.8922 511.474 33.4349C510.458 32.927 509.247 32.0156 508.448 31.261C507.802 30.6513 505.985 29.5387 505.128 29.4102C504.216 29.2734 503.417 28.2186 502.543 27.8826C501.461 27.4663 500.352 26.9359 499.312 26.4431C498.547 26.0808 497.746 25.9801 496.932 25.7087M517.29 40.7792C518.047 40.5899 515.472 38.2252 514.911 37.9296C514.028 37.465 513.522 36.5194 512.649 36.0201C510.443 34.7597 508.491 33.354 506.186 32.2011C504.496 31.3564 502.008 30.6159 500.575 29.469C499.225 28.389 496.881 28.4808 495.345 27.5595M517.026 41.0436C516.098 40.1159 514.28 39.9243 513.119 39.1928C511.97 38.4696 510.487 37.9126 509.52 36.9455C507.989 35.4142 506.266 34.9295 504.335 33.9637C503.422 33.5074 502.258 33.2199 501.485 32.5242C500.981 32.0709 499.723 31.9074 499.311 31.3932C498.926 30.9115 497.129 30.6143 496.535 30.4825C495.819 30.3233 494.908 29.9848 494.288 29.6746M555.53 29.9033C556.239 29.995 555.562 28.9521 555.445 28.6775C555.054 27.7583 554.706 26.8221 554.371 25.8833C553.749 24.1399 553.073 22.4196 552.356 20.7096C552.035 19.9443 552.157 19.9909 551.386 20.0065C550.01 20.0343 548.99 20.3632 547.68 20.6915C544.624 21.4569 541.37 21.9066 538.46 23.0891C536.381 23.9342 534.777 25.2282 532.862 26.334C529.565 28.2373 527.019 30.2328 525.847 33.7882C525.555 34.6751 525.487 36.2867 524.897 37.033C524.337 37.7407 525.032 39.8109 524.393 39.9624M528.628 42.3821C529.34 42.2359 529.682 40.5096 530.168 40.0105C530.703 39.4608 531.123 38.9401 531.708 38.4295C533.372 36.9772 535.449 36.0463 537.469 35.0039C539.328 34.0447 541.276 33.2062 543.174 32.2985C544.064 31.8725 544.9 31.2769 545.826 30.9283C546.506 30.6724 547.235 30.5612 547.908 30.2959C549.35 29.7277 550.885 29.3216 552.377 28.9081C553.1 28.7076 553.881 28.4689 554.639 28.4689M529.233 41.7772C529.75 40.3288 529.736 38.6006 530.758 37.3281C531.215 36.7593 531.666 35.7081 532.387 35.4087C533.606 34.9027 534.611 33.9175 535.807 33.3301C537.618 32.44 539.183 31.1348 541.178 30.5527C542.547 30.1534 543.716 29.437 545.053 29.0048C545.983 28.7041 546.928 28.4237 547.819 28.0495C549.181 27.4769 550.724 27.2576 552.082 26.6874C552.718 26.4199 554.006 25.78 554.639 26.1744M528.683 41.5338C528.683 42.7555 528.481 39.04 528.851 37.8723C529.024 37.3299 529.423 36.8143 529.611 36.2278C529.882 35.3834 530.35 34.6636 530.84 33.92C531.727 32.5716 533.223 31.2305 534.591 30.3312C536.298 29.2091 538.395 28.8139 540.256 27.9599C541.629 27.3302 543.092 26.5915 544.543 26.17C545.734 25.8239 547.167 25.4698 548.229 24.8526C548.977 24.4177 550.365 24.362 551.221 24.362C551.769 24.362 552.685 23.9859 552.825 24.5255M526.208 41.1723C526.754 40.9408 526.717 39.4382 526.717 38.9792C526.717 38.0752 526.81 37.1424 527.056 36.2649C527.397 35.0417 528.541 33.4707 529.429 32.598C530.916 31.1369 532.008 29.6129 533.846 28.4726C535.248 27.6029 536.711 26.3027 538.282 25.7673C539.636 25.3059 540.832 24.5433 542.238 24.1854C543.485 23.8681 544.857 23.3799 546.043 22.9271C546.564 22.7282 547.267 22.5676 547.833 22.5676C548.548 22.5676 549.088 22.2441 549.792 22.2441C550.731 22.2441 552.318 21.2781 552.825 22.2441M561 70.5536C560.605 70.0099 560.815 69.3129 560.741 68.6877C560.569 67.2241 560.222 65.7169 559.965 64.2612C559.749 63.0375 559.859 61.8536 559.761 60.6247C559.631 59.0085 559.304 57.4193 559.284 55.7896C559.227 51.0382 558.794 46.2714 558.794 41.5159C558.794 40.1083 558.548 38.7441 558.548 37.3345C558.548 36.3464 558.751 35.1203 558.535 34.1475C558.356 33.3443 558.174 28.5734 558.058 28.6314M529.129 43.3409C529.132 43.3618 532.25 41.8601 532.616 41.6248C533.172 41.2674 533.764 40.943 534.332 40.5897C535.172 40.067 536.092 39.0324 536.988 38.6965C538.541 38.1141 540.073 37.374 541.537 36.5854C543.243 35.6667 545.174 35.1788 546.917 34.3245C549.286 33.1632 551.629 32.1515 553.863 30.7152C554.57 30.261 555.217 29.7915 555.961 29.3668C556.27 29.19 556.452 28.9851 556.832 28.8765C557.097 28.801 557.234 28.6868 557.445 28.5224C557.719 28.3098 555.947 29.781 555.852 29.8572M530.442 42.987C532.335 40.5383 535.117 39.4003 537.407 37.4369C538.302 36.6695 539.604 36.5235 540.61 35.9233C541.861 35.1768 543.169 34.5318 544.486 33.905C546.332 33.0261 548.082 31.9371 549.877 30.9898C550.542 30.639 554.308 28.7874 554.639 29.1118M526.612 79.6114C526.612 80.0999 527.423 79.0628 527.854 78.8328C528.924 78.2616 530.003 78.3078 531.179 78.2751C534.184 78.1916 536.963 77.193 539.891 76.6232C541.779 76.2558 543.605 75.9721 545.415 75.2658C546.647 74.785 547.877 74.0716 549.161 73.7507C551.283 73.2203 553.579 72.6129 555.59 71.762C556.464 71.3922 559.878 71.224 560.325 70.331M525.644 47.7728C524.269 47.8996 520.13 47.5001 521.511 47.4651M525.366 47.6423C526.21 48.7096 525.382 50.6098 524.038 50.7012C523.183 50.7593 522.598 50.3997 521.954 49.8679C521.112 49.1721 520.941 48.5378 521.377 47.606M522.997 51.8276C522.49 51.8175 521.99 51.7157 521.482 51.7286M524.567 51.9407L524.712 52.212M523.602 54.0124C523.49 53.5159 522.408 52.9216 521.926 52.9778C520.616 53.1304 521.136 54.7822 521.439 55.4424M526.008 56.7015C524.332 56.5904 522.657 56.3065 521.037 55.8651M522.795 54.7204C523.063 55.5186 523.115 56.4849 523.137 57.3244M522.189 57.8985C521.847 57.7271 521.455 57.8042 521.086 57.7889M523.57 58.1385C523.66 58.2349 523.672 58.2939 523.714 58.4098M522.223 59.2727C523.342 59.2443 525.145 60.897 523.418 61.4883C522.822 61.6923 521.715 61.7543 521.405 61.0428C521.27 60.7341 521.209 60.1268 521.382 59.8211C521.723 59.2177 522.666 59.824 523.065 59.9389M522.864 62.8316C522.776 62.81 521.985 62.4934 521.911 62.6113C521.885 62.6522 523.273 63.3998 523.338 63.446C523.59 63.627 524.16 64.1769 523.747 64.5204C523.007 65.1358 522.247 64.7151 521.528 64.3781M523.648 66.6619C523.389 65.9902 522.337 65.15 521.645 65.6891C521.061 66.1445 521.421 66.7047 522.006 66.948C522.349 67.0911 523.518 66.9366 523.434 66.95C522.625 67.0788 521.742 67.7208 520.931 67.9684M523.302 69.2833C522.725 69.2339 522.119 69.0168 521.539 69.053C521.108 69.08 522.316 69.4348 522.715 69.6038C523.886 70.1006 524.1 70.8623 523.784 72.0213M523.678 73.2615C523.16 73.2747 522.44 73.1513 522.177 73.7121C522.053 73.9771 521.914 74.6092 522.22 74.8111C522.492 74.9902 524.771 74.8883 523.294 75.2728C522.305 75.5302 520.522 76.2428 519.963 74.9524C519.376 73.6005 519.529 71.3042 521.29 71.2595M531.242 50.2397C531.242 48.8828 531.428 47.5377 531.249 46.192C531.186 45.723 531.097 45.019 531.536 44.7753C532.498 44.2407 533.413 43.9322 533.945 45.1213C534.647 46.6895 532.832 47.5165 531.595 47.0668M534.885 48.5945C534.885 47.9673 534.602 47.6014 534.885 47.0668C534.993 46.8631 536.184 45.6251 536.789 46.192C537.696 47.4399 537.394 48.0448 536.909 48.5422C536.424 49.0397 535.531 49.3434 535.003 48.947M538.528 45.5391C538.765 46.2744 538.796 47.008 538.881 47.7719M540.291 44.599C540.066 45.5642 540.526 48.554 540.526 47.563C540.526 46.5219 540.392 45.5761 541.068 44.7165C541.273 44.4554 542.017 43.2037 542.432 43.7111C543.17 44.6124 543.043 45.9837 542.994 47.0668M544.404 39.781C544.404 39.6786 544.444 39.4839 544.495 39.7157C544.647 40.3997 544.574 41.2131 544.613 41.9093C544.671 42.957 544.806 43.9692 544.965 45.0038C545.08 45.7478 544.903 45.2737 544.756 44.834M543.346 42.8363C544.301 42.7861 545.342 42.3197 546.284 42.1312M546.872 43.0713C546.922 43.0607 546.973 43.0489 547.024 43.0359M547.024 43.0359C547.76 42.8496 548.55 42.4222 548.902 41.7395C549.045 41.4623 549.268 40.9215 548.843 40.7863C548.031 40.528 547.447 41.1669 547.25 41.8962C547.163 42.22 547.044 42.6457 547.024 43.0359ZM547.024 43.0359C547 43.5341 547.138 43.9743 547.714 44.0702C548.759 44.2443 549.745 43.999 550.515 43.3064M551.807 40.1335C551.55 40.1013 551.69 41.1472 551.69 41.4131C551.69 41.613 551.602 42.6993 551.748 41.9941C551.935 41.0991 551.828 39.9398 552.303 39.1412C552.587 38.6652 553.304 37.6032 553.687 38.3708M555.685 36.9606C555.646 36.8621 555.275 37.5622 555.241 37.6396C555.072 38.0255 554.863 38.4709 554.863 38.8996C554.863 39.4341 555.69 38.8408 556.038 38.8408C557.45 38.8408 555.101 41.4203 554.863 41.7787M535.455 57.3326C535.315 56.5081 535.073 55.6279 535.64 54.8947C535.964 54.4744 536.601 54.2453 536.839 54.8458C537.104 55.5136 537.261 56.4901 536.819 57.1176C536.627 57.3902 536.355 57.4826 536.024 57.5036C535.689 57.5249 535.679 57.3205 535.547 57.0688M538.327 56.2953C538.207 55.9392 538.633 55.6377 538.837 55.3711C539.063 55.075 539.31 54.7867 539.516 54.4805M537.701 55.0855C538.382 55.6906 539.78 56.0431 540.726 56.2953M542.047 55.6904C540.902 54.8317 541.052 51.9891 543.074 52.8143C543.844 53.1289 543.888 54.2288 543.548 54.8223C543.353 55.1611 543.084 55.337 542.673 55.3923C541.893 55.4975 541.809 55.2319 541.437 54.7491M544.372 54.3934C544.372 53.3841 544.118 51.576 545.596 51.4594C546.808 51.3637 547.063 53.2709 546.467 53.963C546.176 54.301 545.745 54.5038 545.284 54.4784C544.623 54.442 544.772 53.7043 544.69 53.2719M548.407 52.7077C548.28 52.5658 548.181 52.415 548.112 52.259M548.112 52.259C547.912 51.8066 547.957 51.3102 548.254 50.8606C548.877 49.918 549.455 50.149 550.01 50.9509C550.659 51.8908 550.569 53.368 549.278 53.8148C548.884 53.9513 548.479 53.8593 548.229 53.526C547.895 53.0796 547.954 52.6724 548.112 52.259ZM548.112 52.259C548.165 52.121 548.229 51.9823 548.292 51.8413M551.885 52.5834C551.655 52.7638 551.742 50.6748 551.775 50.4094C551.841 49.8828 552.431 48.5815 552.958 49.199C553.545 49.887 553.495 51.643 553.284 52.4953C553.205 52.8124 552.913 52.9227 552.697 53.1064C552.065 53.6455 551.894 52.7335 551.615 52.1604M543.147 58.715C543.092 58.707 544.598 57.6865 544.961 57.5051M537.455 62.4907C537.455 62.1308 537.35 62.5306 537.319 62.6761C537.201 63.2434 537.121 63.8401 537.098 64.4253C537.06 65.3987 537.744 65.2288 538.36 65.3585C539.558 65.6112 538.58 61.2351 537.546 62.8245M540.121 64.7642C540.508 64.347 540.89 63.9425 541.331 63.5544M540.121 63.5544C540.485 64.0057 540.936 64.3671 541.331 64.7642M543.308 64.7642C543.308 63.7533 542.537 61.1347 544.356 61.1347M542.541 63.5544C543.13 63.2829 543.74 63.1371 544.356 62.9494M545.718 64.1593C545.718 63.2735 545.342 62.066 545.771 61.273C546.067 60.727 546.635 59.404 547.38 60.1448M544.961 62.9494C545.536 62.7167 546.173 62.5469 546.775 62.3445M548.878 62.9494C548.212 62.8641 548.776 58.4307 549.8 59.4807M548.036 61.7396C547.82 61.7132 548.364 61.6201 548.388 61.6164C548.919 61.5362 549.32 61.3403 549.8 61.1347M551.682 62.3445C551.635 61.0785 551.282 58.9949 552.825 58.715M551.01 61.0904C551.34 61.2993 551.976 60.7113 552.22 60.5297M493.678 38.1253C494.79 37.9994 495.852 38.3891 496.986 38.2427C497.521 38.1737 498.175 37.978 498.678 38.2911C499.098 38.5522 498.947 38.9853 499.044 39.3755C499.282 40.3249 500.188 39.7782 500.875 39.8244C502.146 39.9099 503.21 40.6653 504.218 41.3854C504.457 41.5566 504.651 41.8276 504.922 41.9517C505.406 42.1729 506.003 42.0842 506.518 42.1106C507.19 42.1451 507.887 42.2586 508.541 42.4145C509.163 42.5625 509.794 42.7087 510.42 42.8496C511.076 42.9971 511.74 43.0675 512.395 43.2295C513.421 43.483 513.983 43.8432 514.813 44.4658M492.932 42.3523C494.415 41.851 496.362 41.695 497.711 42.6562C498.734 43.3846 499.582 43.6354 500.861 43.2364C501.464 43.0484 502.27 42.5793 502.919 42.8496C503.3 43.0082 503.432 43.5741 503.679 43.8718C504.038 44.3042 504.483 44.4111 505.005 44.5211C505.824 44.6935 506.255 45.0302 506.856 45.5847M492.683 44.8388C492.295 45.1685 491.624 46.5109 492.573 46.5517C494.234 46.6232 496.321 44.6774 497.891 45.6193C498.781 46.153 499.118 46.9216 500.253 46.9523C500.682 46.9639 501.104 46.9757 501.51 47.1319C501.991 47.3167 502.396 47.7016 502.905 47.8088C503.765 47.9897 504.665 47.6892 505.502 47.8986C506.743 48.2088 507.926 48.7313 509.177 49.0382C509.924 49.2215 510.516 49.1893 511.277 49.0589C512.894 48.7817 514.214 48.9449 515.807 49.1901M493.926 56.6496C493.926 58.9725 493.491 61.4044 493.125 63.7015C492.966 64.7045 492.964 65.7567 492.78 66.7474C492.681 67.2773 492.516 67.8057 493.25 67.6591C493.714 67.5663 494.293 67.831 494.769 67.8387C495.243 67.8463 495.705 67.963 496.171 67.963C497.173 67.963 498.578 68.5827 499.452 69.0819C499.541 69.133 500.367 69.8667 500.391 69.4549C500.463 68.236 500.796 67.0814 501.068 65.891C501.444 64.2483 502.132 62.5557 502.132 60.8558C502.132 59.7033 502.427 58.8424 502.726 57.7685C502.865 57.2665 503.126 56.6046 503.126 56.0832C503.126 55.3872 500.842 55.6346 500.371 55.5168C498.825 55.1305 497.278 54.8131 495.833 54.2874C495.049 54.0025 494.817 54.0621 494.797 54.7847C494.771 55.6871 494.458 56.8301 494.051 57.6441M496.537 59.509C496.358 60.0907 496.421 60.6955 496.289 61.291C496.184 61.7616 496.031 61.8818 496.441 62.0231C496.948 62.1981 497.311 62.3684 497.856 62.3684C498.001 62.3684 498.868 62.5148 498.955 62.4651C499.158 62.3488 499.02 61.301 499.024 61.0976C499.033 60.5309 499.213 60.0083 499.265 59.4537C499.374 58.3136 497.352 59.2326 496.91 59.509M499.645 59.6333C499.998 59.6333 500.295 59.5857 500.64 59.509M499.645 60.8766C499.398 60.8271 500.139 60.7523 500.391 60.7523M499.77 61.7468C499.477 61.7468 500.348 61.842 500.64 61.8712M494.921 61.3739C495.173 61.3545 495.419 61.2947 495.667 61.2495M495.045 60.6279H495.418M494.921 60.0063C495.214 59.9854 495.502 59.9265 495.791 59.882M497.407 57.8928V59.0117M498.029 58.0171V58.6387M498.899 57.5198V58.6387M496.662 62.6171C496.386 62.686 496.617 63.2077 496.662 63.363M497.407 62.6171C497.407 62.9616 497.47 63.2739 497.532 63.6117M498.278 62.7414C498.278 63.0999 498.315 63.3897 498.402 63.736M493.18 66.4712C493.244 65.77 493.796 64.6968 494.355 64.3024C495.149 63.7416 495.914 62.7823 496.91 63.1144M498.775 63.6117C500.516 63.6117 500.67 64.8045 500.889 66.2225M497.532 60.7523C497.532 60.5738 497.542 60.9265 497.559 60.9733C497.664 61.2509 497.855 60.8357 497.905 60.7523M504.245 59.2604C504.301 58.6506 504.574 59.4924 504.646 59.6333C504.957 60.2429 505.233 59.7768 505.71 59.5643C506.992 58.9922 507.621 60.0502 508.755 60.2342C509.581 60.3682 510.399 60.0574 511.201 60.1375C511.672 60.1847 512.108 60.2549 512.589 60.2549C512.953 60.2549 513.31 60.2269 513.673 60.1997C514.266 60.1552 514.546 60.6099 514.937 61.0009M503.624 62.6171C503.574 63.1161 503.027 64.3277 504.114 63.7844C504.873 63.405 505.172 63.3243 505.986 63.363C506.354 63.3806 506.709 63.2479 507.063 63.1697C507.4 63.0953 507.705 63.2574 508.051 63.2318C508.571 63.1933 509.125 62.94 509.646 63.0246C509.927 63.07 510.129 63.2462 510.351 63.4045C510.725 63.6707 511.147 63.7328 511.58 63.8603M502.505 67.0928C502.29 66.4912 502.503 65.8618 502.684 66.7405C502.776 67.1854 502.683 68.53 503.465 68.0666L503.482 68.0562C504.258 67.5966 504.638 67.3715 505.565 67.5417C506.182 67.6551 507.363 68.2408 507.975 68.0114C508.372 67.8626 509.457 66.6052 509.84 66.9684C510.345 67.4478 510.372 67.6282 511.083 67.8111C511.822 68.0012 512.582 68.3372 513.321 68.4603M491.937 48.9415C492.107 48.8139 491.782 51.1829 492.559 50.9514C493.555 50.6545 494.569 48.3399 495.695 49.5631C496.393 50.3223 497.181 51.0533 498.264 51.1517C499.27 51.2432 500.03 50.6364 500.971 51.2553C502.167 52.0412 503.263 52.2648 504.701 51.9253C506.335 51.5395 506.399 52.496 507.526 53.3688C508.055 53.7786 509.465 53.7284 510.089 53.6105C510.757 53.4843 511.387 53.2295 512.05 53.5138C512.683 53.785 513.278 53.7027 513.943 53.6658M528.79 39.3575C528.22 39.2248 529.32 37.6501 529.472 37.4839C530.408 36.4533 531.413 35.4586 532.443 34.5081C534.2 32.8853 536.068 31.2541 538.281 30.1914C540.433 29.158 542.748 28.1108 545.087 27.505C546.4 27.1651 547.764 27.0336 549.07 26.6738C549.305 26.609 551.096 26.0492 550.112 26.0492M529.838 38.7526C533.804 35.6253 537.95 32.779 542.336 30.1792C544.092 29.1379 545.975 28.3154 547.917 27.627C548.81 27.3107 549.463 27.2296 550.405 27.2678M525.603 35.0132C525.763 35.2179 525.814 35.4334 525.832 35.6824C525.847 35.8893 526.081 35.3344 526.201 35.1579C527.804 32.7974 529.905 30.9785 532.344 29.3475C535.3 27.3716 538.693 25.6263 542.387 25.1378C543.242 25.0246 544.122 25.0297 544.961 24.8394M527.762 36.9378C526.883 36.7627 527.93 36.0037 528.228 35.7267C529.682 34.3761 531.31 33.1798 532.944 32.0204C536.09 29.7871 539.354 27.5775 542.861 25.8372C544.147 25.1991 545.462 24.8171 546.903 24.626C547.423 24.5571 547.961 24.4976 548.459 24.3346C548.758 24.2368 548.468 24.251 548.36 24.2345M531.047 41.7772C531.539 40.5702 532.838 39.9379 533.887 39.2137C537.241 36.8967 540.468 34.4773 544.177 32.6875C545.843 31.8839 547.588 31.4272 549.405 31.0912C550.092 30.9642 550.79 30.8838 551.474 30.7438C551.655 30.7067 551.885 30.6553 552.055 30.5748C552.438 30.3935 552.04 30.4246 551.978 30.2837M525.188 37.749C524.231 39.7248 527.146 33.81 528.32 31.9469C530.001 29.2796 532.43 27.0925 535.411 25.8176C538.708 24.4072 542.242 23.5685 545.643 22.4402C546.996 21.9915 548.377 21.8148 549.8 21.8148M516.569 41.3995C516.22 41.4405 515.848 41.1008 515.574 40.9276C515.089 40.6208 514.577 40.3775 514.069 40.1114C513.054 39.5798 511.989 39.1628 510.983 38.6191C509.003 37.5496 506.927 36.7054 504.912 35.7112C502.996 34.7662 501.075 33.8891 499.224 32.8161C497.762 31.9693 496.236 31.2023 494.709 30.4821C494.226 30.2543 493.683 29.993 493.14 29.9464C492.75 29.9131 492.923 30.2593 492.923 30.4949M516.454 40.2517C516.827 40.7178 515.481 39.5594 515 39.2058C513.498 38.1014 511.966 37.0624 510.351 36.1257C507.975 34.7468 505.434 33.3382 502.871 32.3314C501.301 31.7147 499.903 30.7997 498.414 30.0293C497.837 29.731 497.242 29.4013 496.596 29.2832C495.902 29.1565 495.779 29.2547 495.448 29.8062M516.569 39.1038C517.129 39.5587 517.31 39.3509 517.054 38.6319C516.695 37.6258 515.99 36.7373 515.23 36.0046C513.133 33.9848 510.499 32.7921 507.813 31.7766C504.54 30.5391 501.369 29.0276 498.554 26.9238C498.028 26.5309 497.503 26.1533 496.953 25.795C496.375 25.4176 496.423 25.4334 496.482 26.0182M519.439 40.1369C519.53 40.2168 518.8 39.2914 518.775 39.2568C517.689 37.7053 516.775 36.0805 515.542 34.6272C514.501 33.3993 513.432 32.479 512.105 31.5917C510.233 30.3397 508.316 29.2355 506.334 28.1864C505.569 27.7815 504.839 27.2459 504.019 26.962C503.202 26.6793 502.442 26.1579 501.602 25.9736C500.984 25.8379 500.419 25.7344 499.798 25.5591C499.326 25.4262 498.933 25.2841 498.452 25.4443C498.275 25.5031 498.053 25.6211 498.318 25.4443M520.701 38.8742C521.09 39.2627 521.191 39.2799 521.02 38.6702C520.774 37.7927 520.017 37.0509 519.477 36.3489C518.103 34.5642 516.352 33.2491 514.803 31.6555C513.087 29.8906 511.358 28.3671 509.146 27.2426C508.173 26.7476 507.164 26.3237 506.213 25.7887C505.253 25.2489 504.129 24.675 503.037 24.5133C502.494 24.4328 502.008 24.1997 501.481 24.0732C501.027 23.9643 500.575 24.0501 500.116 23.9967C499.626 23.9397 499.178 23.6332 498.682 23.6332C498.523 23.6332 498.338 23.6879 498.229 23.8118C498.057 24.0067 498.74 24.0568 498.777 24.0669M523.112 40.0221C523.468 39.9331 521.311 35.9269 520.931 35.4051C519.859 33.9354 518.537 32.7226 517.462 31.2729C515.992 29.2916 514.155 27.7919 512.137 26.42C510.415 25.2492 508.585 24.483 506.659 23.7608C505.856 23.4596 505.169 23.0146 504.427 22.6002C504.008 22.3659 503.633 22.1234 503.145 22.2941C502.731 22.4391 502.504 22.4592 502.08 22.3706C501.718 22.2947 501.33 22.088 501.073 22.3451M539.516 32.7034C539.95 32.2218 540.858 32.0357 541.476 31.815C543.526 31.0834 545.564 30.3245 547.569 29.5005C548.648 29.0565 549.684 28.5278 550.861 28.3082C551.909 28.1128 552.976 28.0004 554.034 27.864M543.768 25.5344C543.326 24.4742 549.297 23.2232 550.122 23.101C550.583 23.0327 553.09 22.4052 553.232 22.8306M527.365 40.766C527.046 40.6864 528.053 37.6095 528.126 37.3912C528.581 36.026 529.259 34.7972 530.029 33.5958C530.804 32.3856 531.743 31.2958 532.853 30.3713C533.373 29.9381 533.961 29.6636 534.445 29.1796L535.096 28.5287C535.21 28.4144 535.61 28.1481 535.386 28.1481M549.719 26.274C549.788 25.9299 550.726 25.7618 551.001 25.6873C551.323 25.6004 551.705 25.6068 552.04 25.5365C552.316 25.4789 552.645 25.4353 552.904 25.3521C553.052 25.3046 553.675 25.0128 553.566 25.0671M538.143 43.9296L538.287 44.201" stroke="white" stroke-width="0.854095" stroke-linecap="round"/>
<path d="M201.211 118.803C201.518 121.875 205.776 125.346 208.416 126.501C211.442 127.825 215.539 127.777 218.613 126.519C221.127 125.491 223.516 124.056 224.45 121.357C225.057 119.603 224.851 117.702 224.851 115.849" stroke="white" stroke-width="1.56" stroke-linecap="round"/>
<path d="M199.689 112.107C199.689 110.931 200.33 109.88 200.784 108.838C201.273 107.715 201.772 106.521 202.434 105.49C203.112 104.437 204.801 103.187 205.954 102.675C206.403 102.475 206.743 102.142 207.213 101.971C207.897 101.722 208.56 101.444 209.262 101.236C209.99 101.019 210.401 100.845 211.163 100.845C211.786 100.845 212.448 100.781 213.063 100.876C213.891 101.003 214.766 101.267 215.597 101.267C216.024 101.267 216.308 101.628 216.661 101.83C217.849 102.509 219.083 103.032 220.172 103.879C220.562 104.183 221.093 104.37 221.439 104.716C221.842 105.119 222.208 105.547 222.605 105.944C223.061 106.401 223.414 107.543 223.621 108.165" stroke="white" stroke-width="1.56" stroke-linecap="round"/>
<path d="M217.286 106.335C218.088 106.335 218.737 106.381 219.508 106.648C220.583 107.02 222.021 107.351 222.98 107.962C223.103 108.04 223.743 108.637 223.762 108.134C223.807 106.979 223.952 106.046 224.247 104.919C224.661 103.34 225.029 101.634 225.029 100" stroke="white" stroke-width="1.56" stroke-linecap="round"/>
<path d="M198 126.044C198 124.498 198.425 122.622 199.197 121.249C199.576 120.575 199.751 119.287 200.284 118.755C200.468 118.57 201.291 119.469 201.488 119.537C202.385 119.846 203.134 119.755 204.053 119.857C205.192 119.984 206.274 120.131 207.432 120.131" stroke="white" stroke-width="1.56" stroke-linecap="round"/>
</g>
<defs>
<clipPath id="clip0_477_157">
<rect width="1100" height="230" fill="white"/>
</clipPath>
</defs>
</svg>
